<svg width="55" height="83" viewBox="0 0 55 83" fill="none" xmlns="http://www.w3.org/2000/svg">
<path fill-rule="evenodd" clip-rule="evenodd" d="M43.64 37.46C51.78 50.29 52.42 67.11 53.98 81.86L1 81.75C1.91 66.31 2.29 51.24 12.14 38.17L43.64 37.46Z" fill="#F2F0E5"/>
<path fill-rule="evenodd" clip-rule="evenodd" d="M43.64 37.46C51.78 50.29 52.42 67.11 53.98 81.86L1 81.75C1.91 66.31 2.29 51.24 12.14 38.17L43.64 37.46Z" stroke="#271109" stroke-width="0.5641" stroke-miterlimit="22.9256" stroke-linejoin="round"/>
<path fill-rule="evenodd" clip-rule="evenodd" d="M27.0301 9.6001C30.4201 9.6401 33.0201 10.4401 37.4801 11.5301L48.8501 25.1401C50.2801 27.3901 52.0001 31.2001 49.7301 34.2501C45.0201 41.3701 37.2701 46.6701 28.6901 47.1001C27.5301 47.1001 26.3701 47.1001 25.2101 47.1001C16.6301 46.6701 10.0001 41.3401 5.13014 34.0201C2.85014 30.9701 3.78014 27.4001 5.21014 25.1501L16.5801 11.5401C21.0401 10.4501 23.6401 9.6401 27.0301 9.6001Z" fill="#F2F0E5"/>
<path fill-rule="evenodd" clip-rule="evenodd" d="M37.4798 11.54C40.9298 17.38 45.2998 22.82 44.7298 27.69C43.0698 41.98 29.1498 33.81 32.0998 38.86C27.5998 41.28 24.9498 40.28 21.8598 38.61C11.5298 39.46 9.6498 35.94 4.0498 28.08C2.0298 31.72 8.1998 41.54 11.5298 43.96C16.9698 47.36 25.6898 49.39 32.7298 47.89C37.7598 47.65 52.37 40.35 50.5 32.22C52.18 30.33 50.4898 28.77 49.5398 26.35L37.4798 11.54Z" fill="#CBC4AF"/>
<path fill-rule="evenodd" clip-rule="evenodd" d="M27.0301 9.6001C30.4201 9.6401 33.0201 10.4401 37.4801 11.5301L48.8501 25.1401C50.2801 27.3901 52.0001 31.2001 49.7301 34.2501C45.0201 41.3701 37.2701 46.6701 28.6901 47.1001C27.5301 47.1001 26.3701 47.1001 25.2101 47.1001C16.6301 46.6701 10.0001 41.3401 5.13014 34.0201C2.85014 30.9701 3.78014 27.4001 5.21014 25.1501L16.5801 11.5401C21.0401 10.4501 23.6401 9.6401 27.0301 9.6001Z" stroke="#271109" stroke-width="0.5641" stroke-miterlimit="22.9256" stroke-linejoin="round"/>
<path d="M23.3701 23.2901C23.5601 20.0801 20.0001 17.3801 16.4001 19.0001C13.8901 20.1401 13.1001 23.0101 15.2001 25.6901C17.3001 28.3801 21.3701 27.4001 22.6601 25.6701" stroke="black" stroke-width="0.5638" stroke-miterlimit="22.9256"/>
<path fill-rule="evenodd" clip-rule="evenodd" d="M23.3001 23.88L23.0701 24.83C20.3501 23.3 17.2601 22.67 14.0001 22.5C13.9501 22.2 14.0001 21.92 14.1001 21.65C17.5401 21.43 20.6401 22.07 23.3001 23.88Z" fill="#7ACDF3" stroke="black" stroke-width="0.5638" stroke-miterlimit="22.9256"/>
<path fill-rule="evenodd" clip-rule="evenodd" d="M21.5517 23.06L21.8417 23.09C21.9317 23.1 22.0017 23.18 21.9917 23.27L21.9217 23.89C21.9117 23.98 21.8317 24.05 21.7417 24.04L21.4517 24.01C21.3617 24 21.2917 23.92 21.3017 23.83L21.3717 23.21C21.3817 23.12 21.4617 23.05 21.5517 23.06Z" fill="black" stroke="black" stroke-width="0.5638" stroke-miterlimit="22.9256"/>
<path fill-rule="evenodd" clip-rule="evenodd" d="M24.7684 23.7C23.4284 23.71 17.2684 17.19 17.2784 17.17C17.2684 17.17 17.3284 16.53 17.6284 16.62C18.7384 16.96 24.2584 21.53 24.2784 21.48C24.2784 21.47 24.3584 20.08 24.6284 20.55C24.6984 20.88 25.0284 23.69 24.7684 23.7Z" fill="black" stroke="black" stroke-width="0.5635" stroke-miterlimit="22.9256"/>
<path fill-rule="evenodd" clip-rule="evenodd" d="M31.7402 18.99C33.8302 17.68 36.9302 18.35 38.6702 20.48C40.4102 22.61 40.1202 25.41 38.0302 26.71C35.9402 28.02 32.8402 27.35 31.1102 25.22C29.3702 23.09 29.6502 20.3 31.7402 18.99Z" fill="#7ACDF3" stroke="black" stroke-width="0.6092" stroke-miterlimit="22.9256"/>
<path fill-rule="evenodd" clip-rule="evenodd" d="M37.3711 11.54L41.8111 1V16.41L37.3711 11.54Z" fill="#FCB457" stroke="black" stroke-width="0.5647" stroke-miterlimit="22.9256" stroke-linecap="round" stroke-linejoin="round"/>
<path fill-rule="evenodd" clip-rule="evenodd" d="M41.8086 1V16.49L45.0686 20.24L45.3986 20.32C49.2186 17.71 47.9386 10.62 41.8086 1Z" fill="#FCB457" stroke="black" stroke-width="0.5647" stroke-miterlimit="22.9256" stroke-linecap="round" stroke-linejoin="round"/>
<path fill-rule="evenodd" clip-rule="evenodd" d="M16.4595 11.54L12.0195 1V16.41L16.4595 11.54Z" fill="#FCB457" stroke="black" stroke-width="0.5649" stroke-miterlimit="22.9256" stroke-linecap="round" stroke-linejoin="round"/>
<path fill-rule="evenodd" clip-rule="evenodd" d="M21.0103 46.6802C27.3203 47.5002 33.7903 47.7702 40.5803 46.9602C40.8803 49.1902 40.0603 51.0202 37.5903 52.2702C32.4503 49.5302 26.2403 50.5202 20.0703 48.8202L21.0103 46.6802Z" stroke="#271109" stroke-width="0.5638" stroke-miterlimit="22.9256"/>
<path d="M14.1406 46.5601C16.1006 47.5401 18.0806 48.3001 20.0806 48.8301" stroke="#271109" stroke-width="0.5641" stroke-miterlimit="22.9256"/>
<path fill-rule="evenodd" clip-rule="evenodd" d="M27.0502 30.0601C28.1102 29.1001 29.1702 28.1401 30.2202 27.1701C30.6002 26.8301 30.2702 26.5101 29.6202 26.2101C28.7502 25.8901 27.8902 25.7401 27.0402 25.7601C26.1902 25.7501 25.3302 25.8901 24.4602 26.2101C23.8102 26.5201 23.4802 26.8301 23.8602 27.1701C24.9302 28.1301 25.9902 29.1001 27.0502 30.0601Z" fill="#A3747C" stroke="#271109" stroke-width="0.5635" stroke-miterlimit="22.9256"/>
<path fill-rule="evenodd" clip-rule="evenodd" d="M40.8019 36.4498C39.4419 36.9398 38.4719 37.7398 37.8119 38.7698L31.6719 32.7398C32.7219 32.6498 33.4319 32.2898 34.2119 31.5898C36.2119 33.2698 38.6719 34.8898 40.8019 36.4498Z" fill="#F2F0E5" stroke="#271109" stroke-width="0.5638" stroke-miterlimit="22.9256" stroke-linecap="round" stroke-linejoin="round"/>
<path fill-rule="evenodd" clip-rule="evenodd" d="M40.7981 36.45L41.0781 37.06L41.0881 37.1L41.2781 37.41L41.5581 37.49L41.7281 37.69C41.6481 37.77 41.6981 37.72 41.7481 37.75L41.9881 37.85L41.9981 38.15L41.8281 38.67L41.8181 38.72L41.7881 39.17L41.9381 39.34C41.9381 39.36 41.9281 39.38 41.9281 39.4L42.1681 39.93L42.1581 39.97L41.9981 40.18L41.3181 40.1399L41.2881 40.12L40.6281 39.75L40.1181 39.72L40.1081 39.77L39.9781 40.09L39.5181 39.97L39.2481 39.72L39.2281 39.45L38.9381 39.32L38.6481 39.3L38.6781 39.02C38.5181 38.87 38.5781 38.87 38.3881 38.84L37.8281 38.75C38.4681 37.75 39.5581 36.88 40.7981 36.45Z" fill="#A6A6A5" stroke="#271109" stroke-width="0.5641" stroke-miterlimit="22.9256" stroke-linecap="round" stroke-linejoin="round"/>
<path d="M32.0419 38.5601C28.6719 40.4101 25.2919 40.6301 21.9219 38.8101" stroke="#271109" stroke-width="0.5641" stroke-miterlimit="22.9256" stroke-linecap="round" stroke-linejoin="round"/>
<path d="M38.5098 30.79C38.8398 30.35 37.3698 27.45 35.4398 30.18C33.3698 33.1 31.2698 33.55 27.1498 31.44L27.0898 30.33" stroke="#271109" stroke-width="0.5641" stroke-miterlimit="22.9256" stroke-linecap="round" stroke-linejoin="round"/>
<path d="M15.3906 32.79C19.5006 35.85 23.4406 36.11 27.1106 31.43L27.0606 29.95" stroke="#271109" stroke-width="0.5638" stroke-miterlimit="22.9256" stroke-linecap="round" stroke-linejoin="round"/>
<path fill-rule="evenodd" clip-rule="evenodd" d="M20.7109 35.02L21.0909 35.85C21.7609 37.37 21.6109 35.55 21.6109 35L20.7109 35.02Z" stroke="#271109" stroke-width="0.5638" stroke-miterlimit="22.9256" stroke-linecap="round" stroke-linejoin="round"/>
<path fill-rule="evenodd" clip-rule="evenodd" d="M34.2214 31.5801L36.9814 33.7101C35.7614 33.6901 35.1214 34.4601 34.8314 35.8201L31.6914 32.7301C32.6214 32.6501 33.4714 32.2801 34.2214 31.5801Z" fill="#FCB457" stroke="#271109" stroke-width="0.5641" stroke-miterlimit="22.9256" stroke-linecap="round" stroke-linejoin="round"/>
<path fill-rule="evenodd" clip-rule="evenodd" d="M35.8112 21.59C35.1812 23.46 37.8412 27 37.9712 22.39C38.0312 20.61 36.7112 18.94 35.8112 21.59Z" fill="black" stroke="black" stroke-width="0.5638" stroke-miterlimit="22.9256"/>
<path fill-rule="evenodd" clip-rule="evenodd" d="M31.59 17.06C31.6 17.8 32.4 16.86 32.7 16.59C33.65 15.75 34.92 13.5 36.18 15.42C36.35 15.68 37.29 17.03 37.56 17.06C38.73 17.17 37.25 10.1 32.14 16.05C31.99 16.23 31.58 16.87 31.59 17.06Z" fill="black" stroke="black" stroke-width="0.5638" stroke-miterlimit="22.9256"/>
<path fill-rule="evenodd" clip-rule="evenodd" d="M12.0188 1V16.49L8.75879 20.24L8.42879 20.32C4.60879 17.71 5.88879 10.62 12.0188 1Z" fill="#FCB457" stroke="black" stroke-width="0.5647" stroke-miterlimit="22.9256" stroke-linecap="round" stroke-linejoin="round"/>
<path fill-rule="evenodd" clip-rule="evenodd" d="M26.881 14.69C45.291 13.09 63.061 34.05 32.601 46.68C30.691 46.93 28.761 47.13 26.811 47.26C24.861 47.13 22.931 46.93 21.021 46.68C-9.44898 34.05 8.48102 13.09 26.881 14.69ZM15.571 47.22C14.731 47.15 13.881 47.07 13.031 46.97C12.731 49.2 13.551 51.03 16.021 52.28C19.281 50.54 22.971 50.31 26.811 49.93C30.651 50.31 34.341 50.54 37.601 52.28C40.071 51.03 40.891 49.2 40.591 46.97C39.741 47.07 38.891 47.16 38.051 47.22C54.021 40.26 59.461 22.97 38.301 9.74005C34.631 8.41005 30.801 7.89004 26.811 8.19004C22.821 7.89004 18.991 8.41005 15.321 9.74005C-5.83898 22.97 -0.398979 40.27 15.571 47.22Z" fill="#343333" stroke="#271109" stroke-width="0.5641" stroke-miterlimit="22.9256"/>
<path fill-rule="evenodd" clip-rule="evenodd" d="M26.881 14.69C45.291 13.09 63.061 34.05 32.601 46.68C30.691 46.93 28.761 47.13 26.811 47.26C24.861 47.13 22.931 46.93 21.021 46.68C-9.44898 34.05 8.48102 13.09 26.881 14.69ZM15.571 47.22C14.731 47.15 13.881 47.07 13.031 46.97C12.731 49.2 13.551 51.03 16.021 52.28C19.281 50.54 22.971 50.31 26.811 49.93C30.651 50.31 34.341 50.54 37.601 52.28C40.071 51.03 40.891 49.2 40.591 46.97C39.741 47.07 38.891 47.16 38.051 47.22C54.021 40.26 59.461 22.97 38.301 9.74005C34.631 8.41005 30.801 7.89004 26.811 8.19004C22.821 7.89004 18.991 8.41005 15.321 9.74005C-5.83898 22.97 -0.398979 40.27 15.571 47.22Z" stroke="#271109" stroke-width="0.5641" stroke-miterlimit="22.9256"/>
<path fill-rule="evenodd" clip-rule="evenodd" d="M21.0103 46.6802C27.3203 47.5002 33.7903 47.7702 40.5803 46.9602C40.8803 49.1902 40.0603 51.0202 37.5903 52.2702C32.4503 49.5302 26.2403 50.5202 20.0703 48.8202L21.0103 46.6802Z" stroke="#271109" stroke-width="0.5641" stroke-miterlimit="22.9256"/>
<path d="M14.1406 46.5601C16.1006 47.5401 18.0806 48.3001 20.0806 48.8301" stroke="#271109" stroke-width="0.5641" stroke-miterlimit="22.9256"/>
</svg>
