<svg width="55" height="73" viewBox="0 0 55 73" fill="none" xmlns="http://www.w3.org/2000/svg">
<path fill-rule="evenodd" clip-rule="evenodd" d="M43.7988 28.5103C50.2488 38.6703 52.2787 53.7403 53.6687 66.8703C53.6787 66.9203 54.0287 72.7803 54.0387 72.8403L1.21875 72.9003C1.21875 72.8503 1.38875 66.9403 1.38875 66.8903C2.12875 54.5603 4.01875 40.2703 12.3387 29.2203L43.7988 28.5103Z" fill="#FCB457"/>
<path fill-rule="evenodd" clip-rule="evenodd" d="M45.1816 30.8802C50.4316 40.6902 52.3016 54.0902 53.5816 66.0302V67.0402H10.3516C10.3716 64.5302 10.9916 62.1502 12.5916 59.9102C15.7416 55.3302 19.8016 51.1702 24.7316 47.4102C27.4516 45.4302 28.7516 42.4502 28.1116 38.2802C27.1816 34.2002 27.0716 28.0502 28.3916 23.9802C29.0216 22.0402 29.2616 20.3502 29.1316 19.2402C28.8516 17.6202 28.2616 16.2102 27.5416 14.9002C26.5916 13.1802 26.9216 11.1802 27.2816 9.7102L27.3216 9.5702V9.5602L27.3616 9.4402L27.3716 9.4102L27.4016 9.3002L27.4116 9.2602L27.4216 9.2402L27.4516 9.1102L27.4716 9.0202L27.4916 8.9602V8.9402L27.5216 8.8102L27.5316 8.7502L27.5516 8.6602L27.5616 8.6102L27.5816 8.5102L27.5916 8.4702L27.6116 8.35019L27.6416 8.2102V8.2002V8.1902L27.6716 8.0502L27.7016 7.9102V7.8902L27.7316 7.7302L27.7516 7.6202L27.7616 7.5802L27.7816 7.4802L27.7916 7.4202L27.8116 7.2902V7.2702L27.8216 7.2002L27.8316 7.1202V7.1102L27.8516 6.9702V6.9602L27.8616 6.9102L27.8716 6.8002V6.7702L27.8816 6.6502V6.6302L27.8916 6.4902V6.4802L27.9016 6.3402V6.3302L27.9116 6.1902V6.1702L27.9216 6.0402V6.0102L27.9316 5.9002V5.8502L27.9416 5.7502L27.9516 5.6402V5.6002V5.5302V5.4602V5.3702V5.3102V5.2902V5.1702V5.0602V5.0302V4.9002V4.8802V4.7202V4.5802V4.5702V4.4302V4.4102V4.2902V4.2502V4.1402V4.0902V4.0002V3.9402V3.8602V3.7902V3.7202L27.9416 3.6302V3.5802L27.9316 3.4802V3.4402L27.9216 3.3302V3.3002L27.9116 3.1702V3.1602L27.9016 3.0202L27.8816 2.8802V2.8702L27.8516 2.7202L27.8316 2.5802V2.5402L27.8216 2.4402L27.7816 2.1902L27.7716 2.1302C27.7616 2.0502 27.7416 1.9702 27.7316 1.8802L27.7116 1.7802L27.7016 1.7402V1.7202L27.6816 1.6102L27.6616 1.4902V1.4802L27.6316 1.3502L27.6016 1.2202C27.5616 1.0402 27.5216 0.870195 27.4716 0.700195C30.7416 0.770195 33.3116 1.5602 37.6616 2.6302L49.0116 16.2302C50.4416 18.4802 52.1616 22.2802 49.8816 25.3202C48.5416 27.3402 46.9616 29.2202 45.1816 30.8802Z" fill="#FCB457"/>
<path fill-rule="evenodd" clip-rule="evenodd" d="M4.00987 21.4501C4.12987 23.1301 4.76987 24.1801 5.48987 25.2301C7.73987 28.4801 9.84988 31.0101 13.0499 33.4601C17.8399 37.1301 23.2299 38.5401 29.5299 38.0401C35.0299 37.6001 40.2099 35.1401 44.2199 31.6701C45.7299 30.3701 46.8599 29.1601 48.1199 27.6401C48.4999 27.1801 48.8999 26.6401 49.2599 26.1301C49.9899 25.0901 50.7599 24.1701 50.9299 22.5201C51.0899 20.9601 50.6299 19.3901 50.0599 18.1601C48.8499 15.5301 47.8699 15.0401 46.1699 12.8001C45.9799 12.5501 45.7699 12.3401 45.5699 12.0801L38.3799 3.48013C37.5599 2.55013 37.9699 2.68013 36.8199 2.39013C33.0599 1.46013 29.4999 0.390125 25.4499 0.760125C23.9499 0.900125 22.3799 1.21013 20.9799 1.56013C20.4599 1.69013 16.9299 2.51013 16.7599 2.63013C16.6899 2.68012 16.2499 3.25013 16.1599 3.35013C15.9399 3.60013 15.7699 3.82012 15.5599 4.08012C15.1499 4.59012 14.7499 5.01013 14.3499 5.51013C13.0199 7.20013 5.84987 15.5501 5.36987 16.2901C4.47987 17.6801 3.87987 19.6601 4.00987 21.4501Z" fill="#FCB457"/>
<path fill-rule="evenodd" clip-rule="evenodd" d="M37.7504 2.72998C41.1804 8.51998 45.4804 13.92 44.9204 18.74C43.2604 33.03 29.3404 24.86 32.2904 29.91C27.7904 32.33 25.1404 31.33 22.0504 29.66C11.7204 30.51 9.84039 27 4.24039 19.13C4.20039 19.2 4.16039 19.27 4.13039 19.35C3.75039 21.17 3.95038 23.22 5.34038 25.07C10.2004 32.38 16.8304 37.71 25.4004 38.14C26.5504 38.14 27.7204 38.14 28.8804 38.14C37.4504 37.71 45.1904 32.43 49.8904 25.31C51.7004 22.89 50.9904 19.99 49.9004 17.78C49.8704 17.72 49.8404 17.66 49.8104 17.6C49.7704 17.52 49.7304 17.44 49.6804 17.36L38.8904 4.08998L37.7504 2.72998Z" fill="#D38E2B"/>
<path fill-rule="evenodd" clip-rule="evenodd" d="M45.2005 30.8801C45.4805 30.5701 45.8205 30.2901 46.1305 29.9801C47.4205 28.6501 49.3805 26.2601 50.2405 24.7701C51.7705 22.1401 50.6005 18.5201 49.0605 16.3201L47.3805 14.2901C45.7605 12.4501 43.9205 10.0201 42.3105 8.21008L38.1005 3.17008C37.6205 2.61008 37.8205 2.67008 36.9305 2.45008C34.7205 1.91008 29.3805 0.470077 27.4805 0.730077C28.1205 3.07008 28.1305 5.89008 27.6305 8.32008C27.0805 11.0001 26.2405 12.4901 27.7705 15.3301C29.6505 18.8301 29.3805 20.7501 28.2805 24.3901C27.1805 28.0201 27.2305 33.3901 27.9005 37.1801C28.0505 38.0401 28.2205 38.7101 28.2705 39.6401C28.4705 43.4501 26.7905 45.9701 24.7705 47.4001C24.4805 47.6001 24.2705 47.8001 23.9905 48.0101C23.7105 48.2201 23.4405 48.4301 23.1805 48.6501C22.9205 48.8701 22.7105 49.0301 22.4205 49.2801L18.6905 52.6701C16.9005 54.4401 15.0705 56.4901 13.4305 58.7501C9.47048 64.2401 8.98048 67.5701 10.3405 72.8601L53.7605 72.8701C53.7605 72.7401 53.5705 66.7701 53.5705 66.6101C53.4905 64.2701 52.7905 59.2201 52.4905 57.0501C51.2905 48.4801 49.6705 40.6101 46.1405 32.7901C45.9105 32.2901 45.3205 31.2901 45.2005 30.8801Z" fill="#535353"/>
<path fill-rule="evenodd" clip-rule="evenodd" d="M37.7819 2.90015C37.9119 3.22015 39.8119 6.18015 40.0519 6.58015C41.4819 8.92015 43.3119 11.6501 44.2119 14.3201C44.8119 16.0901 45.0619 17.4401 44.7619 19.4501C44.2119 23.0701 42.7819 25.5601 40.2719 26.8601C36.1919 28.9701 30.8719 26.8101 31.9719 29.4301C32.0419 29.6001 32.1819 29.8101 32.2219 29.9501C32.1019 29.9901 30.9119 30.6101 30.0219 30.9001C29.0519 31.2201 28.4319 31.2901 27.3519 31.3801C27.2919 31.7101 27.3619 32.7801 27.3819 33.1701C27.4519 34.6401 27.6619 36.8001 28.0219 38.1501C34.4319 38.1501 40.3819 35.1301 44.5819 31.3601C44.7719 31.1901 45.0119 31.0001 45.1819 30.8301L46.5619 29.4501L47.8519 27.9701C48.5119 27.2001 49.1719 26.2501 49.7519 25.4001C49.9019 25.1801 50.0619 24.9801 50.2019 24.7201C51.4819 22.3301 50.8119 19.8401 49.7419 17.6701C49.5019 17.1801 47.7419 15.1101 47.3019 14.5701L43.3019 9.66015C43.1219 9.44015 42.9719 9.25015 42.7919 9.04015C41.8119 7.85015 40.7819 6.53015 39.8019 5.36015C39.2519 4.71015 38.6119 3.86015 38.0419 3.22015C37.9419 3.09015 37.8919 3.00015 37.7819 2.90015Z" fill="#343333"/>
<path fill-rule="evenodd" clip-rule="evenodd" d="M4.00987 21.4501C4.12987 23.1301 4.76987 24.1801 5.48987 25.2301C7.73987 28.4801 9.84988 31.0101 13.0499 33.4601C17.8399 37.1301 23.2299 38.5401 29.5299 38.0401C35.0299 37.6001 40.2099 35.1401 44.2199 31.6701C45.7299 30.3701 46.8599 29.1601 48.1199 27.6401C48.4999 27.1801 48.8999 26.6401 49.2599 26.1301C49.9899 25.0901 50.7599 24.1701 50.9299 22.5201C51.0899 20.9601 50.6299 19.3901 50.0599 18.1601C48.8499 15.5301 47.8699 15.0401 46.1699 12.8001C45.9799 12.5501 45.7699 12.3401 45.5699 12.0801L38.3799 3.48013C37.5599 2.55013 37.9699 2.68013 36.8199 2.39013C33.0599 1.46013 29.4999 0.390125 25.4499 0.760125C23.9499 0.900125 22.3799 1.21013 20.9799 1.56013C20.4599 1.69013 16.9299 2.51013 16.7599 2.63013C16.6899 2.68013 16.2499 3.25013 16.1599 3.35013C15.9399 3.60013 15.7699 3.82012 15.5599 4.08012C15.1499 4.59012 14.7499 5.01013 14.3499 5.51013C13.0199 7.20013 5.84987 15.5501 5.36987 16.2901C4.47987 17.6801 3.87987 19.6601 4.00987 21.4501Z" stroke="#271109" stroke-width="0.6381" stroke-miterlimit="22.9256"/>
<path d="M45.25 31.02C50.56 42.96 53.18 54.9 53.57 66.87L53.77 72.86" stroke="#271109" stroke-width="0.6381" stroke-miterlimit="22.9256"/>
<path d="M10.7209 31.5503C4.71094 41.3303 1.87094 53.1303 1.40094 66.4303C1.39094 66.6303 1.22094 72.7003 1.21094 72.9103" stroke="#271109" stroke-width="0.6381" stroke-miterlimit="22.9256"/>
<path fill-rule="evenodd" clip-rule="evenodd" d="M23.9297 19.5301L26.1197 19.7601L26.2197 20.6301L27.4797 21.6801L28.5097 20.6301L28.7097 19.7301L31.0697 19.6101C29.8397 19.1701 28.6897 18.9701 27.5097 18.9001C26.2097 18.9101 25.0197 19.1101 23.9297 19.5301Z" fill="#765944" stroke="#271109" stroke-width="0.5627" stroke-miterlimit="22.9256" stroke-linecap="round" stroke-linejoin="round"/>
<path d="M10.2891 15.1901L31.1491 15.1501C33.8491 8.88007 38.8191 8.27006 43.7391 12.3501" stroke="#271109" stroke-width="0.563" stroke-miterlimit="22.9256" stroke-linejoin="round"/>
<path fill-rule="evenodd" clip-rule="evenodd" d="M22.8811 15.1702C21.8211 18.3602 19.9311 19.7702 17.4011 19.7502C14.0111 19.7302 11.6711 18.1502 10.3711 15.1902L22.8811 15.1702Z" fill="#7ACDF3" stroke="#271109" stroke-width="0.563" stroke-miterlimit="22.9256"/>
<path fill-rule="evenodd" clip-rule="evenodd" d="M22.8597 15.1702C22.5797 16.5302 21.2097 17.5402 19.5297 17.5402C17.8497 17.5402 16.4697 16.5302 16.1797 15.1802L22.8597 15.1702Z" fill="#271109" stroke="#271109" stroke-width="0.5627" stroke-miterlimit="22.9256"/>
<path fill-rule="evenodd" clip-rule="evenodd" d="M44.7188 15.1702C43.6588 18.3602 41.7688 19.7702 39.2388 19.7502C35.8488 19.7302 33.5087 18.2002 32.2188 15.2402L44.7188 15.1702Z" fill="#7ACDF3" stroke="#271109" stroke-width="0.563" stroke-miterlimit="22.9256"/>
<path fill-rule="evenodd" clip-rule="evenodd" d="M44.7213 15.1501C44.4413 16.5101 43.0412 17.5401 41.3712 17.5401C39.6912 17.5401 38.3113 16.5601 38.0312 15.2001L44.7213 15.1501Z" fill="#271109" stroke="#271109" stroke-width="0.5627" stroke-miterlimit="22.9256"/>
<path fill-rule="evenodd" clip-rule="evenodd" d="M6.30078 11.7101L7.00078 14.3301L16.7708 2.62012L15.3108 2.88012L8.14078 10.7801L7.20078 11.4401L6.30078 11.7101Z" fill="#343333" stroke="#271109" stroke-width="0.7515" stroke-miterlimit="22.9256" stroke-linecap="round" stroke-linejoin="round"/>
<path fill-rule="evenodd" clip-rule="evenodd" d="M15.3114 2.88013L8.41142 10.5201C4.93142 14.0101 3.33141 8.75013 4.74141 5.84013C7.99141 3.72013 11.5514 2.89013 15.3114 2.88013Z" fill="#535353" stroke="#271109" stroke-width="0.7515" stroke-miterlimit="22.9256" stroke-linecap="round" stroke-linejoin="round"/>
<path fill-rule="evenodd" clip-rule="evenodd" d="M48.1184 11.7101L47.4284 14.3301L37.6484 2.62012L39.1184 2.88012L46.2884 10.7801L47.2284 11.4401L48.1184 11.7101Z" fill="#343333" stroke="#271109" stroke-width="0.7515" stroke-miterlimit="22.9256" stroke-linecap="round" stroke-linejoin="round"/>
<path fill-rule="evenodd" clip-rule="evenodd" d="M39.1211 2.88013L46.0211 10.5201C49.5011 14.0101 51.1011 8.75013 49.6911 5.84013C46.4411 3.72013 42.8811 2.89013 39.1211 2.88013Z" fill="#535353" stroke="#271109" stroke-width="0.7515" stroke-miterlimit="22.9256" stroke-linecap="round" stroke-linejoin="round"/>
<path d="M22.4688 29.7202C25.8788 31.5902 29.2988 31.8102 32.7088 29.9702" stroke="#271109" stroke-width="0.5638" stroke-miterlimit="22.9256" stroke-linecap="round" stroke-linejoin="round"/>
<path d="M25.8594 26.53L27.5994 23.54L29.2894 26.3" stroke="#271109" stroke-width="0.5635" stroke-miterlimit="22.9256" stroke-linecap="round" stroke-linejoin="round"/>
</svg>
