<svg width="86" height="80" viewBox="0 0 86 80" fill="none" xmlns="http://www.w3.org/2000/svg">
<path fill-rule="evenodd" clip-rule="evenodd" d="M57.6184 33.95C64.1084 44.17 66.1284 59.34 67.5184 72.52H15.1484C15.8784 60.14 17.7584 45.76 26.1284 34.66L57.6184 33.95Z" fill="#F2F0E5"/>
<path fill-rule="evenodd" clip-rule="evenodd" d="M57.6184 33.95C64.1084 44.17 66.1284 59.34 67.5184 72.52H15.1484C15.8784 60.14 17.7584 45.76 26.1284 34.66L57.6184 33.95Z" stroke="#271109" stroke-width="0.5638" stroke-miterlimit="22.9256" stroke-linejoin="round"/>
<path fill-rule="evenodd" clip-rule="evenodd" d="M42.3605 6.08984C45.7505 6.12984 48.3505 6.92984 52.8105 8.01984L64.1804 21.6298C65.6104 23.8798 67.3304 27.6898 65.0504 30.7398C60.3404 37.8598 52.5904 43.1598 44.0104 43.5898C42.8504 43.5898 41.6905 43.5898 40.5305 43.5898C31.9505 43.1598 25.3104 37.8298 20.4504 30.5098C18.1704 27.4698 19.1005 23.8898 20.5305 21.6398L31.9004 8.02984C36.3804 6.92984 38.9705 6.12984 42.3605 6.08984Z" fill="#F2F0E5"/>
<path fill-rule="evenodd" clip-rule="evenodd" d="M52.8193 8.02002C56.2693 13.86 60.6393 19.3 60.0693 24.17C58.4093 38.46 44.4893 30.29 47.4393 35.34C42.9393 37.76 40.2893 36.76 37.1993 35.09C26.8693 35.94 24.9893 32.42 19.3893 24.56C17.3593 28.2 23.5293 38.02 26.8593 40.45C32.2993 43.85 41.0193 45.88 48.0593 44.38C53.0893 44.14 70.2593 37.27 68.3893 29.14C70.0693 27.25 65.8193 25.26 64.8693 22.84L52.8193 8.02002Z" fill="#CBC4AF"/>
<path fill-rule="evenodd" clip-rule="evenodd" d="M42.3605 6.08984C45.7505 6.12984 48.3505 6.92984 52.8105 8.01984L64.1804 21.6298C65.6104 23.8798 67.3304 27.6898 65.0504 30.7398C60.3404 37.8598 52.5904 43.1598 44.0104 43.5898C42.8504 43.5898 41.6905 43.5898 40.5305 43.5898C31.9505 43.1598 25.3104 37.8298 20.4504 30.5098C18.1704 27.4698 19.1005 23.8898 20.5305 21.6398L31.9004 8.02984C36.3804 6.92984 38.9705 6.12984 42.3605 6.08984Z" stroke="#271109" stroke-width="0.5638" stroke-miterlimit="22.9256" stroke-linejoin="round"/>
<path fill-rule="evenodd" clip-rule="evenodd" d="M79.3697 78.98C79.6097 78.98 76.7997 72.26 76.6197 72.1C74.8897 70.46 72.6497 69.14 69.9097 68.22C63.4397 66.05 57.7297 65.49 53.9997 60.69C51.5197 57.2 49.4697 52.81 46.4797 50.12C35.7597 41.32 20.9197 34.86 22.6797 23.03C24.6597 13.7 32.7797 6.13 43.1197 6.44L43.4597 0.810001C29.2897 -0.0399985 19.1897 7.92 14.2297 18.68C10.6797 28.78 12.6897 39.18 8.77967 45.82C2.09967 57.24 0.829669 66.52 1.08967 78.9L79.3697 78.98Z" fill="#C02126" stroke="black" stroke-width="0.7509" stroke-miterlimit="22.9256"/>
<path fill-rule="evenodd" clip-rule="evenodd" d="M43.1094 6.42004C52.0794 6.87004 58.6894 12.36 60.2694 19.49C61.6194 27.59 59.8194 32.61 54.4794 38.48C51.0394 42.3 48.1094 45.61 43.8794 48.07C45.2994 49.1 45.1394 49.01 46.4694 50.1C49.4594 52.79 51.5094 57.19 53.9894 60.67C57.7194 65.47 63.1994 66.34 69.6694 68.51C72.5594 69.48 74.9494 71.61 75.8594 72.51C76.7694 73.41 78.4294 75.49 79.0394 78.97L84.5794 78.88L79.7994 61.49C78.5094 56.78 74.5594 49.96 73.6194 44.24C69.0494 16.33 62.7394 1.09004 43.4394 0.790039L43.1094 6.42004Z" fill="#C02126" stroke="black" stroke-width="0.7512" stroke-miterlimit="22.9256"/>
<path d="M29.4297 1.87988L30.3897 5.59988" stroke="#271109" stroke-width="0.8036" stroke-miterlimit="22.9256" stroke-linecap="round" stroke-linejoin="round"/>
<path d="M61.1387 5.95996L59.2188 9.40996" stroke="#271109" stroke-width="0.8036" stroke-miterlimit="22.9256" stroke-linecap="round" stroke-linejoin="round"/>
<path d="M14.3914 22.6999L11.1914 22.1299" stroke="#271109" stroke-width="0.8036" stroke-miterlimit="22.9256" stroke-linecap="round" stroke-linejoin="round"/>
<path d="M72.8281 43.1099L75.3181 45.5699" stroke="#271109" stroke-width="0.8036" stroke-miterlimit="22.9256" stroke-linecap="round" stroke-linejoin="round"/>
<path d="M62.3008 29.1802L63.6108 31.0402" stroke="#271109" stroke-width="0.8036" stroke-miterlimit="22.9256" stroke-linecap="round" stroke-linejoin="round"/>
<path d="M66.4297 54.5898L67.8197 56.5498" stroke="#271109" stroke-width="0.8036" stroke-miterlimit="22.9256" stroke-linecap="round" stroke-linejoin="round"/>
<path d="M58.5609 46.6802L56.7109 48.5402" stroke="#271109" stroke-width="0.8036" stroke-miterlimit="22.9256" stroke-linecap="round" stroke-linejoin="round"/>
<path d="M6.28827 54.79L2.98828 55.22" stroke="#271109" stroke-width="0.8033" stroke-miterlimit="22.9256" stroke-linecap="round" stroke-linejoin="round"/>
<path d="M17.3906 10.5801L20.2706 12.6401" stroke="#271109" stroke-width="0.8036" stroke-miterlimit="22.9256" stroke-linecap="round" stroke-linejoin="round"/>
<path d="M21.2784 11.84L18.3984 9.05005" stroke="#271109" stroke-width="0.8036" stroke-miterlimit="22.9256" stroke-linecap="round" stroke-linejoin="round"/>
<path d="M17.9102 48.8701L19.1002 51.9901" stroke="black" stroke-width="0.7512" stroke-miterlimit="22.9256" stroke-linecap="round" stroke-linejoin="round"/>
<path d="M34.4819 56.29L31.9219 58.21" stroke="black" stroke-width="0.7512" stroke-miterlimit="22.9256" stroke-linecap="round" stroke-linejoin="round"/>
<path d="M20.8398 61.8701L23.3098 63.9801" stroke="black" stroke-width="0.7512" stroke-miterlimit="22.9256" stroke-linecap="round" stroke-linejoin="round"/>
<path d="M47.5781 62.4199L49.5881 64.5299" stroke="black" stroke-width="0.7512" stroke-miterlimit="22.9256" stroke-linecap="round" stroke-linejoin="round"/>
<path d="M46.6602 63.25L48.8102 65.31" stroke="black" stroke-width="0.7512" stroke-miterlimit="22.9256" stroke-linecap="round" stroke-linejoin="round"/>
<path d="M78.3398 63.02L81.6299 61.28" stroke="black" stroke-width="0.7512" stroke-miterlimit="22.9256" stroke-linecap="round" stroke-linejoin="round"/>
<path d="M48.2188 4.61018L49.0387 1.68018" stroke="black" stroke-width="0.7512" stroke-miterlimit="22.9256" stroke-linecap="round" stroke-linejoin="round"/>
<path d="M66.2514 21.22L63.6914 23.15" stroke="black" stroke-width="0.7512" stroke-miterlimit="22.9256" stroke-linecap="round" stroke-linejoin="round"/>
<path d="M25.5599 12.1602C18.1499 18.5702 18.4599 30.3402 25.6499 37.2002C29.5899 40.8002 33.7699 44.0402 38.1899 46.9002C42.6499 49.3802 46.4499 53.2002 49.4499 58.6202C51.0299 62.0302 53.5199 64.9802 58.5099 66.6802C64.0099 68.7002 77.2999 72.9202 76.8499 78.9702" stroke="black" stroke-width="0.7512" stroke-miterlimit="22.9256" stroke-linecap="round" stroke-linejoin="round"/>
<path d="M28.8008 8.89999C36.7508 2.74999 48.8608 1.78999 58.0008 10.75" stroke="black" stroke-width="0.7512" stroke-miterlimit="22.9256" stroke-linecap="round" stroke-linejoin="round"/>
<path d="M60.9817 14.8599C64.6617 20.0699 64.4417 31.3799 57.6817 39.2099C54.4617 42.8199 49.9717 47.5399 46.2617 49.9299" stroke="black" stroke-width="0.7512" stroke-miterlimit="22.9256" stroke-linecap="round" stroke-linejoin="round"/>
<path fill-rule="evenodd" clip-rule="evenodd" d="M7.8899 64.84C7.7599 63.35 8.8099 63.09 9.6099 63.63C10.5399 64.26 10.4599 65.17 10.8399 64.46C11.1199 63.93 11.4699 63.36 12.1099 63.16C12.6699 62.98 13.0899 63.25 13.3499 63.53C14.5199 64.81 12.7799 67.86 11.7999 68.89C11.6599 69.04 11.3299 69.45 11.1499 69.53C10.9099 69.64 10.7699 69.79 10.2899 69.31L9.48991 68.41C9.31991 68.23 8.92989 67.64 8.78989 67.4C8.38989 66.73 7.9699 65.75 7.8899 64.84Z" fill="#070204"/>
<path fill-rule="evenodd" clip-rule="evenodd" d="M24.6907 50.9901C24.5607 49.5001 25.6107 49.2401 26.4107 49.7801C27.3407 50.4101 27.2607 51.3201 27.6407 50.6101C27.9207 50.0801 28.2707 49.5101 28.9107 49.3101C29.4707 49.1301 29.8907 49.4001 30.1507 49.6801C31.3207 50.9601 29.5807 54.0101 28.6007 55.0401C28.4607 55.1901 28.1307 55.6001 27.9507 55.6801C27.7107 55.7901 27.5707 55.9401 27.0907 55.4601L26.2907 54.5601C26.1207 54.3801 25.7307 53.7901 25.5907 53.5501C25.2007 52.8801 24.7807 51.9101 24.6907 50.9901Z" fill="#070204"/>
<path fill-rule="evenodd" clip-rule="evenodd" d="M57.2883 54.1898C57.1583 52.6998 58.2083 52.4398 59.0083 52.9798C59.9383 53.6098 59.8583 54.5198 60.2383 53.8098C60.5183 53.2798 60.8683 52.7098 61.5083 52.5098C62.0683 52.3298 62.4883 52.5998 62.7483 52.8798C63.9183 54.1598 62.1783 57.2098 61.1983 58.2398C61.0583 58.3898 60.7283 58.7998 60.5483 58.8798C60.3083 58.9898 60.1683 59.1398 59.6883 58.6598L58.8883 57.7498C58.7183 57.5698 58.3283 56.9798 58.1883 56.7398C57.7883 56.0798 57.3683 55.1098 57.2883 54.1898Z" fill="#070204"/>
<path fill-rule="evenodd" clip-rule="evenodd" d="M13.8899 32.7699C13.7599 31.2799 14.8099 31.0199 15.6099 31.5599C16.5399 32.1899 16.4599 33.0999 16.8399 32.3899C17.1199 31.8599 17.4699 31.2899 18.1099 31.0899C18.6699 30.9099 19.0899 31.1799 19.3499 31.4599C20.5199 32.7399 18.7799 35.7899 17.7999 36.8199C17.6599 36.9699 17.3299 37.3799 17.1499 37.4599C16.9099 37.5699 16.7699 37.7199 16.2899 37.2399L15.4899 36.3299C15.3199 36.1499 14.9299 35.5599 14.7899 35.3199C14.3899 34.6599 13.9699 33.6899 13.8899 32.7699Z" fill="#070204"/>
<path fill-rule="evenodd" clip-rule="evenodd" d="M34.4016 65.82C34.2716 64.33 35.3216 64.07 36.1216 64.61C37.0516 65.24 36.9716 66.15 37.3516 65.44C37.6316 64.91 37.9816 64.34 38.6216 64.14C39.1816 63.96 39.6016 64.23 39.8616 64.51C41.0316 65.79 39.2916 68.84 38.3116 69.87C38.1716 70.02 37.8416 70.43 37.6616 70.51C37.4216 70.62 37.2816 70.77 36.8016 70.29L36.0016 69.38C35.8316 69.2 35.4416 68.61 35.3016 68.37C34.9016 67.71 34.4816 66.74 34.4016 65.82Z" fill="#070204"/>
<path fill-rule="evenodd" clip-rule="evenodd" d="M69.179 62.35C69.049 60.86 70.099 60.6 70.899 61.14C71.829 61.77 71.749 62.68 72.129 61.97C72.409 61.44 72.759 60.87 73.399 60.67C73.959 60.49 74.379 60.76 74.639 61.04C75.809 62.32 74.069 65.37 73.089 66.4C72.949 66.55 72.619 66.96 72.439 67.04C72.199 67.15 72.059 67.3 71.579 66.82L70.779 65.91C70.609 65.73 70.219 65.14 70.079 64.9C69.679 64.24 69.259 63.27 69.179 62.35Z" fill="#070204"/>
<path fill-rule="evenodd" clip-rule="evenodd" d="M61.0501 12.4799C60.9201 10.9899 61.9701 10.7299 62.7701 11.2699C63.7001 11.8999 63.6201 12.8099 64.0001 12.0999C64.2801 11.5699 64.63 10.9999 65.27 10.7999C65.83 10.6199 66.2501 10.8899 66.5101 11.1699C67.6801 12.4499 65.94 15.4999 64.96 16.5299C64.82 16.6799 64.4901 17.0899 64.3101 17.1699C64.0701 17.2799 63.93 17.4299 63.45 16.9499L62.65 16.0499C62.48 15.8699 62.09 15.2799 61.95 15.0399C61.55 14.3599 61.1301 13.3899 61.0501 12.4799Z" fill="#070204"/>
<path fill-rule="evenodd" clip-rule="evenodd" d="M22.1907 4.37C22.0607 2.88 23.1107 2.62 23.9107 3.16C24.8407 3.79 24.7607 4.7 25.1407 3.99C25.4207 3.46 25.7707 2.89 26.4107 2.69C26.9707 2.51 27.3907 2.78 27.6507 3.06C28.8207 4.34 27.0807 7.39 26.1007 8.42C25.9607 8.57 25.6307 8.98 25.4507 9.06C25.2107 9.17 25.0707 9.32 24.5907 8.84L23.7907 7.94C23.6207 7.76 23.2307 7.17 23.0907 6.93C22.6907 6.26 22.2707 5.29 22.1907 4.37Z" fill="#070204"/>
<path fill-rule="evenodd" clip-rule="evenodd" d="M29.1316 15.79C36.6216 12.66 38.5415 18.68 37.8415 23.09C31.8215 25.7 27.1916 22.39 29.1316 15.79Z" fill="#90C17A"/>
<path fill-rule="evenodd" clip-rule="evenodd" d="M29.1316 15.79C36.6216 12.66 38.5415 18.68 37.8415 23.09C31.8215 25.7 27.1916 22.39 29.1316 15.79Z" stroke="#271109" stroke-width="0.5649" stroke-miterlimit="22.9256" stroke-linecap="round" stroke-linejoin="round"/>
<path fill-rule="evenodd" clip-rule="evenodd" d="M34.1511 20.1601C34.5811 20.1601 34.9311 19.8001 34.9311 19.3601C34.9311 18.9201 34.5811 18.5601 34.1511 18.5601C33.7211 18.5601 33.3711 18.9201 33.3711 19.3601C33.3711 19.8001 33.7211 20.1601 34.1511 20.1601Z" fill="#271109" stroke="#271109" stroke-width="0.1383" stroke-miterlimit="22.9256" stroke-linecap="round" stroke-linejoin="round"/>
<path fill-rule="evenodd" clip-rule="evenodd" d="M56.6916 15.79C49.2016 12.66 47.2816 18.68 47.9816 23.09C54.0016 25.7 58.6316 22.39 56.6916 15.79Z" fill="#90C17A"/>
<path fill-rule="evenodd" clip-rule="evenodd" d="M56.6916 15.79C49.2016 12.66 47.2816 18.68 47.9816 23.09C54.0016 25.7 58.6316 22.39 56.6916 15.79Z" stroke="#271109" stroke-width="0.5649" stroke-miterlimit="22.9256" stroke-linecap="round" stroke-linejoin="round"/>
<path fill-rule="evenodd" clip-rule="evenodd" d="M51.6706 20.1601C52.1006 20.1601 52.4506 19.8001 52.4506 19.3601C52.4506 18.9201 52.1006 18.5601 51.6706 18.5601C51.2406 18.5601 50.8906 18.9201 50.8906 19.3601C50.8906 19.8001 51.2406 20.1601 51.6706 20.1601Z" fill="#271109" stroke="#271109" stroke-width="0.1383" stroke-miterlimit="22.9256" stroke-linecap="round" stroke-linejoin="round"/>
<path d="M37.5508 35.02C40.9608 36.89 44.3808 37.11 47.7908 35.27" stroke="#271109" stroke-width="0.5638" stroke-miterlimit="22.9256" stroke-linecap="round" stroke-linejoin="round"/>
<path fill-rule="evenodd" clip-rule="evenodd" d="M39.1289 21.99L41.3189 22.22L41.4189 23.09L42.6789 24.15L43.7089 23.1L43.9089 22.2L46.2689 22.08C45.0389 21.64 43.8789 21.43 42.7089 21.37C41.4189 21.36 40.2189 21.57 39.1289 21.99Z" fill="#765944" stroke="#271109" stroke-width="0.5579" stroke-miterlimit="22.9256" stroke-linecap="round" stroke-linejoin="round"/>
<path fill-rule="evenodd" clip-rule="evenodd" d="M42.6902 23.74L42.6501 26.91L37.6602 30.84C38.9902 31.95 46.2002 32 47.5802 30.93L42.6501 26.91L42.6902 23.74Z" fill="#765944"/>
<path fill-rule="evenodd" clip-rule="evenodd" d="M48.1397 33.0301L37.4297 33.4301C40.6397 29.7501 44.1797 29.2901 48.1397 33.0301Z" fill="#CC7584" stroke="#271109" stroke-width="0.5638" stroke-miterlimit="22.9256"/>
<path fill-rule="evenodd" clip-rule="evenodd" d="M42.6902 23.74L42.6501 26.91L37.6602 30.84C38.9902 31.95 46.2002 32 47.5802 30.93L42.6501 26.91L42.6902 23.74Z" stroke="#271109" stroke-width="0.6131" stroke-miterlimit="22.9256" stroke-linecap="round" stroke-linejoin="round"/>
<path fill-rule="evenodd" clip-rule="evenodd" d="M40.7699 31.6301L39.3398 31.4901C39.8198 29.1001 40.6599 29.0201 40.7699 31.6301Z" fill="white" stroke="#271109" stroke-width="0.5647" stroke-miterlimit="22.9256" stroke-linecap="round" stroke-linejoin="round"/>
<path fill-rule="evenodd" clip-rule="evenodd" d="M44.4414 31.67L45.9714 31.56C45.5014 29.11 44.5614 28.98 44.4414 31.67Z" fill="white" stroke="#271109" stroke-width="0.5647" stroke-miterlimit="22.9256" stroke-linecap="round" stroke-linejoin="round"/>
<path fill-rule="evenodd" clip-rule="evenodd" d="M37.5587 42.22C37.5687 44.53 36.6087 46.6 34.8387 48.46C32.8887 50.38 31.5887 52.67 31.0387 55.38C30.5887 59.27 30.3188 65.66 30.2188 72.46H55.3887C55.2987 65.65 55.0188 59.27 54.5688 55.38C54.0188 52.67 52.7188 50.38 50.7688 48.46C48.9988 46.6 48.0388 44.54 48.0488 42.22L42.5287 42.23L37.5587 42.22Z" fill="#F2F0E5" stroke="#271109" stroke-width="0.5638" stroke-miterlimit="22.9256"/>
<path fill-rule="evenodd" clip-rule="evenodd" d="M42.8111 57.3001C48.4211 57.3001 53.0011 56.7001 53.0011 55.9501C53.0011 55.2101 48.4211 54.6001 42.8111 54.6001C37.2011 54.6001 32.6211 55.2001 32.6211 55.9501C32.6211 56.6901 37.1911 57.3001 42.8111 57.3001Z" fill="#F2F0E5" stroke="#271109" stroke-width="0.5641" stroke-miterlimit="22.9256"/>
<path d="M32.5117 55.9399L32.5217 65.3399" stroke="#271109" stroke-width="0.5641" stroke-miterlimit="22.9256" stroke-linecap="round" stroke-linejoin="round"/>
<path d="M53 55.9399V72.4499" stroke="#271109" stroke-width="0.5641" stroke-miterlimit="22.9256"/>
<path fill-rule="evenodd" clip-rule="evenodd" d="M36.3106 67.7799C36.8006 67.4799 36.7606 65.8299 36.7806 65.1399C36.8006 64.6399 36.8206 64.1399 36.8406 63.6399L36.9006 62.5199C37.0106 61.2699 37.9906 64.1199 38.1006 64.4999C38.1306 64.5999 38.1706 64.8199 38.2506 64.8799C38.3106 64.9299 38.9306 65.0499 39.0906 64.7999C39.1406 64.7299 39.6006 63.2499 39.9806 62.8499C40.0306 63.7699 39.9606 64.5699 39.9006 65.4699C39.8606 66.0699 39.6606 67.5399 40.2206 67.7599C40.8106 67.8099 40.9606 63.4599 40.9506 63.2599C40.9206 62.6199 40.6406 61.4599 39.8406 61.8699C39.3906 62.0999 38.9006 62.8299 38.7006 63.3799C38.4906 63.1899 38.1606 61.9699 37.5606 61.4499C37.2706 61.1999 36.7506 61.0599 36.4606 61.3699C35.7106 62.1699 35.3506 67.4999 36.3106 67.7799Z" fill="#271109"/>
<path fill-rule="evenodd" clip-rule="evenodd" d="M48.3104 63.6999C48.1504 63.4299 48.2604 62.7499 48.2104 62.3899C48.1504 61.9499 47.4904 61.8999 47.3804 62.3499C47.2704 62.7999 47.4404 64.4599 47.4704 65.0299L47.5404 67.0799C47.5604 67.3299 47.5604 67.4899 47.8204 67.5199C48.7704 67.6299 48.2704 65.9199 48.4004 65.3299C48.5804 65.3299 49.4204 65.9799 49.5804 66.1199C49.9304 66.4299 50.4304 66.9599 50.7904 66.5199C51.1204 66.1199 50.2704 65.5299 50.0704 65.3899C49.7804 65.1799 49.1804 64.7299 48.8404 64.6099C48.8604 64.3499 49.4704 63.5999 49.6304 63.4099C49.9304 63.0699 50.4504 62.5699 50.2204 62.1399C50.1004 61.9199 49.8204 61.8499 49.5704 61.9899C49.0204 62.3099 48.5804 63.5699 48.3104 63.6999Z" fill="#271109"/>
<path fill-rule="evenodd" clip-rule="evenodd" d="M43.7317 63.88L43.7817 67.09C43.8217 68.54 43.6617 68.72 45.8617 68.56C46.2317 68.53 46.6317 68.5 46.6617 68.14C46.7117 67.42 45.2217 67.69 44.7117 67.71C44.4917 65.94 44.7717 64.06 44.6617 62.92C44.6317 62.65 44.4617 62.38 44.2317 62.35C43.6817 62.3 43.7317 63.42 43.7317 63.88Z" fill="#271109"/>
<path fill-rule="evenodd" clip-rule="evenodd" d="M42.0512 63.2601C41.8312 63.3501 41.8012 63.4901 41.7512 63.7701C41.6712 64.2301 41.4412 67.7801 41.4812 68.0201C41.5312 68.2801 41.5012 68.0001 41.6212 68.2901C41.7112 68.5101 41.9012 68.6701 42.0912 68.4201C42.4712 67.9301 42.3712 66.2701 42.4312 65.5101C42.4712 65.0301 42.5312 64.5201 42.6612 64.0801C42.7312 63.8301 42.8012 63.6601 42.6412 63.4501C42.5112 63.2901 42.3012 63.1601 42.0512 63.2601Z" fill="#271109"/>
<path d="M32.5117 69.6899L32.5217 72.6899" stroke="#271109" stroke-width="1.3377" stroke-miterlimit="22.9256" stroke-linecap="round" stroke-linejoin="round"/>
<path fill-rule="evenodd" clip-rule="evenodd" d="M48.9914 30.8101L50.6014 31.2601L43.8014 55.8501C43.2214 55.8001 42.6914 55.6401 42.1914 55.4001L48.9914 30.8101Z" fill="#F2F0E5" stroke="#271109" stroke-width="0.5533" stroke-miterlimit="22.9256" stroke-linecap="round" stroke-linejoin="round"/>
<path fill-rule="evenodd" clip-rule="evenodd" d="M42.9192 37.6099L48.0592 37.6299C51.6892 37.9499 51.0092 42.1499 48.1992 42.2199H48.0592H42.8092H37.5592H37.4192C34.5992 42.1499 33.9192 37.9499 37.5592 37.6299L42.6992 37.6099H42.8092H42.9192Z" fill="#F2F0E5"/>
<path fill-rule="evenodd" clip-rule="evenodd" d="M42.9192 37.6099L48.0592 37.6299C51.6892 37.9499 51.0092 42.1499 48.1992 42.2199H48.0592H42.8092H37.5592H37.4192C34.5992 42.1499 33.9192 37.9499 37.5592 37.6299L42.6992 37.6099H42.8092H42.9192Z" stroke="#271109" stroke-width="0.5641" stroke-miterlimit="22.9256" stroke-linecap="round" stroke-linejoin="round"/>
<path d="M47.1098 37.6299L45.8398 42.2199" stroke="#271109" stroke-width="0.5669" stroke-miterlimit="22.9256"/>
<path d="M48.8091 37.77L47.5391 42.36" stroke="#271109" stroke-width="0.5669" stroke-miterlimit="22.9256"/>
</svg>
