<svg width="63" height="74" viewBox="0 0 63 74" fill="none" xmlns="http://www.w3.org/2000/svg">
<path fill-rule="evenodd" clip-rule="evenodd" d="M48.1288 29.46C54.6088 39.67 56.6287 54.81 58.0187 67.98H5.71875C6.44875 55.62 8.32874 41.26 16.6787 30.17L48.1288 29.46Z" fill="#FCB457"/>
<path fill-rule="evenodd" clip-rule="evenodd" d="M28.6384 2.5499C28.3984 3.9799 27.9484 5.5299 27.6284 6.9699C27.3584 8.1899 26.9484 10.2099 26.3684 11.0799C25.2284 12.7799 24.7484 9.2699 24.6284 8.2899C24.4284 6.6899 24.1884 5.0899 24.0284 3.4899C23.2784 3.6599 22.5284 3.8699 21.7784 4.0499C20.8284 4.2799 21.1884 4.2099 20.1984 5.3399C19.7684 5.8299 19.3784 6.3399 18.9184 6.8699C18.6884 7.1299 18.4984 7.3699 18.2584 7.6499L12.4184 14.6799C13.1884 14.7199 16.0284 14.4799 16.4184 15.0599C16.0984 15.4899 14.0684 15.7199 13.3884 15.9099C12.2984 16.1999 11.4984 16.5499 10.5484 16.9699C10.2884 17.1799 9.8584 17.6599 9.7384 18.0199C9.7284 18.2899 10.3584 19.1399 10.4784 19.2299C11.4284 18.8899 12.3184 18.4699 13.3784 18.1599C14.1784 17.9299 15.9284 17.4199 16.7484 17.5499C16.6684 17.9599 15.9784 18.2599 15.5684 18.4699C14.5084 19.0199 12.3384 20.1099 11.7284 20.9399L12.6584 22.0699C13.0584 22.4699 13.2884 22.7599 13.6684 23.1299C14.9584 24.3799 16.7284 25.7899 18.4284 26.6199C19.0084 26.8999 20.8984 27.7299 20.9684 28.2399C19.8684 28.7099 15.1584 26.9899 13.6384 26.3499C13.3384 26.2199 12.9784 26.0199 12.6984 25.9399C13.3484 26.8999 14.7484 28.1599 15.7284 28.8799C18.4784 30.8799 22.1484 31.0999 25.6184 30.8599C26.5684 30.7999 26.3684 30.9099 27.0984 31.2599C28.0284 31.6999 28.8884 32.0999 30.0184 32.3399C31.2484 32.5999 32.4084 32.5299 33.5884 32.2199C34.3284 32.0299 35.9384 31.4199 36.3984 31.0499C36.0684 30.3199 35.5784 29.5499 36.7384 29.2499C37.4784 29.0599 38.6684 29.0999 39.4884 29.0699C41.2884 28.9999 42.8484 28.7699 44.2884 28.0499C45.6384 27.3899 46.5784 26.4599 47.3184 25.2699C47.8584 24.3899 48.7784 22.1199 48.7984 20.8799C48.3984 20.6699 47.6384 20.0999 46.7384 19.6299C46.2284 19.3699 44.8184 18.7999 44.7484 18.3299C45.6684 18.0899 48.0584 18.9599 48.9884 19.1899C48.9984 18.5299 48.6784 16.0499 48.3284 15.7199C48.1684 15.5699 46.3584 15.2699 45.8484 15.1399C45.5484 15.0599 45.2684 14.9999 45.1584 14.7599C45.6484 14.3499 47.0884 14.4399 47.8184 14.4099C47.5384 12.8799 43.2784 6.6899 42.9684 5.9299C42.8684 5.7599 41.7384 4.3599 41.6084 4.2699C41.4384 4.1599 39.4784 3.6799 39.1784 3.6499C39.1684 4.1099 38.8184 5.3999 38.6884 5.9099C38.3884 7.1399 37.5584 12.0199 36.4484 11.6999C35.6684 11.4699 35.3884 8.4599 35.2584 7.4299C35.0584 5.8399 34.8184 4.2199 34.6584 2.6399L33.0784 2.4499L32.8484 2.4399C32.7684 3.9299 32.6584 7.9299 31.8684 8.6999C31.2984 8.7399 31.1284 8.0299 30.9784 7.5299C30.6584 6.4399 30.2584 3.5599 30.1084 2.3999C29.7084 2.4099 28.9284 2.4599 28.6384 2.5499Z" fill="#FCB455"/>
<path fill-rule="evenodd" clip-rule="evenodd" d="M9.74182 18.0199C9.36182 18.3899 8.88182 19.8599 8.74182 20.5099C8.52182 21.5299 8.48183 22.6799 8.72183 23.6999C9.09183 25.2299 10.3618 26.9199 11.3118 28.1699C15.5818 33.7399 21.1418 38.2699 28.8018 38.9299C33.1118 39.2999 37.4618 38.6199 41.0018 37.1099C43.5618 36.0099 46.5218 34.1699 48.5018 32.2999C48.6718 32.1399 48.8118 32.0599 48.9718 31.8899C49.9718 30.8199 51.0318 29.9199 51.9518 28.6799C53.3918 26.7299 54.9218 25.2699 54.6718 22.5599C54.5018 20.7699 53.5218 18.6399 52.6618 17.5099C52.4218 17.1999 52.1118 16.8299 51.8718 16.5499L42.9618 5.92993C43.2718 6.69993 47.5318 12.8899 47.8118 14.4099C47.0818 14.4399 45.6418 14.3499 45.1518 14.7599C45.2618 14.9999 45.5418 15.0599 45.8418 15.1399C46.3518 15.2799 48.1618 15.5699 48.3218 15.7199C48.6618 16.0499 48.9918 18.5299 48.9818 19.1899C48.0518 18.9599 45.6618 18.0899 44.7418 18.3299C44.8118 18.7999 46.2218 19.3699 46.7318 19.6299C47.6318 20.0999 48.3918 20.6699 48.7918 20.8799C48.7718 22.1199 47.8518 24.3999 47.3118 25.2699C46.5718 26.4699 45.6318 27.3899 44.2818 28.0499C42.8418 28.7599 41.2818 28.9899 39.4818 29.0699C38.6618 29.0999 37.4718 29.0699 36.7318 29.2499C35.5718 29.5399 36.0618 30.3099 36.3918 31.0499C35.9218 31.4199 34.3218 32.0299 33.5818 32.2199C32.4018 32.5199 31.2418 32.5899 30.0118 32.3399C28.8818 32.1099 28.0218 31.6999 27.0918 31.2599C26.3618 30.9099 26.5518 30.7999 25.6118 30.8599C22.1418 31.0999 18.4718 30.8799 15.7218 28.8799C14.7318 28.1599 13.3418 26.8999 12.6918 25.9399C12.9718 26.0099 13.3418 26.2199 13.6318 26.3499C15.1618 26.9899 19.8618 28.7099 20.9618 28.2399C20.9018 27.7299 19.0018 26.8999 18.4218 26.6199C16.7218 25.7899 14.9518 24.3799 13.6618 23.1299C13.2918 22.7699 13.0618 22.4799 12.6518 22.0699L11.7218 20.9399C12.3318 20.1099 14.5018 19.0199 15.5618 18.4699C15.9718 18.2599 16.6618 17.9699 16.7418 17.5499C15.9218 17.4099 14.1718 17.9199 13.3718 18.1599C12.3118 18.4699 11.4218 18.8999 10.4718 19.2299C10.3618 19.1399 9.73182 18.2899 9.74182 18.0199Z" fill="#B67429"/>
<path fill-rule="evenodd" clip-rule="evenodd" d="M9.73989 18.02C9.85989 17.66 10.2899 17.18 10.5499 16.97C10.6599 16.7 11.2399 16.1 11.4699 15.81C11.7699 15.43 12.0799 15.04 12.4199 14.69L18.2599 7.65995C18.4899 7.37995 18.6899 7.13995 18.9199 6.87995C19.3799 6.34995 19.7699 5.83995 20.1999 5.34995C21.1899 4.21995 20.8299 4.28995 21.7799 4.05995C22.5299 3.87995 23.2799 3.66995 24.0299 3.49995C25.1899 3.18995 27.4399 2.60995 28.6399 2.55995C28.9299 2.45995 29.7099 2.41995 30.0899 2.38995C30.7399 2.33995 32.5599 2.24995 33.0699 2.43995L34.6499 2.62995C35.4999 2.73995 38.4999 3.33995 39.1599 3.63995C39.4699 3.67995 41.4299 4.14995 41.5899 4.25995C41.7299 4.34995 42.8599 5.74995 42.9499 5.91995L51.8599 16.54C52.1099 16.82 52.4199 17.19 52.6499 17.5C53.5099 18.62 54.4899 20.76 54.6599 22.55C54.9099 25.26 53.3799 26.73 51.9399 28.67C51.0199 29.91 49.9599 30.81 48.9599 31.88C48.7999 32.05 48.6499 32.13 48.4899 32.29C46.5099 34.16 43.5499 36 40.9899 37.1C37.4499 38.62 33.1099 39.3 28.7899 38.92C21.1299 38.26 15.5699 33.7299 11.2999 28.16C10.3399 26.91 9.06989 25.22 8.70989 23.69C8.46989 22.67 8.49991 21.53 8.72991 20.5C8.88991 19.86 9.35989 18.39 9.73989 18.02ZM30.5499 1.79995C27.3699 1.97995 24.5499 2.79995 21.6199 3.51995C20.7399 3.73995 20.8699 3.61995 20.0899 4.60995C18.2899 6.87995 15.8999 9.54995 14.0299 11.87C13.6199 12.38 13.2299 12.79 12.8299 13.29C12.4199 13.8 12.0499 14.24 11.6099 14.76C11.1999 15.23 10.8299 15.73 10.4199 16.19C10.2199 16.42 10.0199 16.69 9.8199 16.91C8.8099 18.06 8.0899 20.07 7.9999 21.75C7.9099 23.45 8.34988 24.78 9.07988 25.95L11.2899 29.05C14.5299 33.03 18.1699 36.4599 23.3099 38.27C26.6599 39.45 28.9399 39.54 32.7199 39.52C38.7399 39.49 44.6299 36.24 47.9199 33.51L50.6899 30.97L51.9199 29.58C52.3199 29.08 52.7099 28.63 53.1099 28.08C53.7899 27.16 54.6799 26.05 55.0499 24.71C55.4699 23.17 55.1599 21.46 54.6599 20.11C53.6199 17.32 52.1199 16.04 50.3299 13.82C49.5199 12.82 48.7099 11.93 47.9099 10.93L44.2999 6.59995C43.8799 6.08995 43.4799 5.64995 43.0799 5.13995C41.5899 3.27995 42.1799 3.79995 39.7299 3.17995C36.8899 2.45995 33.6899 1.60995 30.5499 1.79995Z" fill="#271109"/>
<path fill-rule="evenodd" clip-rule="evenodd" d="M39.1584 3.62987C38.4884 3.32987 35.4984 2.72987 34.6484 2.61987C34.8084 4.20987 35.0484 5.82987 35.2484 7.40987C35.3784 8.43987 35.6584 11.4499 36.4384 11.6799C37.5384 11.9999 38.3784 7.11987 38.6784 5.88987C38.7984 5.37987 39.1484 4.08987 39.1584 3.62987Z" fill="#B67429"/>
<path fill-rule="evenodd" clip-rule="evenodd" d="M24.0312 3.50006C24.1912 5.10006 24.4313 6.70006 24.6313 8.30006C24.7513 9.28006 25.2412 12.7901 26.3712 11.0901C26.9512 10.2201 27.3613 8.19006 27.6313 6.98006C27.9513 5.55006 28.4013 4.00006 28.6413 2.56006C27.4513 2.60006 25.1912 3.18006 24.0312 3.50006Z" fill="#B67429"/>
<path fill-rule="evenodd" clip-rule="evenodd" d="M30.1016 2.38006C30.2616 3.54006 30.6616 6.42006 30.9716 7.51006C31.1216 8.02006 31.2915 8.73006 31.8615 8.68006C32.6515 7.91006 32.7716 3.91006 32.8416 2.42006L33.0716 2.43006C32.5716 2.24006 30.7516 2.33006 30.1016 2.38006Z" fill="#B67429"/>
<path fill-rule="evenodd" clip-rule="evenodd" d="M10.5508 16.9699C11.5108 16.5599 12.3008 16.2099 13.3908 15.9099C14.0708 15.7299 16.1108 15.4999 16.4208 15.0599C16.0308 14.4799 13.1908 14.7199 12.4208 14.6799C12.0808 15.0299 11.7708 15.4299 11.4708 15.7999C11.2408 16.0999 10.6608 16.6999 10.5508 16.9699Z" fill="#B67429"/>
<path fill-rule="evenodd" clip-rule="evenodd" d="M1.44922 73.2502L57.8592 73.3702C56.5892 67.9402 53.4292 57.0202 51.1392 52.4402C50.0792 50.3302 48.1292 47.1602 46.7092 45.6402C46.4692 45.3902 46.3192 45.1702 46.1192 44.9902L44.8392 43.7202C44.0092 43.0402 43.6692 42.7202 42.7592 42.0802C42.5492 41.9302 42.1592 41.7202 41.9792 41.5502L45.7892 37.9802C45.9692 37.8002 46.1692 37.6702 46.3592 37.4902C46.5692 37.2902 46.6792 37.1602 46.8992 36.9802L49.6492 34.4502C49.8592 34.2202 49.9792 34.1402 50.1992 33.9502C50.2792 33.8902 50.6992 33.5202 50.6592 33.4302L48.4192 35.0202C46.2892 36.5302 43.5892 38.1202 41.1792 39.3202C38.3592 40.7202 35.8992 41.6502 32.8492 42.5302C32.1392 42.7302 32.0492 42.8402 31.2592 42.7002C24.5992 41.5602 19.0692 38.7402 14.1092 34.7802L12.0092 33.0302C11.8192 32.8802 11.7092 32.7402 11.5192 32.5902C11.3092 32.4202 11.2092 32.2902 11.0092 32.1102C10.8192 31.9402 10.6592 31.8202 10.4692 31.6502C10.2792 31.4802 10.1792 31.2802 9.9592 31.1702C10.1992 31.8602 10.4892 32.4402 10.6992 33.2202C11.9992 38.0502 9.69921 45.5602 8.40921 50.1002C7.14921 54.5202 5.78922 58.7302 4.38922 63.0802C3.95922 64.4802 1.80922 71.8702 1.44922 73.2502Z" fill="#8875B6"/>
<path fill-rule="evenodd" clip-rule="evenodd" d="M50.67 33.4301C50.71 33.5201 50.28 33.8801 50.21 33.9501C49.99 34.1401 49.87 34.2201 49.66 34.4501L46.91 36.9801C46.69 37.1601 46.58 37.3001 46.37 37.4901C46.18 37.6701 45.98 37.7901 45.8 37.9801L41.99 41.5501C42.17 41.7201 42.56 41.9301 42.77 42.0801C43.68 42.7201 44.02 43.0401 44.85 43.7201L46.12 44.9901C46.32 45.1701 46.47 45.3801 46.71 45.6401C48.13 47.1601 50.08 50.3201 51.14 52.4401C53.43 57.0201 56.59 67.9401 57.86 73.3701L1.5 73.2701C1.51 73.2801 1.52999 73.2901 1.54999 73.2901L15.9 73.3501C30.28 73.3501 48.04 73.5401 62.39 73.4301C62.4 73.1601 58.19 59.7401 57.88 58.7801C56.22 53.6701 53.79 45.8801 52.91 40.6801C52.24 36.7301 52.33 34.2101 53.87 30.8901L50.67 33.4301Z" fill="#5C499C"/>
<path fill-rule="evenodd" clip-rule="evenodd" d="M1.45193 73.2501C1.81193 71.8801 3.97192 64.4801 4.41192 63.1001C5.81192 58.7501 7.17191 54.5401 8.43191 50.1201C9.72191 45.5801 12.0219 38.0601 10.7219 33.2401C10.5119 32.4501 10.2219 31.8801 9.98193 31.1901C10.2019 31.3001 10.3119 31.5001 10.4919 31.6701C10.6819 31.8401 10.8419 31.9601 11.0319 32.1301C11.2319 32.3101 11.3319 32.4401 11.5419 32.6101C11.7319 32.7601 11.8419 32.9001 12.0319 33.0501L14.1319 34.8001C19.0919 38.7601 24.6119 41.5801 31.2819 42.7201C32.0619 42.8501 32.1619 42.7501 32.8719 42.5501C35.9119 41.6701 38.3719 40.7401 41.2019 39.3401C43.6119 38.1401 46.3119 36.5601 48.4419 35.0401L50.6819 33.4501L53.8819 30.9101C52.3319 34.2301 52.2519 36.7401 52.9219 40.7001C53.8019 45.9101 56.2319 53.6901 57.8919 58.8001C58.2019 59.7601 62.2919 73.0901 62.2819 73.3601C47.9319 73.4601 30.2519 73.3401 15.8619 73.3401L1.51193 73.2901C1.48193 73.2601 1.46193 73.2601 1.45193 73.2501ZM0.811915 73.8101C1.34192 73.9801 6.50192 73.8701 7.53192 73.8701L61.3619 73.9001C63.2119 73.9001 63.1419 74.1401 62.6019 72.5101C60.9919 67.6901 57.4419 56.0101 56.1019 51.2501C54.8219 46.6801 52.3319 39.0501 53.2919 34.1901C53.4819 33.2301 53.7519 32.5101 54.1219 31.6801C54.5019 30.8101 55.2019 29.8701 55.0319 29.4501C54.6419 29.3801 54.6419 29.4801 54.3919 29.7101C52.6219 31.3401 48.1819 34.6101 46.3119 35.7701C41.9119 38.5001 38.4719 40.2701 33.4219 41.8001C33.0519 41.9101 32.2719 42.1801 31.9119 42.2201C31.5719 42.2601 30.7019 42.0501 30.3219 41.9701C28.2619 41.5601 26.3019 40.9801 24.4719 40.2601C20.7019 38.7801 17.6119 36.8101 14.9219 34.7301L12.8419 33.0201C12.5319 32.7301 12.1119 32.4301 11.8219 32.1201L8.89193 29.4201C8.25193 29.3401 8.93192 30.4001 9.03192 30.5801C11.5019 35.2201 10.5019 39.7401 9.29193 44.7301C7.73193 51.1401 5.95191 56.1801 4.09191 62.2401C3.86191 63.0401 0.691915 73.3501 0.811915 73.8101Z" fill="#060204"/>
<path fill-rule="evenodd" clip-rule="evenodd" d="M41.8594 2.66016L55.1194 4.73016C59.1494 5.28016 59.3094 7.33016 56.5894 10.5102L52.3194 15.1902L41.8594 2.66016Z" fill="#FCB457" stroke="#271109" stroke-width="0.5746" stroke-miterlimit="22.9256"/>
<path d="M58.4219 6.95013C53.2619 6.50013 50.1319 6.21013 46.1719 7.83013" stroke="#271109" stroke-width="0.5746" stroke-miterlimit="22.9256"/>
<path fill-rule="evenodd" clip-rule="evenodd" d="M20.8212 2.66016L7.56119 4.73016C3.53119 5.28016 3.37118 7.33016 6.09118 10.5102L10.3612 15.1902L20.8212 2.66016Z" fill="#FCB457" stroke="#271109" stroke-width="0.5746" stroke-miterlimit="22.9256"/>
<path d="M4.26172 6.95013C9.42172 6.50013 12.5517 6.21013 16.5117 7.83013" stroke="#271109" stroke-width="0.5746" stroke-miterlimit="22.9256"/>
<path d="M44.2594 41.3003H39.8594V50.7503H44.2594V41.3003Z" fill="#8777B7"/>
<path fill-rule="evenodd" clip-rule="evenodd" d="M41.2891 41.7302L42.4191 50.0302L42.0691 54.0602L42.7191 56.8802L49.9391 58.0302L51.5391 40.6802L41.2891 41.7302Z" fill="#5E499C"/>
<path fill-rule="evenodd" clip-rule="evenodd" d="M40.8194 41.8701C41.3094 45.4101 40.9594 48.3901 39.8594 50.7601L44.2594 49.5101C43.0794 46.5101 42.5194 43.9901 42.4494 41.3101C41.9194 41.5101 41.3794 41.6901 40.8194 41.8701Z" stroke="black" stroke-width="0.5641" stroke-miterlimit="22.9256"/>
<path d="M45.9886 49.4502H39.3086V54.2002H45.9886V49.4502Z" fill="#8777B7"/>
<path fill-rule="evenodd" clip-rule="evenodd" d="M41.2891 41.7302L42.4191 50.0302L42.0691 54.0602L42.7191 56.8802L49.9391 58.0302L51.5391 40.6802L41.2891 41.7302Z" fill="#5E499C"/>
<path fill-rule="evenodd" clip-rule="evenodd" d="M39.6699 50.8102L44.4299 49.4502C45.3799 50.6002 46.2899 52.4802 45.8899 53.8202L39.7299 54.1902C39.2099 53.1002 39.1499 51.9702 39.6699 50.8102Z" stroke="black" stroke-width="0.5641" stroke-miterlimit="22.9256"/>
<path d="M44.73 53.9001H40.5V56.8901H44.73V53.9001Z" fill="#8777B7"/>
<path fill-rule="evenodd" clip-rule="evenodd" d="M41.2891 41.7302L42.4191 50.0302L42.0691 54.0602L42.7191 56.8802L49.9391 58.0302L51.5391 40.6802L41.2891 41.7302Z" fill="#5E499C"/>
<path fill-rule="evenodd" clip-rule="evenodd" d="M40.5 54.1901C41.63 57.9201 43.65 57.7501 44.73 53.9001L40.5 54.1901Z" stroke="black" stroke-width="0.5641" stroke-miterlimit="22.9256"/>
<path fill-rule="evenodd" clip-rule="evenodd" d="M22.2381 38.4802C20.8781 43.5902 21.0281 47.7902 22.4781 50.9102L18.0781 49.6602C19.8481 45.1702 20.1981 41.6602 19.6581 37.1702L22.2381 38.4802Z" fill="#8777B7" stroke="black" stroke-width="0.5641" stroke-miterlimit="22.9256"/>
<path fill-rule="evenodd" clip-rule="evenodd" d="M22.6683 50.9601L17.9083 49.6001C16.9583 50.7501 16.0483 52.6301 16.4483 53.9701L22.6083 54.3401C23.1183 53.2501 23.1783 52.1201 22.6683 50.9601Z" fill="#8777B7" stroke="black" stroke-width="0.5641" stroke-miterlimit="22.9256"/>
<path fill-rule="evenodd" clip-rule="evenodd" d="M21.8394 54.34C20.7094 58.07 18.6894 57.9 17.6094 54.05L21.8394 54.34Z" fill="#8777B7" stroke="black" stroke-width="0.5641" stroke-miterlimit="22.9256"/>
<path fill-rule="evenodd" clip-rule="evenodd" d="M36.9505 42.5202C0.180515 36.4002 3.4005 7.87017 31.2805 4.97017L31.2705 0.670166C-2.56951 2.83017 -1.29951 38.2502 25.5505 42.7602L36.9505 42.5202Z" fill="#8777B7" stroke="black" stroke-width="0.5964" stroke-miterlimit="22.9256" stroke-linecap="round" stroke-linejoin="round"/>
<path d="M25.9102 31.0103C29.3202 32.8803 32.7401 33.1003 36.1501 31.2603" stroke="#271109" stroke-width="0.5635" stroke-miterlimit="22.9256" stroke-linecap="round" stroke-linejoin="round"/>
<path d="M36.1484 15.2301C36.1884 13.0501 38.8684 12.1201 44.6484 12.6401" stroke="#271109" stroke-width="0.7665" stroke-miterlimit="22.9256" stroke-linecap="round" stroke-linejoin="round"/>
<path d="M19.2891 20.4402C22.4191 25.7202 26.229 27.5202 31.269 23.1702L31.4991 21.4502" stroke="#271109" stroke-width="0.5811" stroke-miterlimit="22.9256" stroke-linecap="round" stroke-linejoin="round"/>
<path d="M43.6905 20.4402C40.5605 25.7202 36.7504 27.5202 31.7104 23.1702L31.4805 21.4502" stroke="#271109" stroke-width="0.5811" stroke-miterlimit="22.9256" stroke-linecap="round" stroke-linejoin="round"/>
<path fill-rule="evenodd" clip-rule="evenodd" d="M27.8678 19.3003C30.2978 18.4103 32.7178 18.4503 35.1578 19.3403V19.2803C35.2978 15.2303 27.4478 15.2703 27.8678 19.3003Z" stroke="#271109" stroke-width="1.1503" stroke-miterlimit="22.9256" stroke-linecap="round" stroke-linejoin="round"/>
<path fill-rule="evenodd" clip-rule="evenodd" d="M27.8672 19.2604L30.0972 19.4904L30.1972 20.3804L31.4872 21.4604L32.5372 20.3804L32.7472 19.4604L35.1572 19.3404C33.8972 18.8904 32.7272 18.6804 31.5172 18.6104C30.1972 18.6204 28.9772 18.8404 27.8672 19.2604Z" stroke="#271109" stroke-width="0.5751" stroke-miterlimit="22.9256" stroke-linecap="round" stroke-linejoin="round"/>
<path d="M26.7188 15.2301C26.6788 13.0501 23.9988 12.1201 18.2188 12.6401" stroke="#271109" stroke-width="0.7662" stroke-miterlimit="22.9256" stroke-linecap="round" stroke-linejoin="round"/>
<path fill-rule="evenodd" clip-rule="evenodd" d="M25.9797 56.5402L26.2697 57.2102C26.3697 57.4502 26.4397 57.6602 26.5197 57.9302C26.9997 59.6302 26.7997 61.4802 25.9797 63.0402C25.0997 62.8402 23.5797 61.9902 23.1297 61.3202C23.9597 61.3202 24.5197 61.4002 25.1297 61.4002C25.2197 61.2702 25.3597 61.1502 25.1997 60.9702C25.0197 60.7602 23.3697 60.8002 22.9997 60.8002C22.7597 60.8002 22.6897 60.9202 22.6797 60.0702L22.8397 58.8702C23.0197 58.1602 23.4097 57.6002 23.9197 57.2302C24.2997 56.9602 25.6197 56.5502 25.9797 56.5402ZM22.1797 60.2302C22.1897 60.4502 22.2097 60.6702 22.2397 60.9002C22.2897 61.2702 22.2597 61.2202 22.4697 61.4302C22.7997 61.7502 23.0697 62.0602 23.4397 62.3502C24.0297 62.8102 25.8397 63.8402 26.2997 63.5602C26.4597 63.4602 26.4897 63.2502 26.5797 63.0802C26.9497 62.3202 27.3597 60.9102 27.3597 60.0502H27.7997V62.8202C27.7997 63.1602 27.6397 63.7402 28.0397 63.7402C28.1997 63.7402 28.3197 63.5902 28.3197 63.4202V60.0502H29.0397V63.4202C29.0397 63.6402 29.4897 63.7502 29.5597 63.3802C29.5797 63.2802 29.5597 63.0202 29.5597 62.9002V60.9702C29.5597 60.6202 29.5997 60.4202 29.5997 60.0502H30.1997V61.9702C30.1997 62.3602 29.9597 63.4102 30.4397 63.4102C30.6297 63.4102 30.7197 63.2702 30.7197 63.0902V60.0402H31.4397V62.1702C31.4397 62.3902 31.3897 62.5402 31.3997 62.6902C31.4397 63.2102 31.9597 63.0102 31.9597 62.7702V60.0402H32.6397V62.3702C32.6397 62.6602 32.8497 62.7402 33.1597 62.5302L33.1997 60.0402H33.7997C33.7997 60.2702 33.7597 60.3202 33.7597 60.5602C33.7597 61.0802 33.6397 61.8802 33.9997 61.8802C34.2997 61.8802 34.3197 61.6102 34.3197 61.3202V60.0402H34.9197C34.9197 61.7802 36.5897 63.8902 38.6497 63.8902C39.0297 63.8902 38.9697 63.6702 38.9697 63.2902C38.9697 62.3902 38.6197 61.4802 38.1697 60.8802L37.5897 60.1802C37.4797 60.0402 37.3297 59.9902 37.2397 59.8502C37.4897 59.7902 38.0997 59.4202 38.3097 59.2702C39.0397 58.7402 39.4097 58.3302 39.8797 57.5602C40.0097 57.3502 40.3297 56.6602 40.3297 56.3602C40.3297 56.0402 39.5597 56.1202 39.2497 56.1202C38.0097 56.1202 37.0497 56.5102 36.3297 57.0502C35.8697 57.3902 35.2697 58.1202 35.0897 58.6902C35.0297 58.8802 34.9297 59.2602 34.9297 59.4902H34.3297L34.3797 57.8902C34.3797 57.6002 33.8097 57.4002 33.8097 58.0102V59.4902H33.2097V58.0502C33.2097 57.7202 33.4297 56.8502 32.9697 56.8502C32.8097 56.8502 32.6897 57.0002 32.6897 57.1702V59.5002H31.9997V56.7702C31.9997 56.4402 31.4697 56.2602 31.4797 56.9302L31.4397 59.5002H30.7197C30.8197 59.0902 30.7597 56.9502 30.7597 56.3702C30.7597 56.0802 30.5497 56.0002 30.2397 56.2102L30.1997 59.5002H29.5997V56.1702C29.5997 55.8202 29.1097 55.8002 29.0797 56.1702L29.0397 59.5002C28.7497 59.5702 28.6997 59.5402 28.3597 59.5402V56.0102C28.3597 55.7702 27.8997 55.6502 27.8397 56.0102C27.8097 56.2002 27.8397 56.8202 27.8397 57.0502C27.8397 57.4202 27.7997 57.6602 27.7997 58.0502C27.7997 58.4002 27.7997 58.7502 27.7997 59.0902V59.5302H27.3597C27.3597 58.5502 27.0397 57.5002 26.6797 56.6802C26.2997 55.8202 26.3497 55.8702 25.4097 56.1302C24.3397 56.4202 23.5097 56.6502 22.8797 57.6102C22.7297 57.8402 22.6497 57.9702 22.5297 58.2602C22.3197 58.7902 22.2197 59.3202 22.1997 59.8702V60.2302H22.1797ZM36.4897 59.7502C36.4897 60.0002 36.8397 60.1602 37.1397 60.4602C37.8997 61.2202 38.4297 62.2102 38.4497 63.3202C37.7497 63.3202 36.8197 62.7702 36.3897 62.2202C35.6197 61.2302 35.2297 60.2702 35.5597 58.9902C35.7097 58.3902 36.2597 57.7602 36.7397 57.4102C37.4797 56.8602 38.4197 56.6402 39.6997 56.6402C39.6697 57.0202 39.0997 57.8202 38.8297 58.1302C38.3497 58.6802 37.6097 59.1002 36.9497 59.4202C36.7697 59.4902 36.4897 59.5302 36.4897 59.7502Z" fill="#F2F0E5"/>
<path fill-rule="evenodd" clip-rule="evenodd" d="M24.3403 58.7502C24.3403 58.4202 24.6303 58.0302 24.9403 58.0302C25.2303 58.0302 25.4503 58.0102 25.7103 58.3002C26.1403 58.7702 25.9303 59.6302 25.2203 59.6302C24.7503 59.6302 24.3403 59.2102 24.3403 58.7502ZM23.8203 58.6702C23.8203 59.1302 23.9003 59.4202 24.2103 59.7202C24.7803 60.2902 25.6403 60.3002 26.1303 59.7702C26.9303 58.9002 26.2403 57.4602 25.0703 57.4602C24.4103 57.4702 23.8203 58.0202 23.8203 58.6702Z" fill="#F2F0E5"/>
<path fill-rule="evenodd" clip-rule="evenodd" d="M45.7087 9.68004C45.8587 9.84004 46.1087 9.99004 46.2787 10.12C46.9887 10.67 48.3987 11.89 48.8987 12.52C49.1787 12.87 49.4787 13.17 49.7787 13.58C54.0187 19.31 53.6887 25.86 49.6187 31.19C45.3887 36.73 38.8487 39.63 32.1187 41.6L28.9688 42.4C30.4188 42.52 32.4287 42.39 33.9287 42.38C34.7487 42.37 35.5587 42.36 36.3687 42.36C37.1287 42.36 37.7887 42.19 38.4987 42.04C42.9787 41.06 48.2088 38.49 51.1688 35.01L51.7588 34.34C51.9688 34.09 52.1387 33.89 52.3287 33.65C53.3887 32.29 54.3487 30.67 55.0187 29C57.2787 23.39 56.7787 17.9 54.1187 12.94C53.5687 11.91 52.7688 10.77 52.0988 10C50.4188 8.08004 48.9887 6.82004 46.7987 5.46004C46.1587 5.06004 44.2487 3.96004 43.5287 3.79004L45.7087 9.68004Z" fill="#5C499C"/>
<path fill-rule="evenodd" clip-rule="evenodd" d="M43.5187 3.78013C44.2487 3.95013 46.1587 5.05013 46.7887 5.45013C48.9787 6.82013 50.4087 8.07013 52.0887 9.99013C52.7587 10.7601 53.5587 11.9001 54.1087 12.9301C56.7687 17.9001 57.2687 23.3901 55.0087 28.9901C54.3387 30.6501 53.3687 32.2801 52.3187 33.6401C52.1287 33.8801 51.9687 34.0701 51.7487 34.3301L51.1587 35.0001C48.1987 38.4801 42.9687 41.0501 38.4887 42.0301C37.7787 42.1801 37.1187 42.3501 36.3587 42.3501C35.5387 42.3501 34.7287 42.3601 33.9187 42.3701C32.4087 42.3801 30.4087 42.5101 28.9587 42.3901L32.1087 41.5901C38.8387 39.6201 45.3887 36.7201 49.6087 31.1801C53.6787 25.8501 54.0187 19.3001 49.7687 13.5701C49.4687 13.1601 49.1687 12.8601 48.8887 12.5101C48.3887 11.8901 46.9787 10.6701 46.2687 10.1101C46.0987 9.98013 45.8487 9.83013 45.6987 9.67013L44.2487 8.74013C40.6087 6.55013 35.7487 5.07013 31.4787 4.71013L31.4687 0.980129C33.6087 1.10013 35.9587 1.45013 37.9487 1.93013C38.9487 2.16013 43.0687 3.33013 43.5187 3.78013ZM30.9787 5.17013C31.3487 5.32013 32.9587 5.47013 33.5287 5.56013C38.9087 6.45013 44.0787 8.52013 47.8187 12.2101C52.0587 16.3901 54.1287 22.8601 50.0987 29.4701C45.6787 36.7201 35.7387 40.5801 27.0087 42.1901C26.6087 42.2601 26.1887 42.3401 25.7787 42.4101C25.1787 42.5101 25.1787 43.0001 25.8387 43.0101C26.8287 43.0201 27.8587 42.9901 28.8487 42.9801C30.3487 42.9701 36.3987 43.0201 37.6287 42.7801C41.3087 42.0701 45.2087 40.5901 48.1687 38.4001C49.3787 37.5001 50.4887 36.5901 51.3787 35.5901C52.4787 34.3701 53.0187 33.8001 53.9887 32.2301C54.7587 30.9901 55.3887 29.7101 55.9187 28.2001C58.3487 21.3501 56.5787 14.0901 51.9387 8.95013C51.8087 8.81013 51.6787 8.72013 51.5587 8.58013L50.4187 7.46013C50.1387 7.24013 49.9087 6.99013 49.6087 6.76013C48.4987 5.92013 47.4087 5.06013 46.0087 4.34013C41.4887 2.00013 37.2987 0.870129 32.0487 0.440129C30.6887 0.330129 30.9187 0.190129 30.9187 2.19013C30.9187 2.83013 30.8487 4.72013 30.9787 5.17013Z" fill="#060204"/>
<path fill-rule="evenodd" clip-rule="evenodd" d="M45.7083 9.68022L43.5183 3.79022C43.0683 3.34022 38.9483 2.17022 37.9683 1.93022C35.9783 1.45022 33.6283 1.11022 31.4883 0.980225L31.4983 4.71022C35.7683 5.07022 40.6283 6.55022 44.2683 8.74022L45.7083 9.68022Z" fill="#8875B6"/>
</svg>
