<svg width="55" height="81" viewBox="0 0 55 81" fill="none" xmlns="http://www.w3.org/2000/svg">
<path fill-rule="evenodd" clip-rule="evenodd" d="M16.149 15.6603C18.089 15.3903 20.209 15.9903 21.339 16.8803C22.459 17.7603 23.449 19.0503 23.759 20.9503C24.399 24.8803 20.899 27.1403 17.829 27.9303C9.86902 29.9703 7.95903 19.4503 13.619 16.4103C14.429 15.9803 15.109 15.8103 16.149 15.6603ZM6.37904 21.0903C6.54904 21.0003 6.71903 21.0603 6.74903 21.2703C6.79903 21.5903 5.83903 22.3903 5.83903 22.3903C5.61903 22.4903 5.11902 22.3003 5.67902 21.7603C5.97902 21.4703 6.05904 21.2503 6.37904 21.0903ZM9.25904 18.4703C9.12904 18.5303 8.20902 19.1703 8.23902 19.4503C8.29902 20.1503 9.23905 19.1903 9.38905 19.0703C9.84905 18.7103 9.62904 18.2903 9.25904 18.4703ZM12.819 16.2403C12.419 16.1203 12.169 16.3903 11.879 16.5703C11.699 16.6803 11.119 16.9503 11.439 17.2703C11.669 17.4903 12.109 17.1103 12.299 16.9903C12.629 16.7703 12.969 16.7403 12.819 16.2403ZM16.279 14.4603C15.929 14.3303 15.659 14.5503 15.339 14.6903C15.109 14.7903 14.469 15.0203 14.859 15.3603C15.069 15.5403 15.489 15.2403 15.719 15.1403C16.109 14.9803 16.459 14.9703 16.279 14.4603ZM19.649 13.1203C20.069 13.0303 20.199 13.5103 19.769 13.6703C17.859 14.3803 18.379 13.5003 18.629 13.4003C18.929 13.3003 19.329 13.1903 19.649 13.1203ZM22.229 12.9903C22.119 12.5103 22.319 12.5003 22.759 12.4303C23.099 12.3803 23.469 12.2903 23.779 12.3703C23.849 12.5303 23.869 12.6003 23.819 12.8003C23.509 12.9603 22.559 13.1103 22.229 12.9903ZM22.999 42.6003C23.499 42.4803 27.249 40.6003 27.519 40.3503C23.369 40.3403 20.149 39.4603 16.829 38.1103C14.489 37.1503 12.579 35.9503 10.549 34.6403L9.11903 33.6303C8.88903 33.4703 8.82904 33.4303 8.94904 33.0903C9.36904 32.9203 9.66904 33.3203 10.009 33.5503C12.619 35.3103 14.319 36.4503 17.479 37.7503C20.809 39.1103 24.539 39.9503 28.699 39.7403C28.829 39.5703 30.589 38.4903 30.919 38.2403C32.099 37.3803 34.069 35.9003 34.959 34.8603C35.389 34.3603 36.319 33.4203 36.579 32.6803C34.079 33.1803 31.879 33.6403 29.139 33.7303C24.149 33.8903 19.089 33.0803 14.479 31.4503C12.129 30.6203 11.319 30.2203 9.24903 29.3103C9.00903 29.2003 8.68902 28.9903 8.98902 28.7203C9.19902 28.5403 10.189 29.0903 10.449 29.2203C11.569 29.7703 13.819 30.6103 14.989 31.0103C17.149 31.7303 19.369 32.3003 21.779 32.6903C24.399 33.1203 27.009 33.2403 29.719 33.1103C31.369 33.0303 35.529 32.5303 36.969 31.9603C37.229 30.5403 37.659 30.4403 37.679 28.2803C37.679 28.0403 37.729 27.8603 37.599 27.7103C37.299 27.6803 36.809 27.8003 36.449 27.8203C35.229 27.8703 34.339 27.7103 33.289 27.1503C30.909 25.8803 29.899 22.7403 30.679 20.1303C31.299 18.0403 32.499 17.4303 32.699 17.1403C32.779 16.9803 32.849 17.0903 32.479 16.7603C31.479 15.8903 31.749 15.8103 29.999 14.5403C29.499 14.1803 28.909 13.8403 28.329 13.5403C28.039 13.3903 27.729 13.2303 27.429 13.1003C27.169 12.9903 26.689 12.8003 26.479 12.6703C26.179 12.6703 26.239 12.6703 26.069 12.5203C25.379 12.3303 23.489 11.5103 22.369 11.2003C21.729 11.0203 21.169 10.7503 20.579 10.5003C20.179 10.3303 19.059 9.81025 18.729 9.76025C18.189 9.82025 16.349 10.5703 15.839 10.8003C13.149 11.9903 10.819 13.3403 8.53904 15.1603C6.92904 16.4403 6.37903 17.0903 5.11903 18.6503C4.96903 18.8403 4.91903 19.0003 4.74903 19.2103C3.60903 20.6303 2.10903 22.7203 3.36903 24.5503C3.54903 24.3503 3.81905 23.7903 4.13905 24.0503C4.45905 24.4303 3.83902 24.8003 3.67902 25.1703C3.89902 25.4403 4.53904 26.5903 4.75904 27.0203C4.88904 27.2603 4.91903 27.4203 5.02903 27.6703C5.97903 29.8003 6.44903 31.2303 6.86903 33.6003C7.02903 34.5103 6.91903 34.6003 7.30903 35.0703C8.10903 36.0403 9.20905 37.2103 10.139 38.0503C10.329 38.2203 10.429 38.3703 10.639 38.5403L12.179 39.8503C12.909 40.4303 15.889 42.5903 16.839 42.8903C16.999 42.6103 16.959 42.3903 17.189 42.0903C18.639 40.1703 22.799 42.5603 22.999 42.6003Z" fill="#BCDFF6"/>
<path fill-rule="evenodd" clip-rule="evenodd" d="M3.93921 61.8101C3.61921 60.8001 6.02922 59.8201 7.94922 60.9201C8.92922 61.4801 10.3992 62.9101 10.9792 63.8501C12.5592 66.3901 9.88921 67.6101 11.4392 68.1601C12.1692 68.4201 14.8692 68.4801 13.8792 71.3101C13.3192 72.9201 12.0492 74.0201 10.2992 73.2901C7.40919 72.0901 8.79921 66.4001 7.62921 64.0801C7.19921 63.2301 6.73922 63.3101 5.72922 63.0101C5.07922 62.8301 4.09921 62.3401 3.93921 61.8101ZM0.949219 80.9601L30.6392 80.6801C33.7092 71.0401 29.1092 70.1201 26.5392 69.6401C25.1792 69.3801 23.7392 69.3001 22.3192 69.2601C20.8792 69.2201 19.3792 69.3301 18.1392 68.8201C17.1192 68.4001 16.1792 67.4001 16.7592 65.8901C17.1792 64.7801 18.0392 64.0201 18.8392 63.4001C26.9492 57.1201 33.9092 70.3001 38.8192 62.8401C40.4092 60.4201 40.7792 58.2201 37.8492 56.9401C36.7392 56.4601 35.4592 56.2701 34.1992 56.0101C33.1892 55.8101 31.5392 54.9501 31.2492 54.2901C30.7192 54.0201 30.3292 53.8801 29.8392 53.4701C29.5792 53.2501 28.9992 52.6301 28.8692 52.2201C28.2092 52.3201 27.8192 52.4801 27.0592 52.4701C26.3792 52.4701 25.8592 52.2601 25.3192 52.2301C24.6692 53.8101 22.1492 54.9301 20.5092 54.5501C19.9992 54.4301 19.2092 53.9701 19.1092 53.6301C18.4992 53.6201 16.9692 54.5401 14.6592 54.2901C12.6392 54.0701 10.9692 52.9801 9.77921 51.5801C9.39921 51.1301 9.04922 50.6301 8.72922 50.0801C8.39922 49.5301 8.12919 49.0101 7.85919 48.4001L7.1492 46.6201L6.53922 48.0901C5.94921 49.6801 5.54921 51.1301 5.02921 52.7301C4.93921 53.0101 4.92921 53.3001 4.84921 53.6001C4.32921 55.5901 3.9392 57.4001 3.5592 59.4501C3.1192 61.8001 2.80922 64.1901 2.53922 66.6101C2.28922 69.0501 1.02922 78.4901 0.949219 80.9601Z" fill="#F2EEE4"/>
<path fill-rule="evenodd" clip-rule="evenodd" d="M45.7714 69.8801C45.7014 69.2601 46.7214 69.5001 47.0914 69.5901C47.6214 69.7201 48.0114 69.9201 48.3914 70.1501C49.4514 70.8101 51.1614 73.1601 48.4314 72.8401C46.9014 72.6601 45.9314 71.3201 45.7714 69.8801ZM35.8014 47.6501C35.6814 47.6501 35.7414 47.5901 35.6514 47.6601C35.6414 48.0101 35.4614 48.0801 35.3314 48.3101C35.6814 49.0701 35.9914 49.5301 36.0914 50.5801C36.2214 52.0001 35.4114 53.9601 33.9014 54.4901C32.8514 54.8601 32.1414 54.4701 31.2614 54.2901C31.5514 54.9501 33.2014 55.8101 34.2114 56.0101C35.4814 56.2601 36.7614 56.4501 37.8614 56.9401C40.7914 58.2201 40.4214 60.4101 38.8314 62.8401C33.9214 70.3001 26.9614 57.1201 18.8514 63.4001C18.0414 64.0201 17.1914 64.7901 16.7714 65.8901C16.1914 67.4101 17.1314 68.4001 18.1514 68.8201C19.3914 69.3301 20.8914 69.2201 22.3314 69.2601C23.7514 69.3001 25.1914 69.3801 26.5514 69.6401C29.1114 70.1201 31.5214 71.2001 31.1814 74.1701H53.7214C53.4514 71.0101 52.1214 67.2201 51.6814 64.0101C51.6014 63.4501 51.5714 63.4701 51.5614 62.9101C51.5614 62.7401 51.5714 62.7201 51.4914 62.6201L51.5114 62.8801C50.6214 63.2601 49.8214 63.6301 48.5914 63.6901C45.7514 63.8401 42.7514 61.8301 42.7914 58.3301C42.8114 56.5801 43.8414 53.7201 44.6214 52.7401C45.1514 52.0701 45.8014 51.4501 46.5214 50.9201C46.8514 50.6801 48.4014 49.6201 48.8914 49.6301C48.8814 49.6201 48.8714 49.6001 48.8714 49.5901L48.7214 49.1501C48.5314 47.9301 46.8114 42.7501 46.4714 42.3701C46.0914 42.4701 45.4314 42.8001 45.0614 42.9801C41.8714 44.4501 39.1214 45.6801 36.1514 47.5301C35.9514 47.6601 36.0414 47.6501 35.8014 47.6501Z" fill="#444443"/>
<path fill-rule="evenodd" clip-rule="evenodd" d="M47.8883 21.09C47.7583 20.98 47.1783 20.62 47.5583 20.34C47.8183 20.15 48.2283 20.6 48.3683 20.73C48.7583 21.1 48.8383 21.21 48.6883 21.59C48.2483 21.63 48.1683 21.32 47.8883 21.09ZM44.5683 17.87C44.7983 17.76 45.2083 18.16 45.3983 18.3C45.5383 18.4 46.1983 18.81 45.7183 19.04C45.4783 19.15 43.9183 18.18 44.5683 17.87ZM42.5583 16.44C42.6583 16.6 42.6483 16.78 42.4483 16.87C42.2283 16.96 41.7483 16.6 41.5583 16.5C41.3583 16.39 40.6783 16.08 41.2883 15.8C41.4583 15.72 41.9583 16.06 42.1283 16.16C42.2583 16.23 42.4883 16.33 42.5583 16.44ZM39.0783 15.05C38.7583 15.17 38.4683 14.98 38.1683 14.85C37.8983 14.74 37.4483 14.68 37.5683 14.31C37.7083 13.87 38.8683 14.5 39.1483 14.68L39.0783 15.05ZM33.9383 13.04C34.1883 12.8 35.9683 13.29 35.3783 13.73C35.2283 13.83 33.3683 13.58 33.9383 13.04ZM30.6383 12.29C30.9883 12.34 31.3283 12.36 31.5983 12.47C31.7283 12.97 31.4483 12.99 30.9883 12.92C30.6583 12.87 30.2583 12.87 30.0183 12.74C29.8783 12.26 30.1783 12.23 30.6383 12.29ZM18.7383 9.76C19.0683 9.8 20.1883 10.33 20.5883 10.5C21.1883 10.75 21.7383 11.02 22.3783 11.2C23.4983 11.51 25.3883 12.33 26.0783 12.52C26.0583 11.94 26.4883 12.1 26.9983 12.09C27.4883 12.09 27.8483 12 27.7083 12.58C27.3983 12.72 26.9183 12.67 26.4883 12.67C26.6983 12.81 27.1783 12.99 27.4383 13.1C27.7283 13.23 28.0383 13.39 28.3383 13.54C28.9183 13.85 29.5083 14.18 30.0083 14.54C31.7483 15.81 31.4883 15.89 32.4883 16.76C32.8583 17.09 32.7883 16.97 32.7083 17.14C33.2283 16.87 33.2183 16.78 33.9883 16.46C35.4883 15.84 37.3383 15.91 38.8783 16.24C41.7783 16.86 44.1783 19.82 43.8183 22.58C43.6983 23.49 43.1983 24.57 42.5983 25.12C41.7783 25.87 41.5383 26.13 40.3983 26.69C38.7283 27.51 38.5483 27.35 37.7183 27.67L37.6283 27.71C37.7583 27.86 37.7083 28.04 37.7083 28.28C37.6883 30.44 37.2583 30.54 36.9983 31.96C38.8883 31.6 42.3083 30.19 44.1083 29.35C44.4783 29.18 44.8383 29 45.1983 28.81C45.5183 28.64 45.8983 28.3 46.3083 28.45L46.3483 28.83C45.6783 29.28 44.8583 29.62 44.1183 30C42.9083 30.62 40.5483 31.52 39.2183 31.94L36.6183 32.68C36.3483 33.42 35.4183 34.37 34.9983 34.86C34.0983 35.9 32.1383 37.38 30.9583 38.24C30.6283 38.48 28.8583 39.57 28.7383 39.74C34.7483 39.36 39.8183 37.08 44.4883 33.84C45.0483 33.45 46.0983 32.47 46.3383 32.89C46.3883 33.22 46.2283 33.31 46.0483 33.44C45.8683 33.57 45.7283 33.67 45.5783 33.78L42.6183 35.75C38.0983 38.44 33.2683 40.34 27.5583 40.36C27.2883 40.6 23.5383 42.48 23.0383 42.61C23.1983 42.81 23.5383 42.97 23.7583 43.13C24.0183 43.32 24.1683 43.44 24.4083 43.64C24.6883 43.88 25.4383 44.54 25.5983 44.84C25.8983 44.83 26.2183 44.72 26.5483 44.68C28.6183 44.46 28.1483 45.39 29.0483 44.39C31.1483 42.07 36.8683 39.66 37.3783 43.03C39.5183 42.31 42.9783 39.88 44.6983 38.17C45.5383 37.34 45.8783 36.93 46.5983 36.07C47.9483 34.44 47.5483 34.89 47.7983 33.21C47.9683 32.06 48.2583 31.02 48.6383 30.04C48.7483 29.76 48.7783 29.52 48.8983 29.26C49.4283 28.12 51.0783 25.15 51.1383 24.47C50.8583 24.23 50.7583 24.05 50.5583 23.82C50.3283 23.56 50.0283 23.5 50.3383 23.09C50.6383 22.91 51.0983 23.62 51.2983 23.82C51.7283 21.76 50.2483 19.69 49.2083 18.33L48.5483 17.48C48.0483 16.91 47.6283 16.42 47.0883 15.93C46.0383 14.98 45.0083 14.09 43.6683 13.26C40.0783 11.03 36.6583 9.89 32.4283 9.18C30.2683 8.81 25.9883 8.55 23.8983 8.79C22.5883 8.9 19.7883 9.22 18.7383 9.76Z" fill="#88B7D4"/>
<path fill-rule="evenodd" clip-rule="evenodd" d="M16.9402 48.24C16.5302 50.23 13.4901 52.19 11.8401 51.52C11.2101 51.26 10.7801 50.52 11.1201 49.59C11.5501 48.4 12.9502 47.28 13.9802 46.7C14.3802 46.47 15.6102 45.79 16.1702 46.2C16.6602 46.55 17.1302 47.29 16.9402 48.24ZM7.16016 46.62L7.87015 48.4C8.13015 49.01 8.41014 49.53 8.74014 50.08C9.07014 50.62 9.42016 51.13 9.79016 51.58C10.9702 52.98 12.6402 54.07 14.6702 54.29C16.9802 54.54 18.5001 53.62 19.1201 53.63C19.1101 53.62 19.0901 53.6 19.0801 53.59L18.4102 52.49C17.6902 50.73 18.3302 49.54 18.8802 48.28C18.2902 47.71 17.4401 45.75 17.1101 44.79C16.8201 43.95 17.2102 44.19 16.1402 43.68C14.5702 42.92 13.0701 41.75 11.7401 40.71C11.3201 40.39 11.0202 40.04 10.6002 39.73L10.4402 39.94C9.66016 41.16 7.42016 45.56 7.16016 46.62Z" fill="#444443"/>
<path fill-rule="evenodd" clip-rule="evenodd" d="M51.4893 62.6301C51.2493 60.4601 50.7593 58.0601 50.3393 55.9501C50.1293 54.8901 49.9193 53.7901 49.6493 52.7501C49.4893 52.1501 48.9093 50.0801 48.8893 49.6301C48.3993 49.6301 46.8493 50.6801 46.5193 50.9201C45.7993 51.4501 45.1493 52.0701 44.6193 52.7401C43.8393 53.7201 42.7993 56.5701 42.7893 58.3301C42.7593 61.8301 45.7493 63.8501 48.5893 63.6901C49.8093 63.6201 50.6093 63.2601 51.5093 62.8801L51.4893 62.6301Z" fill="#F2EEE4"/>
<path fill-rule="evenodd" clip-rule="evenodd" d="M14.3593 24.9702L15.0193 25.3002L15.0293 27.4102C14.4593 27.3302 13.8093 27.1302 13.4493 26.8202C12.2093 26.2302 10.8193 23.9602 11.1193 21.8402C11.3993 22.1302 11.6193 22.8102 12.4993 23.6502C12.8593 24.0102 13.8693 24.9702 14.3593 24.9702ZM15.7893 27.4802C15.8693 27.1502 16.2093 26.2302 16.3893 26.0002C16.5393 26.1102 16.6793 26.3502 16.7893 26.4902C16.9593 26.7202 16.9793 26.8802 17.3393 26.9102L17.5493 25.7702C20.4793 25.8702 22.0493 24.5102 23.0493 22.6602C22.8193 24.2602 21.5393 25.4302 20.4793 26.1002C19.2993 26.8302 17.4793 27.4702 15.7893 27.4802ZM12.9193 23.3102C14.2193 24.9602 18.9993 26.3702 21.4793 23.8502C21.9093 23.4102 22.7693 22.2602 22.9493 21.4102L18.0093 21.4002C17.8293 21.4902 17.8693 21.5102 17.7793 21.7102C17.6393 22.0002 17.3993 22.3002 17.1893 22.5102C16.0493 23.6102 14.4193 23.8302 12.9193 23.3102ZM19.7393 17.9002L18.9993 19.6902C18.5793 19.2802 18.5693 19.0002 18.2393 18.9502C17.9893 19.2702 17.9993 20.0102 17.8593 20.4802L12.1793 20.4902L11.3493 20.4702C11.3193 20.0802 11.7793 19.2302 11.9693 18.9202C12.1993 18.5402 12.6493 17.9302 12.9993 17.7302C13.2093 17.6302 13.5693 17.3002 13.8293 17.1402C14.1493 16.9602 14.4493 16.8402 14.8193 16.7102C15.0393 16.4602 15.8393 16.3902 16.1493 16.3602C18.3693 16.1202 20.5293 16.6602 21.8893 18.4102C22.1993 18.8102 22.8493 19.8502 22.9193 20.4802L21.7893 20.4702H20.3893L20.2893 18.1102C20.3393 17.7502 20.3493 17.3902 20.1993 17.1402C19.8293 17.2302 19.9293 17.6202 19.7393 17.9002ZM16.1493 15.6602C15.1093 15.8002 14.4293 15.9802 13.6293 16.4102C7.96929 19.4502 9.87928 29.9702 17.8393 27.9302C20.8993 27.1402 24.4093 24.8902 23.7693 20.9502C23.4593 19.0502 22.4593 17.7602 21.3493 16.8802C20.2093 15.9902 18.0893 15.3902 16.1493 15.6602Z" fill="#271109"/>
<path fill-rule="evenodd" clip-rule="evenodd" d="M30.1994 48.9301C30.1694 49.5101 29.8994 50.4001 29.7094 50.8901C29.6294 51.1101 29.3994 51.6001 29.3594 51.7601C29.3094 51.9701 29.5594 52.3601 29.6894 52.5201C29.9994 52.9301 30.5394 53.3301 31.0394 53.5601C34.8094 55.3201 35.9894 51.8601 35.3294 49.7301C34.8194 48.0801 34.3194 48.7101 35.0294 47.7401C35.5994 46.9701 36.0894 45.8501 36.4194 44.9601C36.8994 43.6801 37.2194 42.0801 35.3494 41.9501C33.2694 41.8001 29.7894 43.9301 29.1094 45.1901C29.4694 45.6601 29.7294 45.8301 29.9894 46.5501C30.0694 46.7701 30.0794 46.9401 30.2194 47.1101C30.5594 46.6501 31.4294 46.0701 32.0494 45.7501C32.4994 45.5201 33.8194 44.8101 34.3394 44.9801C34.4694 45.4001 34.3694 45.4301 33.9994 45.5501C33.3094 45.7601 32.6694 46.0501 32.0594 46.4001C31.0394 46.9901 31.0594 47.1501 30.4894 47.6201C30.1794 47.8801 30.2494 47.8501 30.2494 48.3301C31.0194 48.6201 31.2894 48.8501 31.8094 49.3601C32.3994 49.9301 33.0894 51.5801 32.2994 51.3801C31.9594 51.2901 32.1494 50.8201 31.6594 50.0901C31.3494 49.6001 30.8294 49.1201 30.1994 48.9301Z" fill="#AA5363"/>
<path fill-rule="evenodd" clip-rule="evenodd" d="M22.4519 42.9902C20.2719 41.8302 16.2119 40.6802 17.7819 44.9902C18.1119 45.9002 18.4519 46.6302 18.9419 47.4202L19.4419 48.0802C19.6119 48.3802 19.3419 48.6302 19.2019 48.9002C17.9819 51.1902 19.0319 54.1702 21.4319 54.0402C22.9019 53.9602 25.1819 52.5602 24.7619 51.5802C24.2719 50.4502 24.2419 50.0702 23.9619 48.8402C22.2719 49.6602 22.2419 51.6902 21.9219 51.8102C21.6919 51.9002 21.5419 51.7602 21.5319 51.5502C21.5019 51.0002 22.1719 49.8002 22.3919 49.4902C23.0119 48.6002 23.5519 48.5002 23.9319 48.1802C23.9819 47.2502 24.0619 47.4302 23.4719 46.9502C22.7219 46.3402 21.9219 46.1202 20.9419 45.9902C20.3619 45.9202 19.6519 46.1102 19.8619 45.4302C20.3719 45.2302 21.8419 45.5302 22.3519 45.7002C23.0619 45.9302 23.6919 46.3402 24.1119 46.7302C24.1519 46.6802 24.1019 46.7702 24.1819 46.6202C24.4919 46.0502 24.3319 46.0202 25.0919 45.1602C24.8119 44.6002 23.1919 43.3802 22.4519 42.9902Z" fill="#AA5363"/>
<path fill-rule="evenodd" clip-rule="evenodd" d="M7.35832 15.2001C8.24832 14.3101 10.8683 12.5801 12.0383 11.9101C12.6083 11.5801 13.2083 11.2901 13.7583 10.9701C13.6483 9.03012 12.9283 6.86012 12.1683 5.40012C11.6383 4.39012 10.7883 2.93012 9.73832 2.45012C9.37832 2.29012 8.62833 2.12012 8.21833 2.35012C7.99833 2.47012 7.70833 3.21012 7.58833 3.50012C7.14833 4.58012 7.04832 7.10012 7.01832 8.31012C6.95832 10.7901 7.08832 12.8801 7.35832 15.2001Z" fill="#444443"/>
<path fill-rule="evenodd" clip-rule="evenodd" d="M37.499 27.0002C37.259 26.9802 36.729 27.1102 36.409 27.1202C34.509 27.2002 33.879 26.5402 33.419 26.4502L33.009 26.1002C32.049 25.4002 31.199 23.7802 31.199 22.6502L31.469 22.9302C31.749 23.1602 31.899 23.8802 33.509 24.7802C34.999 25.6102 37.289 26.0402 39.069 25.6002C39.509 25.4902 39.659 25.4602 39.979 25.2202C40.379 24.9202 40.299 25.1202 40.609 24.9402C41.189 24.5902 41.879 23.8102 42.239 23.2602C42.639 22.6402 42.419 22.6302 42.649 22.5702L43.119 21.5902C43.139 21.8602 43.139 22.2302 43.109 22.4102C42.959 23.9202 41.959 24.8602 41.089 25.4602C40.639 25.7702 39.979 26.1202 39.419 26.3402C38.749 26.6302 38.209 26.7602 37.499 27.0002ZM32.549 23.3402C32.669 23.5802 32.769 23.5802 33.049 23.8102C33.639 24.2702 34.249 24.5902 34.989 24.8302C35.989 25.1602 37.359 25.3202 38.459 25.1602C39.439 25.0102 40.409 24.5502 41.069 23.8802C41.519 23.4302 42.309 22.2802 42.549 21.4302L37.489 21.4102C37.129 22.7002 35.579 23.5202 34.209 23.5802C33.459 23.6102 33.179 23.4602 32.549 23.3402ZM31.379 20.4802C31.329 20.0402 31.899 19.0902 32.099 18.8102C33.179 17.2802 35.049 16.5402 37.099 16.7002C38.719 16.8302 39.679 17.0702 40.759 17.8402C41.569 18.4202 42.409 19.3202 42.839 20.4902L31.379 20.4802ZM32.709 17.1402C32.509 17.4302 31.309 18.0402 30.689 20.1302C29.919 22.7302 30.919 25.8802 33.299 27.1502C34.349 27.7102 35.229 27.8702 36.459 27.8202C36.819 27.8102 37.309 27.6902 37.609 27.7102L37.699 27.6702C38.529 27.3502 38.709 27.5102 40.379 26.6902C41.519 26.1302 41.769 25.8702 42.579 25.1202C43.179 24.5702 43.679 23.4902 43.799 22.5802C44.169 19.8202 41.759 16.8602 38.859 16.2402C37.319 15.9102 35.469 15.8302 33.969 16.4602C33.219 16.7802 33.229 16.8702 32.709 17.1402Z" fill="#271109"/>
<path fill-rule="evenodd" clip-rule="evenodd" d="M3.93908 61.8101C4.09908 62.3301 5.07909 62.8201 5.72909 63.0101C6.73909 63.3101 7.19908 63.2301 7.62908 64.0801C8.79908 66.4001 7.40906 72.0901 10.2991 73.2901C12.0491 74.0201 13.3291 72.9201 13.8791 71.3101C14.8691 68.4801 12.1591 68.4201 11.4391 68.1601C9.88908 67.6101 12.5491 66.3901 10.9791 63.8501C10.3991 62.9101 8.92909 61.4801 7.94909 60.9201C6.01909 59.8301 3.61908 60.8101 3.93908 61.8101Z" fill="#444443"/>
<path fill-rule="evenodd" clip-rule="evenodd" d="M41 6.66014C41.06 7.30014 41.25 8.21014 41.35 8.89014C41.46 9.61014 41.55 10.5201 41.57 11.2601C42.88 11.9001 44.26 12.7401 45.4 13.6001C45.61 13.7601 45.76 13.8701 45.99 14.0501C46.17 14.2001 46.35 14.3701 46.55 14.4801C46.63 13.5401 46.73 12.6301 46.78 11.6801C46.82 10.9301 46.75 9.37014 46.87 8.77014C46.44 8.50014 45.23 6.61014 44.86 5.95014C44.58 5.45014 44.3 4.95014 44.01 4.42014C43.88 4.18014 43.3 3.00014 43.19 2.89014C42.68 3.29014 41.21 5.71014 41 6.66014Z" fill="#C8C0AF"/>
<path fill-rule="evenodd" clip-rule="evenodd" d="M31.3781 20.4801L42.8281 20.4901C42.4081 19.3201 41.5581 18.4201 40.7481 17.8401C39.6681 17.0701 38.7081 16.8301 37.0881 16.7001C35.0481 16.5401 33.1681 17.2701 32.0881 18.8101C31.8881 19.0901 31.3281 20.0301 31.3781 20.4801Z" fill="#F2EEE4"/>
<path fill-rule="evenodd" clip-rule="evenodd" d="M35.8008 47.6501C36.0408 47.6501 35.9508 47.6601 36.1608 47.5301C39.1308 45.6801 41.8708 44.4501 45.0708 42.9801C45.4508 42.8101 46.1108 42.4801 46.4808 42.3701C46.4508 41.8101 45.2008 39.5201 44.9708 38.8601L42.4808 40.9001C41.6308 41.5201 40.7408 42.0601 39.7508 42.6301C39.2708 42.9101 38.7808 43.1501 38.2708 43.4101C37.0508 44.0201 37.4208 43.6801 37.1908 44.5401C36.8108 45.9401 36.2608 46.6601 35.8008 47.6501Z" fill="#F2EEE4"/>
<path fill-rule="evenodd" clip-rule="evenodd" d="M29.6287 48.4102C29.7987 47.2702 29.1287 45.5802 28.2987 45.3802C27.9387 45.3002 27.4187 45.2202 27.0187 45.2102C25.8287 45.2002 25.4987 45.4602 25.0587 46.2102C24.2187 47.6602 24.6487 49.5102 25.1887 50.9902C25.3887 51.5302 25.3087 51.6102 25.9387 51.7502C26.8087 51.9302 27.7087 51.9502 28.5587 51.6902C28.8587 51.6002 28.8187 51.5502 28.9187 51.3002C29.1587 50.7102 29.2987 50.3502 29.4587 49.6902C29.6787 48.7902 29.5487 48.9202 29.6287 48.4102Z" fill="#AA5363"/>
<path fill-rule="evenodd" clip-rule="evenodd" d="M28.7088 39.7302C24.5488 39.9402 20.8188 39.1102 17.4888 37.7402C14.3388 36.4502 12.6388 35.3102 10.0188 33.5402C9.67881 33.3102 9.37881 32.9102 8.95881 33.0802C8.83881 33.4202 8.89882 33.4502 9.12882 33.6202L10.5588 34.6302C12.5888 35.9402 14.4888 37.1402 16.8388 38.1002C20.1588 39.4602 23.3688 40.3402 27.5288 40.3402C33.2388 40.3102 38.0788 38.4202 42.5888 35.7302L45.5488 33.7602C45.6988 33.6502 45.8488 33.5502 46.0188 33.4202C46.1888 33.3002 46.3588 33.2002 46.3088 32.8702C46.0588 32.4502 45.0088 33.4302 44.4588 33.8202C39.7888 37.0702 34.7188 39.3502 28.7088 39.7302Z" fill="#1D1A18"/>
<path fill-rule="evenodd" clip-rule="evenodd" d="M36.9806 31.9601C35.5506 32.5301 31.3806 33.0301 29.7306 33.1101C27.0206 33.2401 24.4006 33.1201 21.7906 32.6901C19.3806 32.3001 17.1606 31.7301 15.0006 31.0101C13.8306 30.6201 11.5805 29.7701 10.4605 29.2201C10.2005 29.0901 9.21055 28.5401 9.00055 28.7201C8.70055 28.9801 9.02056 29.2001 9.26056 29.3101C11.3306 30.2201 12.1405 30.6101 14.4905 31.4501C19.1005 33.0801 24.1505 33.8901 29.1505 33.7301C31.9005 33.6401 34.1005 33.1801 36.5905 32.6801L39.1906 31.9401C40.5206 31.5201 42.8905 30.6101 44.0905 30.0001C44.8306 29.6201 45.6506 29.2901 46.3206 28.8301L46.2806 28.4501C45.8706 28.3001 45.4906 28.6401 45.1706 28.8101C44.8106 29.0001 44.4605 29.1701 44.0805 29.3501C42.2905 30.1901 38.8706 31.6001 36.9806 31.9601Z" fill="#1D1A18"/>
<path fill-rule="evenodd" clip-rule="evenodd" d="M16.9394 48.24C17.1394 47.29 16.6594 46.56 16.1694 46.2C15.6094 45.79 14.3894 46.47 13.9794 46.7C12.9494 47.29 11.5394 48.4 11.1194 49.59C10.7894 50.52 11.2094 51.26 11.8394 51.52C13.4894 52.19 16.5294 50.23 16.9394 48.24Z" fill="#F2EEE4"/>
<path fill-rule="evenodd" clip-rule="evenodd" d="M14.8197 16.7202C14.4497 16.8502 14.1497 16.9602 13.8297 17.1502C13.5597 17.3002 13.2097 17.6302 12.9997 17.7402C12.6897 18.3802 12.6997 18.0002 12.5297 19.0702L12.1797 20.5002L17.8597 20.4902C17.9997 20.0202 17.9897 19.2802 18.2397 18.9602C18.5697 19.0102 18.5797 19.2902 18.9997 19.7002L19.7397 17.9202C19.6497 17.6702 18.9897 17.4702 18.7397 17.3602C18.3497 17.2002 18.0397 17.0802 17.5997 16.9402C16.5197 16.5702 15.9597 16.6102 14.8197 16.7202Z" fill="#F2EEE4"/>
<path fill-rule="evenodd" clip-rule="evenodd" d="M12.9219 23.3101C14.2219 24.9601 19.0019 26.3701 21.4819 23.8501C21.9119 23.4101 22.7719 22.2601 22.9519 21.4101L18.0119 21.4001C17.8319 21.4901 17.8719 21.5101 17.7819 21.7101C17.6419 22.0001 17.4019 22.3001 17.1919 22.5101C16.0519 23.6101 14.4219 23.8301 12.9219 23.3101Z" fill="#FBAC3D"/>
<path fill-rule="evenodd" clip-rule="evenodd" d="M32.5508 23.3402C32.6708 23.5802 32.7708 23.5802 33.0508 23.8102C33.6408 24.2702 34.2508 24.5902 34.9908 24.8302C35.9908 25.1602 37.3608 25.3202 38.4608 25.1602C39.4408 25.0102 40.4108 24.5502 41.0708 23.8802C41.5208 23.4302 42.3108 22.2802 42.5508 21.4302L37.4908 21.4102C37.1308 22.7002 35.5808 23.5202 34.2108 23.5802C33.4608 23.6102 33.1808 23.4602 32.5508 23.3402Z" fill="#FBAC3D"/>
<path fill-rule="evenodd" clip-rule="evenodd" d="M43.1992 2.89012C43.3092 3.01012 43.8892 4.18012 44.0192 4.42012C44.3092 4.95012 44.5792 5.45012 44.8692 5.95012C45.2492 6.60012 46.4492 8.50012 46.8792 8.77012C46.6992 8.17012 46.8392 7.02012 46.8192 6.75012C46.7992 6.49012 46.7292 6.40012 46.7192 6.11012C46.6892 5.50012 46.5992 4.06012 46.3992 3.60012C45.8592 2.41012 45.9192 2.08012 45.1692 2.01012C44.4192 1.94012 43.7492 2.29012 43.2692 2.81012L43.1992 2.89012Z" fill="#444443"/>
<path fill-rule="evenodd" clip-rule="evenodd" d="M42.661 22.5802C42.431 22.6402 42.651 22.6502 42.251 23.2702C41.891 23.8202 41.201 24.6002 40.621 24.9502C40.311 25.1402 40.381 24.9302 39.991 25.2302C39.671 25.4702 39.521 25.5002 39.081 25.6102C37.301 26.0502 35.021 25.6202 33.521 24.7902C31.901 23.8902 31.761 23.1702 31.481 22.9402L31.211 22.6602C31.201 23.7902 32.051 25.4102 33.021 26.1102L33.431 26.4602C33.551 26.1502 34.061 25.9502 34.371 25.8302C34.771 25.6902 35.221 25.6102 35.691 25.6902C36.501 25.8302 37.331 26.4602 37.501 27.0002C38.211 26.7502 38.751 26.6302 39.421 26.3602C39.981 26.1302 40.641 25.7902 41.091 25.4802C41.961 24.8702 42.961 23.9402 43.111 22.4302C42.811 22.5102 42.941 22.5802 42.661 22.5802Z" fill="#444443"/>
<path fill-rule="evenodd" clip-rule="evenodd" d="M45.7691 69.8801C45.9391 71.3201 46.8991 72.6601 48.4191 72.8401C51.1491 73.1601 49.4391 70.8101 48.3791 70.1501C47.9991 69.9201 47.6091 69.7201 47.0791 69.5901C46.7191 69.5001 45.6991 69.2601 45.7691 69.8801Z" fill="#F2EEE4"/>
<path fill-rule="evenodd" clip-rule="evenodd" d="M8.78906 1.59027C8.96906 1.77027 10.199 1.71027 10.929 2.64027C11.669 3.57027 11.939 3.74027 12.609 5.08027C13.019 5.91027 13.399 6.70027 13.679 7.66027C13.999 8.74027 14.0891 9.29027 14.2291 10.3503C14.2591 10.5903 14.269 10.6203 14.359 10.7303C14.599 10.6403 15.6091 10.2103 15.7291 10.0703L13.6891 6.21027C13.1191 5.17027 12.359 3.74027 11.609 2.83027C10.959 2.02027 9.93906 0.850267 8.78906 1.59027Z" fill="#444443"/>
<path fill-rule="evenodd" clip-rule="evenodd" d="M15.7891 27.4802C17.4691 27.4702 19.2991 26.8302 20.4691 26.1002C21.5391 25.4302 22.8091 24.2602 23.0391 22.6602C22.0391 24.5102 20.4691 25.8702 17.5391 25.7702L17.329 26.9102C16.969 26.8802 16.9591 26.7202 16.7791 26.4902C16.6691 26.3502 16.5291 26.1102 16.3791 26.0002C16.2091 26.2302 15.8691 27.1502 15.7891 27.4802Z" fill="#444443"/>
<path fill-rule="evenodd" clip-rule="evenodd" d="M13.4413 26.8201C13.9613 25.6501 13.7813 26.1001 14.2513 25.2701C14.3913 25.0201 14.3113 25.2301 14.3613 24.9701C13.8713 24.9701 12.8513 24.0101 12.4813 23.6501C11.6013 22.8101 11.3913 22.1301 11.1013 21.8401C10.8113 23.9601 12.2013 26.2301 13.4413 26.8201Z" fill="#F2EEE4"/>
<path fill-rule="evenodd" clip-rule="evenodd" d="M14.8203 16.7202C15.9603 16.6102 16.5203 16.5702 17.5903 16.9202C18.0303 17.0602 18.3403 17.1802 18.7303 17.3402C18.9803 17.4502 19.6503 17.6502 19.7303 17.9002C19.9203 17.6102 19.8203 17.2202 20.2103 17.1502C20.3603 17.3902 20.3603 17.7602 20.3003 18.1202C20.7303 18.1702 21.3003 18.5802 21.9703 18.6802L21.7903 20.4702L22.9203 20.4802C22.8503 19.8502 22.2003 18.8102 21.8903 18.4102C20.5203 16.6702 18.3703 16.1302 16.1503 16.3602C15.8403 16.4002 15.0403 16.4702 14.8203 16.7202Z" fill="#444443"/>
<path fill-rule="evenodd" clip-rule="evenodd" d="M40.7781 5.7101L40.6382 5.5401C40.5982 5.4801 40.5681 5.4301 40.5181 5.3501L38.6881 8.7001C38.4881 9.0401 38.1981 9.4301 38.0781 9.8501L39.4482 10.3401C39.5782 10.2501 39.4981 10.5001 39.5881 10.1001C39.7081 9.5901 39.7181 8.8601 39.9881 7.9001C40.2081 7.1501 40.4781 6.3601 40.7781 5.7101Z" fill="#444443"/>
<path fill-rule="evenodd" clip-rule="evenodd" d="M33.4219 26.46C33.8819 26.54 34.5019 27.2 36.4119 27.13C36.7319 27.12 37.2619 26.99 37.5019 27.01C37.3319 26.47 36.4919 25.85 35.6919 25.7C35.2219 25.62 34.7719 25.69 34.3719 25.84C34.0519 25.94 33.5419 26.15 33.4219 26.46Z" fill="#F2EEE4"/>
<path fill-rule="evenodd" clip-rule="evenodd" d="M41.5699 11.2602C41.5499 10.5202 41.4699 9.62016 41.3499 8.89016C41.2399 8.21016 41.0498 7.30016 40.9998 6.66016C40.8898 6.81016 40.4998 8.17016 40.4398 8.45016C40.3198 9.08016 40.2298 9.93016 40.0898 10.5202L41.5699 11.2602Z" fill="#444443"/>
<path fill-rule="evenodd" clip-rule="evenodd" d="M4.27811 27.6501C4.07811 29.2201 4.46811 31.0701 5.30811 32.2701C5.55811 32.6301 5.8181 33.1201 6.1081 33.3901C6.0781 32.2201 4.79811 28.3701 4.27811 27.6501Z" fill="#F2EEE4"/>
<path fill-rule="evenodd" clip-rule="evenodd" d="M21.7986 20.4801L21.9786 18.6901C21.3086 18.5801 20.7386 18.1801 20.3086 18.1301L20.4086 20.4901L21.7986 20.4801Z" fill="#F2EEE4"/>
<path fill-rule="evenodd" clip-rule="evenodd" d="M13.4414 26.8202C13.8014 27.1302 14.4614 27.3302 15.0214 27.4102L15.0114 25.3002L14.3514 24.9702C14.3114 25.2302 14.3914 25.0202 14.2414 25.2702C13.7814 26.1002 13.9614 25.6602 13.4414 26.8202Z" fill="#444443"/>
<path fill-rule="evenodd" clip-rule="evenodd" d="M49.9814 30.0701C49.8714 30.0601 49.7314 30.0501 49.6314 30.0301C49.5614 30.0201 49.5114 30.0101 49.4514 29.9701C49.3114 29.9001 49.4614 30.0201 49.3414 29.8801C49.3314 29.8901 49.3214 29.9101 49.3214 29.9301C49.3114 29.9401 49.3014 29.9601 49.3014 29.9701C49.2914 29.9801 49.2914 30.0001 49.2814 30.0101L49.1814 30.3101C48.8614 31.1901 48.4614 32.6601 48.4414 33.5501C48.5214 33.4401 48.6114 33.3401 48.6914 33.1901C49.2514 32.1001 49.7514 31.9401 49.9814 30.0701Z" fill="#444443"/>
<path fill-rule="evenodd" clip-rule="evenodd" d="M12.179 20.5002L12.529 19.0702C12.699 17.9902 12.6891 18.3702 12.9991 17.7402C12.6491 17.9502 12.1891 18.5602 11.9691 18.9302C11.7791 19.2402 11.3191 20.0902 11.3491 20.4802L12.179 20.5002Z" fill="#444443"/>
<path fill-rule="evenodd" clip-rule="evenodd" d="M40.5312 5.3502C40.5813 5.4302 40.6012 5.4802 40.6512 5.5402L40.7913 5.7102C40.8213 5.4402 41.0913 5.0202 41.2213 4.7702C41.3813 4.4602 41.5513 4.1802 41.7313 3.8902C42.0813 3.3202 42.5513 2.7402 42.9513 2.2902C42.9513 2.1802 42.9613 2.1902 42.9213 2.1002C42.8513 1.9402 42.9613 2.0102 42.7913 1.9502C42.7613 2.0502 42.3112 2.5102 42.1812 2.6702C41.9812 2.9202 41.7713 3.2202 41.5713 3.5102C41.3713 3.8202 40.6013 5.0102 40.5312 5.3502Z" fill="#F2EEE4"/>
<path fill-rule="evenodd" clip-rule="evenodd" d="M6.17969 16.2602C6.35969 16.1902 6.7797 15.8402 6.8197 15.6202L6.5397 12.7202C6.5397 12.7002 6.52969 12.6802 6.52969 12.6602L6.38971 12.7802C6.37971 12.8302 6.36969 12.9602 6.36969 13.0102L6.17969 16.2602Z" fill="#444443"/>
<path fill-rule="evenodd" clip-rule="evenodd" d="M42.7891 1.94009C42.9591 2.01009 42.8491 1.93009 42.9191 2.09009C42.9591 2.19009 42.9391 2.17009 42.9491 2.28009C43.1591 2.16009 43.2891 1.95009 43.8391 1.71009C43.9991 1.64009 44.229 1.56009 44.399 1.52009C44.749 1.43009 44.839 1.52009 45.049 1.32009C44.569 1.15009 44.1191 0.850093 43.2591 1.52009C43.1491 1.61009 43.159 1.61009 43.049 1.71009L42.7891 1.94009Z" fill="#444443"/>
<path fill-rule="evenodd" clip-rule="evenodd" d="M12.8183 16.2402C12.4183 16.1202 12.1683 16.3902 11.8783 16.5702C11.6983 16.6802 11.1183 16.9502 11.4383 17.2702C11.6683 17.4902 12.1083 17.1102 12.2983 16.9902C12.6283 16.7702 12.9683 16.7402 12.8183 16.2402Z" fill="#271109"/>
<path fill-rule="evenodd" clip-rule="evenodd" d="M22.2289 12.9902C22.5589 13.1102 23.5089 12.9602 23.8189 12.8002C23.8689 12.6002 23.8489 12.5402 23.7789 12.3702C23.4789 12.2902 23.0989 12.3802 22.7589 12.4302C22.3189 12.5002 22.1189 12.5102 22.2289 12.9902Z" fill="#271109"/>
<path fill-rule="evenodd" clip-rule="evenodd" d="M19.6506 13.12C19.3306 13.19 18.9307 13.29 18.6407 13.4C18.3907 13.5 17.8706 14.38 19.7806 13.67C20.2006 13.51 20.0706 13.03 19.6506 13.12Z" fill="#271109"/>
<path fill-rule="evenodd" clip-rule="evenodd" d="M26.0905 12.5202C26.2605 12.6702 26.2005 12.6702 26.5005 12.6702C26.9305 12.6702 27.4105 12.7202 27.7205 12.5802C27.8705 12.0002 27.5005 12.0902 27.0105 12.0902C26.4905 12.0902 26.0705 11.9402 26.0905 12.5202Z" fill="#271109"/>
<path fill-rule="evenodd" clip-rule="evenodd" d="M16.2815 14.46C15.9315 14.33 15.6615 14.55 15.3415 14.69C15.1115 14.79 14.4715 15.02 14.8615 15.36C15.0715 15.54 15.4915 15.24 15.7215 15.14C16.1115 14.98 16.4615 14.97 16.2815 14.46Z" fill="#271109"/>
<path fill-rule="evenodd" clip-rule="evenodd" d="M41.2993 15.8002C40.6893 16.0802 41.3693 16.3802 41.5693 16.5002C41.7493 16.6002 42.2393 16.9602 42.4593 16.8702C42.6493 16.7902 42.6593 16.6002 42.5693 16.4402C42.4993 16.3302 42.2693 16.2302 42.1493 16.1602C41.9693 16.0602 41.4693 15.7202 41.2993 15.8002Z" fill="#271109"/>
<path fill-rule="evenodd" clip-rule="evenodd" d="M44.5713 17.8701C43.9213 18.1801 45.4813 19.1501 45.7213 19.0401C46.2013 18.8101 45.5413 18.4001 45.4013 18.3001C45.2113 18.1501 44.8013 17.7601 44.5713 17.8701Z" fill="#271109"/>
<path fill-rule="evenodd" clip-rule="evenodd" d="M9.25902 18.4701C9.12902 18.5301 8.209 19.1701 8.239 19.4501C8.299 20.1501 9.23902 19.1901 9.38902 19.0701C9.84902 18.7101 9.62902 18.2901 9.25902 18.4701Z" fill="#271109"/>
<path fill-rule="evenodd" clip-rule="evenodd" d="M39.0781 15.0502L39.1481 14.6802C38.8681 14.5002 37.6981 13.8602 37.5681 14.3102C37.4581 14.6802 37.8981 14.7402 38.1681 14.8502C38.4681 14.9802 38.7581 15.1702 39.0781 15.0502Z" fill="#271109"/>
<path fill-rule="evenodd" clip-rule="evenodd" d="M30.019 12.7401C30.259 12.8701 30.659 12.8701 30.989 12.9201C31.449 12.9901 31.729 12.9701 31.599 12.4701C31.319 12.3601 30.989 12.3401 30.639 12.2901C30.179 12.2301 29.879 12.2601 30.019 12.7401Z" fill="#271109"/>
<path fill-rule="evenodd" clip-rule="evenodd" d="M6.3799 21.0903C6.0599 21.2503 5.9799 21.4703 5.6899 21.7603C5.1299 22.3003 5.6299 22.4903 5.8499 22.3903C5.8499 22.3903 6.8099 21.5903 6.7599 21.2703C6.7199 21.0603 6.5499 21.0003 6.3799 21.0903Z" fill="#271109"/>
<path fill-rule="evenodd" clip-rule="evenodd" d="M33.9398 13.0403C33.3698 13.5803 35.2398 13.8303 35.3798 13.7303C35.9598 13.2903 34.1898 12.8003 33.9398 13.0403Z" fill="#271109"/>
<path fill-rule="evenodd" clip-rule="evenodd" d="M48.6908 21.5901C48.8408 21.2101 48.7508 21.1001 48.3708 20.7301C48.2308 20.6001 47.8308 20.1501 47.5608 20.3401C47.1808 20.6201 47.7608 20.9801 47.8908 21.0901C48.1708 21.3201 48.2508 21.6301 48.6908 21.5901Z" fill="#271109"/>
<path fill-rule="evenodd" clip-rule="evenodd" d="M47.0781 15.0001L47.5881 15.3901L47.3581 11.8101L47.0781 15.0001Z" fill="#F2EEE4"/>
<path fill-rule="evenodd" clip-rule="evenodd" d="M49.3398 29.8802C49.4498 30.0202 49.2999 29.9002 49.4499 29.9702C49.5099 30.0002 49.5599 30.0102 49.6299 30.0302C49.7299 30.0502 49.8699 30.0602 49.9799 30.0702C50.0299 29.7002 50.0298 29.1102 49.9598 28.7402C49.9398 28.7302 49.9098 28.6102 49.7698 28.9302C49.7098 29.0502 49.6899 29.1302 49.6299 29.2602C49.5099 29.4902 49.4398 29.6602 49.3398 29.8802Z" fill="#F2EEE4"/>
<path fill-rule="evenodd" clip-rule="evenodd" d="M42.6602 22.5801C42.9502 22.5801 42.8201 22.5101 43.1201 22.4201C43.1501 22.2401 43.1502 21.8701 43.1302 21.6001L42.6602 22.5801Z" fill="#F2EEE4"/>
<path fill-rule="evenodd" clip-rule="evenodd" d="M16.5781 80.9602C16.6281 80.0002 17.3582 79.3502 18.1382 79.0302C19.3782 78.5202 20.8781 78.6302 22.3181 78.5902C23.7381 78.5502 25.1781 78.4702 26.5381 78.2102C29.0981 77.7302 31.1581 76.6702 31.2081 73.6802H53.6581C53.9281 75.9502 54.2381 78.5102 54.2181 80.9602H16.5781Z" fill="#444443"/>
<path fill-rule="evenodd" clip-rule="evenodd" d="M29.6281 48.4101C29.5481 48.9201 29.6781 48.7901 29.4581 49.6901C29.2981 50.3501 29.1582 50.7101 28.9182 51.3001C28.8182 51.5601 28.8581 51.6001 28.5581 51.6901C27.7081 51.9501 26.8081 51.9401 25.9381 51.7501C25.2981 51.6201 25.3781 51.5301 25.1881 50.9901C24.6481 49.5101 24.2181 47.6601 25.0581 46.2101C25.4981 45.4501 25.8281 45.2001 27.0181 45.2101C27.4181 45.2101 27.9381 45.2901 28.2981 45.3801C29.1181 45.5801 29.7881 47.2801 29.6281 48.4101ZM30.1982 48.9301C30.1681 49.5101 29.8981 50.4001 29.7081 50.8901C29.6281 51.1101 29.3981 51.6001 29.3581 51.7601C29.3081 51.9701 29.5581 52.3601 29.6881 52.5201C29.9981 52.9301 30.5381 53.3301 31.0381 53.5601C34.8081 55.3201 35.9881 51.8601 35.3281 49.7301C34.8181 48.0801 34.3181 48.7101 35.0281 47.7401C35.5981 46.9701 36.0882 45.8501 36.4182 44.9601C36.8982 43.6801 37.2181 42.0801 35.3481 41.9501C33.2681 41.8001 29.7881 43.9301 29.1081 45.1901C29.4681 45.6601 29.7281 45.8301 29.9881 46.5501C30.0681 46.7701 30.0781 46.9401 30.2181 47.1101C30.5581 46.6501 31.4281 46.0701 32.0481 45.7501C32.4981 45.5201 33.8181 44.8101 34.3381 44.9801C34.4681 45.4001 34.3681 45.4301 33.9981 45.5501C33.3081 45.7601 32.6681 46.0501 32.0581 46.4001C31.0381 46.9901 31.0581 47.1501 30.4881 47.6201C30.1781 47.8801 30.2481 47.8501 30.2481 48.3301C31.0181 48.6201 31.2881 48.8501 31.8081 49.3601C32.3981 49.9301 33.0881 51.5801 32.2981 51.3801C31.9581 51.2901 32.1481 50.8201 31.6581 50.0901C31.3481 49.6001 30.8281 49.1201 30.1982 48.9301ZM25.0781 45.1601C24.8081 44.6001 23.1882 43.3801 22.4482 42.9901C20.2682 41.8301 16.2081 40.6801 17.7781 44.9901C18.1081 45.9001 18.4481 46.6301 18.9381 47.4201L19.4381 48.0801C19.6081 48.3801 19.3382 48.6301 19.1982 48.9001C17.9782 51.1901 19.0281 54.1701 21.4281 54.0401C22.8981 53.9601 25.1781 52.5601 24.7581 51.5801C24.2681 50.4501 24.2381 50.0701 23.9581 48.8401C22.2681 49.6601 22.2382 51.6901 21.9182 51.8101C21.6882 51.9001 21.5381 51.7601 21.5281 51.5501C21.4981 51.0001 22.1682 49.8001 22.3882 49.4901C23.0082 48.6001 23.5481 48.5001 23.9281 48.1801C23.9781 47.2501 24.0581 47.4301 23.4681 46.9501C22.7181 46.3401 21.9181 46.1201 20.9381 45.9901C20.3581 45.9201 19.6481 46.1101 19.8581 45.4301C20.3681 45.2301 21.8381 45.5301 22.3481 45.7001C23.0581 45.9301 23.6881 46.3401 24.1081 46.7301C24.1481 46.6801 24.0981 46.7701 24.1781 46.6201C24.4781 46.0601 24.3181 46.0201 25.0781 45.1601ZM49.9781 30.0701C49.7481 31.9401 49.2481 32.1001 48.6781 33.1901C48.5981 33.3501 48.5081 33.4401 48.4281 33.5501C48.4581 32.6601 48.8482 31.1901 49.1682 30.3101L49.2681 30.0101C49.2781 30.0001 49.2781 29.9801 49.2881 29.9701C49.2981 29.9601 49.3081 29.9401 49.3081 29.9301C49.3081 29.9201 49.3181 29.9001 49.3281 29.8801C49.4181 29.6601 49.4981 29.4901 49.6081 29.2501C49.6681 29.1201 49.6981 29.0401 49.7481 28.9201C49.8981 28.6001 49.9181 28.7301 49.9381 28.7301C50.0281 29.1101 50.0382 29.7001 49.9781 30.0701ZM4.27814 27.6501C4.79814 28.3701 6.06812 32.2201 6.10812 33.3901C5.80812 33.1201 5.55814 32.6301 5.30814 32.2701C4.46814 31.0701 4.08814 29.2201 4.27814 27.6501ZM22.9981 42.6001C23.1581 42.8001 23.4981 42.9601 23.7181 43.1201C23.9781 43.3101 24.1281 43.4301 24.3681 43.6301C24.6481 43.8701 25.3981 44.5301 25.5581 44.8301C25.8581 44.8201 26.1781 44.7101 26.5081 44.6701C28.5781 44.4501 28.1081 45.3801 29.0081 44.3801C31.1081 42.0601 36.8281 39.6501 37.3381 43.0201C39.4781 42.3001 42.9381 39.8701 44.6581 38.1601C45.4981 37.3301 45.8381 36.9201 46.5581 36.0601C47.9081 34.4301 47.5081 34.8801 47.7581 33.2001C47.9281 32.0501 48.2181 31.0101 48.5981 30.0301C48.7081 29.7501 48.7381 29.5101 48.8581 29.2501C49.3881 28.1101 51.0381 25.1401 51.0981 24.4601C50.8181 24.2201 50.7181 24.0401 50.5181 23.8101C50.2881 23.5501 49.9881 23.4901 50.2981 23.0801C50.5981 22.9001 51.0581 23.6101 51.2581 23.8101C51.6881 21.7501 50.2082 19.6801 49.1682 18.3201L48.5081 17.4701C48.0081 16.9001 47.5881 16.4101 47.0481 15.9201C45.9981 14.9701 44.9681 14.0801 43.6281 13.2501C40.0381 11.0201 36.6182 9.88008 32.3882 9.17008C30.2282 8.80008 25.9481 8.54008 23.8581 8.78008C22.5881 8.92008 19.7881 9.24008 18.7481 9.79008C18.2081 9.85008 16.3681 10.6001 15.8581 10.8301C13.1681 12.0201 10.8381 13.3701 8.55814 15.1901C6.94814 16.4701 6.39815 17.1201 5.13815 18.6801C4.98815 18.8701 4.93813 19.0301 4.76813 19.2401C3.62813 20.6601 2.12815 22.7501 3.38815 24.5801C3.56815 24.3801 3.83814 23.8201 4.15814 24.0801C4.47814 24.4601 3.85815 24.8301 3.69815 25.2001C3.91815 25.4701 4.55814 26.6201 4.77814 27.0501C4.90814 27.2901 4.93813 27.4501 5.04813 27.7001C5.99813 29.8301 6.46815 31.2601 6.88815 33.6301C7.04815 34.5401 6.93813 34.6301 7.32812 35.1001C8.12813 36.0701 9.22814 37.2401 10.1581 38.0801C10.3481 38.2501 10.4481 38.4001 10.6581 38.5701L12.1982 39.8801C12.9282 40.4601 15.9081 42.6201 16.8581 42.9201C17.0181 42.6401 16.9781 42.4201 17.2081 42.1201C18.6381 40.1701 22.7981 42.5601 22.9981 42.6001ZM6.17813 16.2601L6.35812 13.0101C6.35812 12.9601 6.36814 12.8301 6.37814 12.7801L6.51813 12.6601C6.52813 12.6801 6.52814 12.7001 6.52814 12.7201L6.80814 15.6201C6.78814 15.8501 6.35813 16.1901 6.17813 16.2601ZM47.3581 11.8101L47.5881 15.3901L47.0781 15.0001L47.3581 11.8101ZM7.35812 15.2001C7.09812 12.8801 6.95813 10.7901 7.01813 8.32008C7.04813 7.11008 7.13813 4.59008 7.58813 3.51008C7.70813 3.21008 7.99814 2.48008 8.21814 2.36008C8.61814 2.13008 9.37813 2.30008 9.73813 2.46008C10.7881 2.94008 11.6382 4.40008 12.1682 5.41008C12.9282 6.87008 13.6481 9.04008 13.7581 10.9801C13.2081 11.3001 12.6081 11.5901 12.0381 11.9201C10.8681 12.5801 8.24812 14.3101 7.35812 15.2001ZM40.9981 6.66008C41.2081 5.71008 42.6782 3.28008 43.1982 2.89008L43.2581 2.82008C43.7381 2.30008 44.4081 1.95008 45.1581 2.02008C45.9081 2.09008 45.8482 2.42008 46.3882 3.61008C46.5982 4.07008 46.6781 5.50008 46.7081 6.12008C46.7281 6.41008 46.7881 6.49008 46.8081 6.76008C46.8381 7.03008 46.6981 8.18008 46.8681 8.78008C46.7481 9.38008 46.8181 10.9501 46.7781 11.6901C46.7281 12.6401 46.6281 13.5501 46.5481 14.4901C46.3381 14.3801 46.1681 14.2101 45.9881 14.0601C45.7581 13.8801 45.6081 13.7701 45.3981 13.6101C44.2581 12.7501 42.8781 11.9101 41.5681 11.2701L40.0881 10.5301C40.2281 9.93008 40.3281 9.08008 40.4381 8.46008C40.4881 8.18008 40.8881 6.82008 40.9981 6.66008ZM14.2281 10.3401C14.0881 9.28008 13.9881 8.73008 13.6781 7.65008C13.3981 6.69008 13.0281 5.89008 12.6081 5.07008C11.9381 3.74008 11.6681 3.57008 10.9281 2.63008C10.1981 1.70008 8.96815 1.77008 8.78815 1.58008C9.93815 0.840082 10.9581 2.01008 11.6181 2.81008C12.3681 3.72008 13.1282 5.15008 13.6982 6.19008L15.7381 10.0501C15.6181 10.1901 14.6081 10.6301 14.3681 10.7101C14.2681 10.6101 14.2581 10.5801 14.2281 10.3401ZM42.9482 2.29008C42.5382 2.75008 42.0781 3.32008 41.7281 3.89008C41.5481 4.18008 41.3681 4.46008 41.2181 4.77008C41.0881 5.02008 40.8181 5.44008 40.7881 5.71008C40.4881 6.36008 40.2081 7.16008 39.9981 7.90008C39.7281 8.86008 39.7181 9.58008 39.5981 10.1001C39.5081 10.5001 39.5881 10.2501 39.4581 10.3401L38.0881 9.85008C38.2081 9.44008 38.4981 9.04008 38.6982 8.70008L40.5281 5.35008C40.5981 5.02008 41.3681 3.82008 41.5781 3.51008C41.7681 3.22008 41.9881 2.91008 42.1881 2.67008C42.3181 2.50008 42.7681 2.04008 42.7981 1.95008L43.0381 1.72008C43.1481 1.62008 43.1381 1.62008 43.2481 1.53008C44.1081 0.860082 44.5581 1.17008 45.0381 1.33008C44.8381 1.53008 44.7482 1.44008 44.3882 1.53008C44.2282 1.57008 43.9881 1.65008 43.8281 1.72008C43.2981 1.96008 43.1581 2.17008 42.9482 2.29008ZM0.578125 80.9601L1.30814 80.9801C1.38814 78.5101 2.28814 69.0601 2.55814 66.6201C2.82814 64.2001 3.13812 61.8101 3.57812 59.4601C3.95813 57.4101 4.34813 55.6001 4.86813 53.6101C4.94813 53.3101 4.95813 53.0301 5.04813 52.7401C5.55813 51.1301 5.95814 49.6901 6.55814 48.1001L7.16815 46.6301C7.42815 45.5701 9.66813 41.1701 10.4281 39.9601L10.5881 39.7501C11.0081 40.0601 11.3081 40.4101 11.7281 40.7301C13.0681 41.7701 14.5581 42.9401 16.1281 43.7001C17.1981 44.2201 16.8081 43.9801 17.0981 44.8101C17.4281 45.7701 18.2881 47.7301 18.8681 48.3001C18.3181 49.5601 17.6781 50.7401 18.3981 52.5101L19.0681 53.6101C19.0781 53.6201 19.0981 53.6401 19.1081 53.6501C19.2081 53.9901 19.9981 54.4501 20.5081 54.5701C22.1481 54.9501 24.6581 53.8301 25.3181 52.2501C25.8581 52.2801 26.3781 52.4801 27.0581 52.4901C27.8181 52.4901 28.2081 52.3401 28.8681 52.2401C28.9981 52.6401 29.5781 53.2701 29.8381 53.4901C30.3281 53.9001 30.7181 54.0401 31.2481 54.3101C32.1381 54.4901 32.8482 54.8701 33.8882 54.5101C35.3982 53.9801 36.2181 52.0201 36.0781 50.6001C35.9781 49.5401 35.6681 49.0801 35.3181 48.3301C35.4481 48.1001 35.6282 48.0301 35.6382 47.6801C35.7282 47.6101 35.6681 47.6701 35.7881 47.6701C36.2481 46.6801 36.7982 45.9701 37.1682 44.5701C37.3982 43.7101 37.0281 44.0501 38.2481 43.4401C38.7681 43.1801 39.2481 42.9501 39.7281 42.6601C40.7182 42.0801 41.6181 41.5501 42.4581 40.9301L44.9482 38.8901C45.1882 39.5501 46.4381 41.8401 46.4581 42.4001C46.7881 42.7801 48.5081 47.9601 48.7081 49.1801L48.8581 49.6201C48.8681 49.6301 48.8781 49.6501 48.8781 49.6601C48.8881 50.1101 49.4782 52.1801 49.6382 52.7801C49.9082 53.8201 50.1181 54.9201 50.3281 55.9801C50.7481 58.0901 51.2381 60.5001 51.4781 62.6601C51.5582 62.7601 51.5481 62.7701 51.5481 62.9501C51.5581 63.5001 51.5882 63.4801 51.6682 64.0501C52.1182 67.2601 53.4381 77.7601 53.7081 80.9201H54.3481C54.3581 80.9101 54.3581 80.8701 54.3581 80.8801L54.3882 80.5901C54.4782 79.9101 53.1581 69.8501 53.0481 68.9301C52.3181 62.7201 51.0281 54.1701 49.2081 48.2301L48.6181 46.0901C47.9581 44.0001 47.2281 42.1301 46.3581 40.1701C46.1581 39.7201 45.5781 38.6401 45.4981 38.2601C45.7681 38.0701 46.3381 37.4501 46.5581 37.1801L49.3181 33.5601C50.3981 32.0201 50.9681 30.6801 50.6781 28.6001C50.6381 28.3201 50.5381 27.9601 50.5081 27.7101C50.4381 26.9301 53.2781 24.1701 51.3081 20.3701C50.6081 19.0201 49.9981 18.2401 49.1081 17.1701C49.0081 17.0501 48.9581 17.0201 48.8581 16.9001C48.0481 15.8301 48.1781 16.2701 48.1181 15.0201C48.0181 13.2401 47.4781 4.92008 46.9081 3.42008C46.5181 2.39008 45.9581 1.30008 45.2381 0.860082C42.7081 -0.669918 40.0281 4.93008 39.0381 6.91008L37.5181 9.65008C36.7581 9.51008 35.8581 9.17008 35.0381 8.98008C34.6481 8.89008 34.1282 8.84008 33.6982 8.75008C29.0582 7.85008 24.4681 7.57008 19.8581 8.78008C19.4081 8.90008 19.0381 8.95008 18.5981 9.08008L16.2781 9.87008L14.7381 7.00008C13.4581 4.65008 13.4581 4.28008 11.8381 2.24008C11.4481 1.74008 10.6881 1.05008 9.95813 0.870082C8.21813 0.440082 7.05813 2.83008 6.79813 4.12008C6.22813 6.95008 5.83813 13.1601 5.67813 16.0601C5.59813 17.5101 5.72813 16.7801 5.07812 17.6601C4.88812 17.9101 4.81813 18.0501 4.61813 18.3001C4.44813 18.5101 4.30815 18.7001 4.13815 18.9201C1.23815 22.6401 2.02815 23.5501 3.66815 26.4301C3.84815 26.7401 3.55815 27.7401 3.53815 28.2401C3.46815 29.8601 3.89815 31.3201 4.69815 32.5401C4.77815 32.6601 4.86814 32.7601 4.93814 32.8801C5.78814 34.3101 6.41815 35.0301 7.44815 36.3401C7.85815 36.8601 9.51814 38.7201 10.0581 39.1201C9.96814 39.4601 9.26813 40.5201 9.04813 40.9401C7.59813 43.6401 6.72815 45.6301 5.66815 48.5301C5.47815 49.0601 5.08814 50.0701 4.99814 50.5901C4.89814 51.1701 4.59813 52.1401 4.39813 52.7201C4.17813 53.3601 3.98813 54.2101 3.83813 54.8901C2.35813 61.1001 0.948125 74.3101 0.578125 80.9601Z" fill="#271109"/>
</svg>
