<?xml version="1.0" encoding="UTF-8"?>
<svg id="_Слой_2" data-name="Слой 2" xmlns="http://www.w3.org/2000/svg" viewBox="0 0 90.8 65.38">
  <defs>
    <style>
      .cls-1 {
        fill: #414042;
        fill-rule: evenodd;
      }
    </style>
  </defs>
  <g id="_Слой_1-2" data-name="Слой 1">
    <path class="cls-1" d="M29.55,29.16c4.87-.88,8.57,2.93,9.15,7.03,.71,5-2.4,9.23-6.44,9.98-4.9,.9-8.56-2.92-9.22-7.01-.82-5.1,2.43-9.26,6.5-10h0Zm28.43-.01c4.94-.93,8.55,3.09,9.12,7.3,.67,4.97-2.56,9.01-6.55,9.74-4.93,.91-8.56-3.1-9.16-7.27-.71-4.98,2.52-9,6.58-9.77h0ZM0,50.33v3.36c1.32,1.36,1.28,2.2,4.14,4.52,4.5,3.65,8.82,5.73,14.78,6.69,.87,.14,3.34,.3,3.88,.47h.96c.24-.47,.9-1.13,1.27-1.61,.72-.96,3.45-4.14,3.83-4.84-4.31-1.68-7.34-2.76-10.68-5.96-.7-.67-2.16-1.98-2.66-2.99,.94,.35,2.07,1.23,3.02,1.72,13.5,7.1,29.05,9.08,43.8,4.44,3.99-1.26,8.22-3.04,11.79-5.16,.59-.35,.97-.67,1.6-.93-.89,1.81-4.01,4.28-5.93,5.52-2.59,1.67-4.67,2.37-7.84,3.51,.28,.55,.81,1.03,1.2,1.56l3.82,4.74h1.69c.91-.4,2.48-.35,3.6-.54,3.23-.54,6.71-1.72,9.47-3.24,2.96-1.63,6.08-4.03,8.14-6.69,.35-.46,.58-.84,.94-1.22v-3.35c-.18-.61-.26-3.79-.36-4.79-.95-10.1-3.36-19.62-7.01-28.95-.96-2.44-2.03-4.92-3.14-7.16-.37-.74-.45-1.13-1.02-1.55l-4.71-3.01c-2.18-1.24-4.59-2.27-7.17-3.12-3.87-1.28-7.75-1.53-8.45-1.77h-1.24c-.3,.49-.57,.56-.91,1.21,.63,.4,4.18,1.48,5.2,1.88,3.55,1.38,11.78,5.4,13.53,7.69-.82-.24-2.4-1.16-3.31-1.58-8.44-3.9-18.09-6.2-27.57-5.93-9.01,.25-19.49,1.92-27.52,5.99-.81,.41-2.42,1.28-3.25,1.53l.32-.37c.1-.1,.15-.13,.25-.21l1.57-1.15c3.29-2.36,8.38-4.83,12.2-6.26,1.16-.44,4.68-1.42,5.52-1.91l-.64-.88h-1.23c-.72,.24-4.52,.48-8.44,1.77-3.8,1.25-7.19,2.93-10.36,5.08-1.9,1.28-1.72,.94-2.54,2.6C5.24,20.01,1.44,33.58,.35,45.59c-.09,.95-.18,4.19-.35,4.75Z"/>
  </g>
</svg>