<?xml version="1.0" encoding="UTF-8"?>
<svg id="_Слой_2" data-name="Слой 2" xmlns="http://www.w3.org/2000/svg" viewBox="0 0 123.11 124.51">
  <defs>
    <style>
      .cls-1 {
        fill: #94C37F;
        fill-rule: evenodd;
        stroke: #231f20;
        stroke-linecap: round;
        stroke-linejoin: round;
        stroke-width: 3.98px;
      }
    </style>
  </defs>
  <g id="_Слой_1-2" data-name="Слой 1">
    <path class="cls-1" d="M68.76,35.16c.9-15.31-2.53-26.73-13.69-31.18-9.21-4.15-15.91-1.8-20.08,7.08-3.86,11.82-1.79,22.67,5.99,32.57-6.83-7.16-13.34-9.91-19.4-8.6C1.23,39.41-4.06,49.64,9.46,63.2c7.54,7.56,16.5,8.69,25.44,5.59-11.56,5.72-18.22,13.61-19.19,24.02-.45,12.32,6.02,18.08,22.37,14.45,8.13-1.8,12.23-8.72,14.59-17.86-1.65,8.24-.6,15.99,4.34,23.07,13.38,16.47,23.39,13.34,29.24-14.01,.83-6.59-2.08-11.7-7.24-15.9,7.38,5.97,14.83,8.66,22.39,5.76,21.19-8.6,26.77-18.28,9.48-29.56-7.6-5.03-15.84-6.11-24.6-3.94,5.15-3.54,13.57-4.67,15.44-10.63,7.33-23.46-6.12-34.34-25.22-23.02-4.59,2.72-5.16,9.34-7.73,14.01Z"/>
  </g>
</svg>