<?xml version="1.0" encoding="UTF-8"?>
<svg id="_Слой_2" data-name="Слой 2" xmlns="http://www.w3.org/2000/svg" viewBox="0 0 257.96 244.19">
  <defs>
    <style>
      .cls-1 {
        fill: #ef5c2b;
        fill-rule: evenodd;
        stroke: #231f20;
        stroke-linecap: round;
        stroke-linejoin: round;
        stroke-width: 9.41px;
      }
    </style>
  </defs>
  <g id="_Слой_1-2" data-name="Слой 1">
    <path class="cls-1" d="M154.41,108.13c25.62-7.55,52.15-8.32,79.84-.5,30.35,8.32,23.59,56.92-14.76,56.44-20.47-4.07-42.41-13.79-65.67-28.6,16.25,17.21,30.92,35.38,37.44,57.01,13.83,45.85-43.86,67.68-57.21,21.04-2-8.97-3.09-17.78-3.51-26.46-3.71,12-9.13,23.72-16.45,35.13-16.79,26.62-61.32,6.02-49.71-30.54,4.24-7.92,9.55-15.79,15.9-23.62-4.12,2.49-8.37,4.68-12.76,6.56-38,18.98-64.37-27.5-19.15-43.11,1.05-.44,2.1-.86,3.15-1.28-6.31-.23-12.7-.84-19.21-1.91C-15.02,117.59,3.53,58.76,50.09,69.99c21.97,5.3,40.93,18.93,59.03,34.18-16.08-22.39-27.02-43.75-32.24-63.96C74.24,1.95,122.39-7.52,132.4,22.31c6.01,17.47,8.46,34.67,7.83,51.63,4.6-11.69,10.5-22.34,18.16-31.6,25.05-34.31,69.81-5.11,36.8,29.51-11.92,14.14-25.54,26.19-40.78,36.28Z"/>
  </g>
</svg>