<svg width="461" height="66" viewBox="0 0 461 66" fill="none" xmlns="http://www.w3.org/2000/svg">
<path fill-rule="evenodd" clip-rule="evenodd" d="M0 14.3199C1.52 14.4499 3 14.8799 4.32 15.6299C7.94 17.6899 10.07 21.9999 9.49 26.0699C9.81 22.7699 12.42 19.8099 15.69 19.0299C18.96 18.2499 22.67 19.7099 24.49 22.4899C21.99 19.0099 22.84 13.6299 26.31 11.0599C29.77 8.48988 35.27 9.14988 38 12.4699C37.66 8.00988 41.82 3.71987 46.38 3.84987C50.94 3.97988 54.84 8.48987 54.24 12.9299C55.79 8.85987 61.49 6.99987 65.21 9.33987C68.93 11.6799 69.59 17.5499 66.48 20.6299C71.13 18.7399 76.45 25.1199 73.65 29.2199C76.96 25.3699 79.64 26.4599 82.4 28.1499C81.26 24.5999 84.98 20.6099 87.88 20.0099C92.4 18.9299 97.53 21.4099 99.42 25.5899C97.94 21.1699 100.81 15.8299 105.36 14.5299C109.9 13.2299 115.24 16.2199 116.41 20.7299C116.48 16.9799 121.2 14.1399 124.63 15.7899C128.06 17.4399 128.69 22.8399 125.72 25.1999C127.41 22.7499 131.23 22.0299 133.72 23.6999C136.21 25.3699 136.94 29.1099 135.24 31.5599C137.63 29.2299 141.56 28.5899 144.59 30.0299C147.62 31.4699 149.54 34.8999 149.16 38.1899C152.28 35.2199 158.35 36.5199 159.93 40.4899C157.29 38.6299 156.73 34.4999 158.78 32.0199C160.83 29.5499 165.06 29.2499 167.45 31.3999C166.2 27.9599 167.88 23.7499 171.17 22.0599C174.46 20.3699 178.95 21.4299 181.1 24.3999C178.48 20.2899 179.78 14.2499 183.86 11.5299C187.94 8.80988 194.13 9.85988 197.05 13.7599C201.15 8.84988 210.8 11.0299 212.3 17.2099C212.51 13.6299 215.65 10.4299 219.29 10.0999C222.93 9.76988 226.61 12.3599 227.48 15.8499C227.07 12.0699 229.68 8.17987 233.38 7.06987C237.08 5.94987 241.46 7.73987 243.28 11.0899C243.48 6.80987 246.57 2.80988 250.71 1.46988C254.85 0.129876 259.76 1.53988 262.51 4.85988C264.68 3.00988 267.42 2.31987 270.21 2.51987C273 2.31987 275.74 3.00988 277.91 4.85988C280.66 1.53988 285.58 0.129876 289.71 1.46988C293.85 2.80988 296.94 6.81987 297.14 11.0899C298.96 7.72987 303.34 5.94987 307.04 7.06987C310.74 8.17987 313.35 12.0699 312.94 15.8499C313.81 12.3599 317.49 9.77988 321.13 10.0999C324.77 10.4299 327.92 13.6199 328.12 17.2099C329.62 11.0299 339.27 8.84988 343.37 13.7599C346.29 9.84988 352.48 8.80988 356.56 11.5299C360.64 14.2499 361.93 20.2899 359.32 24.3999C361.47 21.4299 365.96 20.3699 369.25 22.0599C372.54 23.7499 374.22 27.9699 372.98 31.3999C375.37 29.2399 379.6 29.5399 381.65 32.0199C383.7 34.4899 383.14 38.6299 380.5 40.4899C382.08 36.5199 388.16 35.2199 391.27 38.1899C390.89 34.8999 392.81 31.4799 395.84 30.0299C398.87 28.5899 402.8 29.2299 405.19 31.5599C403.49 29.1099 404.21 25.3599 406.71 23.6999C409.2 22.0299 413.02 22.7499 414.71 25.1999C411.74 22.8399 412.36 17.4399 415.8 15.7899C419.23 14.1399 423.95 16.9799 424.02 20.7299C425.19 16.2199 430.53 13.2299 435.07 14.5299C439.61 15.8299 442.48 21.1699 441 25.5899C442.89 21.4099 448.02 18.9299 452.54 20.0099C455.43 20.5999 459.16 24.5999 458.02 28.1499C458.95 27.5799 459.87 27.0799 460.81 26.8099V65.1399H270.2H0V14.3199Z" fill="#90C17A"/>
</svg>
