<svg width="461" height="143" viewBox="0 0 461 143" fill="none" xmlns="http://www.w3.org/2000/svg">
<path fill-rule="evenodd" clip-rule="evenodd" d="M270.2 13.42C268.68 13.55 267.2 13.98 265.88 14.73C262.26 16.79 260.13 21.1 260.71 25.17C260.39 21.87 257.78 18.91 254.51 18.13C251.23 17.35 247.53 18.81 245.71 21.59C248.21 18.11 247.36 12.73 243.89 10.16C240.43 7.58997 234.93 8.24997 232.2 11.57C232.54 7.10997 228.38 2.81997 223.82 2.94997C219.26 3.07997 215.36 7.58998 215.96 12.03C214.41 7.96998 208.71 6.09998 204.99 8.43998C201.27 10.78 200.61 16.65 203.72 19.73C199.07 17.84 196.32 23.4 196.55 28.32C195.88 23.53 190.56 21.83 187.8 23.52C188.94 19.97 185.22 15.97 182.32 15.38C177.8 14.3 172.67 16.78 170.78 20.96C172.26 16.54 169.39 11.2 164.85 9.89997C160.31 8.59997 154.97 11.59 153.8 16.1C153.73 12.35 149.01 9.50997 145.58 11.16C142.15 12.81 141.52 18.21 144.49 20.57C142.8 18.12 138.98 17.4 136.49 19.07C134 20.74 133.27 24.48 134.97 26.93C132.58 24.6 128.65 23.96 125.62 25.4C122.59 26.84 120.67 30.27 121.05 33.56C117.93 30.59 111.86 35.62 110.28 39.59C112.92 37.73 113.48 33.6 111.43 31.12C109.38 28.65 105.15 28.35 102.76 30.5C104.01 27.06 102.33 22.85 99.04 21.16C95.75 19.47 91.26 20.53 89.11 23.5C91.73 19.39 90.43 13.35 86.35 10.63C82.27 7.90997 76.08 8.95997 73.16 12.86C69.06 7.94997 59.41 10.13 57.91 16.31C57.7 12.73 54.56 9.52997 50.92 9.19997C47.28 8.86997 43.6 11.46 42.73 14.95C43.14 11.17 40.53 7.27998 36.83 6.16998C33.13 5.04998 28.75 6.83998 26.93 10.19C26.73 5.90998 23.64 1.90997 19.5 0.569973C15.36 -0.770027 10.45 0.639976 7.7 3.95998C5.53 2.10998 2.79 1.41998 0 1.61998V142.68H270.2H460.8V9.22997C458.46 8.89997 456.01 9.32997 454.05 10.64C449.97 13.36 448.68 19.4 451.29 23.51C449.14 20.54 444.65 19.48 441.36 21.17C438.07 22.86 436.39 27.08 437.64 30.51C435.25 28.35 431.02 28.65 428.97 31.13C426.92 33.6 427.48 37.74 430.12 39.6C428.54 35.63 422.46 30.6 419.35 33.57C419.73 30.28 417.81 26.86 414.78 25.41C411.75 23.97 407.82 24.61 405.43 26.94C407.13 24.49 406.41 20.74 403.91 19.08C401.42 17.41 397.6 18.13 395.91 20.58C398.88 18.22 398.26 12.82 394.82 11.17C391.39 9.51998 386.67 12.36 386.6 16.11C385.43 11.6 380.09 8.60997 375.55 9.90997C371.01 11.21 368.14 16.55 369.61 20.97C367.72 16.79 362.59 14.31 358.07 15.39C355.18 15.98 351.45 19.98 352.59 23.53C349.83 21.84 344.51 23.54 343.84 28.33C344.07 23.4 341.32 17.85 336.67 19.74C339.78 16.66 339.12 10.79 335.4 8.44997C331.68 6.10997 325.97 7.97997 324.43 12.04C325.03 7.59997 321.12 3.08998 316.57 2.95998C312.02 2.82998 307.85 7.11998 308.19 11.58C305.46 8.25998 299.97 7.59998 296.5 10.17C293.04 12.74 292.18 18.12 294.68 21.6C292.86 18.81 289.16 17.36 285.88 18.14C282.61 18.92 280 21.88 279.68 25.18C280.26 21.11 278.12 16.8 274.51 14.74C273.2 13.97 271.72 13.54 270.2 13.42Z" fill="#5A8741"/>
</svg>
