<?xml version="1.0" encoding="UTF-8"?>
<svg id="_Слой_2" data-name="Слой 2" xmlns="http://www.w3.org/2000/svg" viewBox="0 0 379.15 215.15">
  <defs>
    <style>
      .cls-1 {
        fill: #90c17a;
        fill-rule: evenodd;
      }
    </style>
  </defs>
  <g id="_Слой_1-2" data-name="Слой 1">
    <path class="cls-1" d="M0,17.28c1.96,.16,3.89,.72,5.59,1.7,4.68,2.66,7.45,8.25,6.7,13.52,.41-4.27,3.79-8.1,8.03-9.11,4.24-1.01,9.03,.88,11.39,4.48-3.24-4.51-2.13-11.47,2.35-14.8,4.48-3.33,11.6-2.47,15.13,1.83-.44-5.78,4.95-11.33,10.84-11.16,5.9,.17,10.96,6,10.18,11.75,2-5.26,9.39-7.68,14.21-4.65,4.82,3.03,5.67,10.63,1.65,14.62,6.02-2.45,12.91,5.81,9.28,11.12,4.29-4.99,7.75-3.58,11.33-1.39-1.48-4.59,3.34-9.77,7.09-10.53,5.86-1.4,12.5,1.82,14.94,7.23-1.91-5.72,1.8-12.64,7.68-14.32,5.88-1.68,12.79,2.19,14.31,8.03,.09-4.86,6.2-8.53,10.65-6.4,4.45,2.13,5.25,9.12,1.41,12.18,2.19-3.18,7.13-4.1,10.36-1.94,3.23,2.16,4.16,7.01,1.96,10.18,3.1-3.02,8.18-3.84,12.11-1.98,3.92,1.87,6.41,6.3,5.92,10.56,4.04-3.85,11.9-2.17,13.95,2.98-3.42-2.41-4.14-7.76-1.49-10.96,2.65-3.2,8.14-3.59,11.23-.8-1.62-4.45,.56-9.91,4.82-12.1,4.26-2.18,10.07-.81,12.86,3.03-3.39-5.32-1.71-13.14,3.57-16.66,5.28-3.52,13.3-2.17,17.08,2.89,5.31-6.36,17.8-3.54,19.75,4.46,.27-4.64,4.34-8.78,9.06-9.2,4.71-.42,9.48,2.92,10.6,7.44-.53-4.89,2.85-9.93,7.64-11.37,4.79-1.44,10.46,.86,12.81,5.21,.26-5.54,4.26-10.72,9.62-12.46,5.36-1.74,11.72,.09,15.28,4.39,2.81-2.39,6.35-3.28,9.97-3.03,3.61-.26,7.16,.63,9.97,3.03,3.57-4.3,9.92-6.12,15.28-4.38,1.47,.48,2.83,1.21,4.04,2.14V215.15H0V17.28Z"/>
  </g>
</svg>