<?xml version="1.0" encoding="UTF-8"?>
<svg id="_Слой_2" data-name="Слой 2" xmlns="http://www.w3.org/2000/svg" viewBox="0 0 65.63 65.63">
  <defs>
    <style>
      .cls-1 {
        fill: #ffffff;
        fill-rule: evenodd;
      }
    </style>
  </defs>
  <g id="_Слой_1-2" data-name="Слой 1">
    <path class="cls-1" d="M4.61,0H61.01c2.54,0,4.61,2.08,4.61,4.61V61.01c0,2.54-2.08,4.62-4.61,4.62H4.61c-2.54,0-4.61-2.08-4.61-4.62V4.61C0,2.08,2.08,0,4.61,0h0Zm4.95,56.06h9.58V24.61H9.61l-.05,31.45h0Zm24.1-27.05l-.03-4.41h-9.02c0,1.59-.15,30.69,.08,31.45h9.44c.19-1,.05-12.72,.05-14.79,0-2.38,.08-4.54,1.29-6.2,2.3-3.17,7.63-3.9,9.84-.27,1.19,1.95,1.17,3.7,1.17,6.21v15.04h9.6c-.02-4.97-.02-9.94-.02-14.92,0-5.28,.22-8.64-2.42-12.5-3.86-5.65-12.21-6.3-18.25-1.58-1.12,.88-1.46,1.78-1.74,1.95h0ZM13.4,8.76c-7.3,1.32-5.43,12.33,2.06,11.04,2.76-.48,4.98-3.15,4.41-6.49-.47-2.74-3.17-5.15-6.48-4.55Z"/>
  </g>
</svg>