<?xml version="1.0" encoding="UTF-8"?>
<svg id="_Слой_2" data-name="Слой 2" xmlns="http://www.w3.org/2000/svg" viewBox="0 0 65.63 65.64">
  <defs>
    <style>
      .cls-1 {
        fill: #ffffff;
        fill-rule: evenodd;
      }
    </style>
  </defs>
  <g id="_Слой_1-2" data-name="Слой 1">
    <g>
      <path class="cls-1" d="M25.42,8.49c3.98-.13,8.12-.06,12.12-.04,7.15,.04,13.69,.01,17.65,6.81,1.64,2.82,1.87,6.48,1.97,10.17,.11,4.01,.06,8.13,.04,12.15-.03,3.7,.02,7.65-1.17,10.92-1.08,2.97-3.23,5.36-5.6,6.64-3.18,1.72-6.1,1.89-10.14,1.99-4.04,.1-8.15,.06-12.2,.04-7.19-.05-13.77-.08-17.65-6.81-1.65-2.86-1.87-6.48-1.97-10.2-.1-4.01-.06-8.11-.04-12.13,.02-3.71-.01-7.66,1.17-10.92,1.12-3.08,3.18-5.21,5.61-6.63,2.86-1.68,6.46-1.86,10.21-1.98h0Zm40.1,43.01c.2-2.46,.06-5.61,.07-8.16V18.77c-.04-5.88-.14-9.39-3.15-13.26C57.73-.54,50.72,.01,43.31,.01l-24.57,.02c-5.82,.03-9.28,.18-13.2,3.15C2.8,5.25,.45,8.97,.12,14.09-.05,16.75,.01,19.58,0,22.26l.02,24.57c.02,5.89,.18,9.32,3.16,13.26,1.02,1.35,2.7,2.85,4.53,3.73,2.13,1.03,3.75,1.45,6.46,1.67,2.58,.22,5.52,.11,8.14,.12h24.57c5.76-.03,9.37-.26,13.21-3.19,2.8-2.15,4.99-5.72,5.42-10.92Z"/>
      <path class="cls-1" d="M31.98,20.33c7.16-.5,12.84,5.01,13.32,11.57,.52,7.19-4.99,12.93-11.59,13.39-7.19,.5-12.94-5-13.39-11.59-.5-7.24,5.01-12.91,11.66-13.37h0Zm13.95-3.36c-1.61,0-2.92,1.29-2.92,2.89s1.31,2.89,2.92,2.89,2.92-1.29,2.92-2.89-1.31-2.89-2.92-2.89h0Zm-20.97-4.09c-2.98,.09-6.2,.31-8.23,1.8-1.84,1.34-3.12,3.15-3.6,6.36-.48,3.23-.37,15.93-.25,19.72,.1,3.16,.26,5.86,1.81,8.12,1.23,1.8,3.29,3.17,6.45,3.6,3.38,.46,15.7,.36,19.57,.24,5.8-.18,10.76-1.11,11.78-8.15,.48-3.31,.38-15.9,.25-19.72-.11-3.2-.24-5.82-1.82-8.12-3.19-4.65-10.35-3.88-16.08-3.89-3.29,0-6.6-.04-9.89,.05Z"/>
      <path class="cls-1" d="M24.71,33.5c.31,4.23,4.11,7.77,8.73,7.41,4.28-.33,7.79-4.03,7.48-8.71-.29-4.27-4.06-7.87-8.76-7.49-4.31,.35-7.79,4.03-7.45,8.78Z"/>
    </g>
  </g>
</svg>