<?xml version="1.0" encoding="UTF-8"?>
<svg id="_Слой_2" data-name="Слой 2" xmlns="http://www.w3.org/2000/svg" viewBox="0 0 397.35 178.02">
  <defs>
    <style>
      .cls-1 {
        fill: #424243;
        fill-rule: evenodd;
      }
    </style>
  </defs>
  <g id="_Слой_1-2" data-name="Слой 1">
    <path class="cls-1" d="M343.23,120.75c-2.11,5.24-3.29,10.72-4.15,15.88,3.91-.16,8.45-.47,12.36-.23-3.52,13.27-6.65,28.1-9.86,40.37,4.69-.39,10.25-.55,14.94-.16,3.44-12.73,8.06-27.49,11.74-40.29,4.22-.23,8.45-.08,12.13,.08,1.09-5.24,2.74-10.72,4.38-16.27-13.77-.78-28.95-.39-41.54,.63h0Zm-35.28,32.94c3.52-6.49,7.12-13.61,11.11-20.19,.39,6.65,.78,13.85,.7,20.34-4.22-.39-7.82-.31-11.81-.16h0Zm-9.08,22.61c1.72-2.89,3.13-5.87,4.62-8.68,5.32-.39,9.54-.39,14-.55-.08,3.29-.16,6.73-.39,9.94,4.69-.55,9.94-.39,14.63-.23,.86-18.31,.39-38.02,.23-57.03-6.89-.23-13.46-.23-20.89,.94-9.31,17.99-18.07,37.55-26.29,55.62,4.38-.39,9.15-.39,14.08,0h0Zm-9.7-38.02c-13.14-3.91-27.46,3.99-29.96,17.84-.55,3.52,1.02,7.59,5.48,8.68,5.08,1.02,10.33,.78,20.97-4.38-2.58,6.57-3.6,8.76-7.35,14.63-3.83,2.03-8.68,2.82-12.36,2.97-14.94,.16-23.78-10.25-22.06-24.17,1.95-15.41,13.22-27.62,26.91-31.68,9.08-2.66,18.31-2.03,24.96-1.17-3.21,8.37-4.15,10.25-6.57,17.29Z"/>
    <path class="cls-1" d="M30.67,48.05c-5.48-.31-11.66-.31-17.06,.55C8.37,67.77,3.99,86.78,0,104.61c4.54-.31,9.78-.55,14.63-.16,1.64-5.95,3.21-11.89,4.77-17.91,4.15-.08,9.31-.23,13.38-.08-1.41,5.71-2.66,11.97-3.99,17.68,4.69-.16,9.62-.55,14.4,0,5.01-18.93,9.78-36.77,15.8-55.63-5.48-.39-10.64-.55-16.04,.31-2.19,7.28-4.15,14.32-6.02,21.44-3.76,.08-8.68,.31-13.06,.63,2.19-7.43,4.38-15.33,6.81-22.84h0Zm56.49,16.59c6.42,0,9,5.87,7.28,13.06-1.8,7.43-8.14,14-14.08,14.24-5.87,.16-8.68-6.81-6.88-13.38,1.72-7.12,6.81-13.93,13.69-13.93h0Zm4.22-17.92c16.27-.16,23.47,12.28,19.87,28.71-3.99,18.31-16.9,30.67-34.74,30.67-15.02,0-21.75-13.14-18.85-28.63,3.76-20.03,17.84-30.59,33.72-30.75h0Zm17.21,57.82c4.93-.31,9.47-.47,14.4,.08,3.29-8.45,6.02-17.37,10.87-27.46,0,8.45,.47,18.7,1.33,27.23,3.6-.31,4.54-.31,8.53-.08,5.32-8.68,10.25-18.39,15.18-27.3-.55,8.06-1.02,19.32-1.41,27.54,5.01-.24,9.15-.47,14.08-.31,1.88-17.13,4.22-37.71,6.42-55.55-6.34-.47-9.7-.47-15.96,.39-4.62,7.43-9.23,16.66-13.93,24.1-.78-7.43-1.41-17.21-1.88-24.57-5.71-.39-10.33-.47-16.12,.08-8.61,18.54-14.32,35.83-21.51,55.86h0Zm91.06-31.76c5.24-.77,13.69-.7,18.39-.55-1.09,3.99-2.03,6.96-3.44,10.95-4.62-.31-13.61-.23-18.15,.08-.78,2.74-1.64,5.24-2.5,7.98,5.09,0,14.32-.31,20.11-1.02-1.88,4.85-3.83,9.31-6.34,14.08-10.33,.63-24.02,.39-31.37,.39,4.54-18.46,8.53-36.03,14.86-55.39,10.8-1.64,26.44-1.8,37.16-1.49-2.03,5.09-4.15,10.56-6.1,15.73-5.16-.23-14.32,0-19.87,.53-.94,2.8-1.88,5.83-2.74,8.7Z"/>
    <path class="cls-1" d="M237.29,90.92c4.77-14.4,8.53-25.27,16.04-43.5-6.65-.16-12.05,.08-18.7,1.25-6.41,19.79-10.8,37.08-15.49,55.94,7.59,0,20.89,0,31.45-.7,2.66-4.85,4.62-9.62,6.49-14.4-5.87,.7-14.71,1.41-19.79,1.41Z"/>
    <path class="cls-1" d="M281.64,72.77c.86-2.87,1.8-5.89,2.74-8.7,1.97-.19,4.4-.34,6.94-.45h.09s.13,0,.13,0h.21s0,0,0,0h.22s.11-.01,.11-.01h.11s.22-.01,.22-.01h.02s.2,0,.2,0h.14s.08,0,.08,0h.22s.04,0,.04,0h.18s.16-.01,.16-.01h.06s.22,0,.22,0h.06s.16,0,.16,0h.18s.04,0,.04,0h.22s.08,0,.08,0h.14s.2,0,.2,0h.02s.22,0,.22,0h.1s.11,0,.11,0h.22s0,0,0,0h.21s.13,0,.13,0h.09s.22,0,.22,0h.03s.19,0,.19,0h.15s.07,0,.07,0h.22s.05,0,.05,0h.17s.17,0,.17,0h.05s.21,0,.21,0h.07s.14,0,.14,0h.19s.02,0,.02,0h.21s.09,0,.09,0h.12s.21,0,.21,0h.21s.11,0,.11,0h.1s.21,0,.21,0h.21s.13,0,.13,0h.63s.05,0,.05,0h.2s.06,0,.06,0h.14s.16,0,.16,0h.03s.19,0,.19,0h.08s.12,0,.12,0h.18s.01,0,.01,0h.19s.09,0,.09,0h.1s.19,0,.19,0h0s.18,0,.18,0h.11s.07,0,.07,0h.18s.03,0,.03,0h.15s.12,0,.12,0h.05s.17,0,.17,0h.04s.02,0,.02,0h.25s.03,0,.03,0h.17s.06,0,.06,0h.11s.15,0,.15,0h.02s.16,0,.16,0h.07s.09,0,.09,0h.16s.02-.05,.02-.05l.02-.06,.02-.06,.02-.06h0s.02-.06,.02-.06l.02-.06,.02-.06,.02-.06v-.02s.02-.04,.02-.04l.02-.06,.02-.06,.02-.06v-.03s.02-.03,.02-.03l.02-.06,.02-.06,.02-.06v-.04s.02-.02,.02-.02l.02-.06,.02-.06,.02-.06,.02-.05h0s.02-.07,.02-.07l.02-.06,.02-.06,.02-.06h0s.02-.06,.02-.06l.02-.06,.02-.06,.02-.06h0s.02-.06,.02-.06l.02-.06,.02-.06,.02-.06v-.02s.02-.04,.02-.04l.02-.06,.02-.06,.02-.06v-.03s.02-.03,.02-.03l.02-.06,.02-.06,.02-.06v-.04s.02-.02,.02-.02l.02-.06,.02-.06,.02-.06,.02-.05h0s.02-.07,.02-.07l.02-.06,.02-.06,.02-.06h0s.02-.06,.02-.06l.02-.06,.02-.06,.02-.06h0s.02-.06,.02-.06l.02-.06,.02-.06,.02-.06v-.02s.02-.04,.02-.04l.02-.06,.02-.06,.02-.06v-.03s.02-.03,.02-.03l.02-.06c1.53-4.01,3.12-8.1,4.67-11.96-6.33-.18-14.38-.21-22.13,.15h-.13s-.04,0-.04,0h-.17s-.17,.02-.17,.02h-.17s-.17,.02-.17,.02h-.17s-.17,.02-.17,.02h0s-.17,0-.17,0h-.17s-.17,.02-.17,.02h-.17s-.17,.02-.17,.02h-.17s-.17,.02-.17,.02l-.34,.02h-.17s-.17,.02-.17,.02h-.17s-.17,.02-.17,.02h-.17s-.34,.03-.34,.03h-.17s-.17,.02-.17,.02h-.17s-.17,.02-.17,.02h-.17s-.33,.03-.33,.03h-.17s-.17,.02-.17,.02h-.02s-.29,.02-.29,.02h-.03s-.17,.01-.17,.01h-.17s-.33,.04-.33,.04h-.16s-.16,.03-.16,.03h-.16s-.16,.03-.16,.03h-.16s-.16,.03-.16,.03h-.16s-.16,.03-.16,.03l-.32,.03h-.16s-.16,.03-.16,.03h-.16s-.16,.03-.16,.03h-.16s-.16,.03-.16,.03l-.16,.02-.16,.02-.16,.02h-.03s-.29,.03-.29,.03l-.16,.02-.16,.02-.16,.02-.16,.02-.16,.02c-1.55,.17-3.04,.35-4.45,.57-5.39,16.45-9.07,31.59-12.84,47.1l-.03,.13-.03,.13-.03,.13-.03,.13v.04s-.03,.09-.03,.09l-.03,.13-.03,.13-.03,.13-.03,.13-.03,.13-.03,.12h0s-.06,.26-.06,.26h0s-.03,.13-.03,.13l-.03,.13-.03,.13-.03,.13-.02,.07v.06s-.05,.13-.05,.13l-.03,.13-.03,.13-.03,.13-.03,.13-.03,.13v.02s-.03,.11-.03,.11l-.03,.13-.03,.13-.03,.13-.03,.13-.03,.13-.03,.11v.02s-.04,.13-.04,.13l-.03,.13-.03,.13-.03,.13-.03,.13-.03,.13v.06s-.03,.07-.03,.07l-.03,.13-.03,.13-.03,.13-.03,.13-.03,.13-.03,.13h0s-.03,.13-.03,.13l-.03,.13-.03,.13-.03,.13-.03,.13-.03,.13-.02,.09v.04s-.04,.13-.04,.13l-.03,.13-.03,.13-.03,.13-.03,.13-.03,.13v.05s-.03,.08-.03,.08l-.03,.13-.03,.13-.03,.13-.03,.13-.03,.13-.03,.13h.51s.06,0,.06,0h.06s.06,0,.06,0h.18s.06,0,.06,0h.12s.03,0,.03,0h.09s.06,0,.06,0h.06s.06,0,.06,0h.19s.06,0,.06,0h.13s.06,0,.06,0h.06s.06,0,.06,0h.13s.06,0,.06,0h.12s0,0,0,0h.06s.06,0,.06,0h.06s.07,0,.07,0h.07s.6,0,.6,0h.07s.14,0,.14,0h.07s.02,0,.02,0h.05s.07,0,.07,0h.07s.07,0,.07,0h.07s.07,0,.07,0h.14s.07,0,.07,0c7.67,.04,18.67,.12,27.32-.41,2.5-4.77,4.46-9.23,6.34-14.08-1.88,.23-4.11,.42-6.45,.56h0s-.09,0-.09,0l-.34,.02h-.03s-.23,.02-.23,.02h-.08s-.15,.01-.15,.01h-.19s-.04,.01-.04,.01h-.23s-.07,.02-.07,.02l-.34,.02h-.05s-.23,.02-.23,.02h-.06s-.17,.01-.17,.01h-.17s-.06,.01-.06,.01h-.23s-.05,.01-.05,.01h-.18s-.16,.02-.16,.02h-.07s-.23,.01-.23,.01h-.04s-.19,.01-.19,.01h-.15s-.08,.01-.08,.01h-.23s-.03,.01-.03,.01h-.2s-.14,.01-.14,.01h-.09s-.23,.01-.23,.01h-.02s-.21,0-.21,0h-.13s-.1,0-.1,0h-.23s-.01,0-.01,0h-.22s-.12,.01-.12,.01h-.11s-.23,.01-.23,.01h0s-.22,0-.22,0h-.11s-.11,0-.11,0h-.22s0,0,0,0h-.22s-.1,.01-.1,.01h-.12s-.21,.01-.21,.01h-.02s-.22,0-.22,0h-.09s-.13,0-.13,0h-.19s-.02,0-.02,0h-.22s-.08,0-.08,0h-.14s-.18,0-.18,0h-.03s-.21,0-.21,0h-.07s-.14,0-.14,0h-.17s-.04,0-.04,0h-.21s-.06,0-.06,0h-.15s-.16,0-.16,0h-.05s-.2,0-.2,0h-.05s-.15,0-.15,0h-.15s-.05,0-.05,0h-.2s-.04,0-.04,0h-.16s-.13,0-.13,0h-.06s-.19,0-.19,0h-.03s-.16,0-.16,0h-.12s-.07,0-.07,0h-.18s-.02,0-.02,0h-.16s-.11,0-.11,0h-.25s-.01,0-.01,0h-.26s-.08,0-.08,0h-.17s0,0,0,0h-.16s-.09,0-.09,0h-.24s.02-.07,.02-.07l.02-.06h0s.02-.07,.02-.07l.02-.06h0s.02-.07,.02-.07l.02-.06h0s.02-.07,.02-.07l.02-.05h0s.02-.08,.02-.08l.02-.05h0s.02-.08,.02-.08l.02-.05v-.02s.03-.06,.03-.06v-.05s.02-.02,.02-.02l.02-.06v-.04s.02-.02,.02-.02l.02-.06v-.04s.02-.02,.02-.02l.02-.06v-.04s.02-.03,.02-.03l.02-.06v-.04s.02-.03,.02-.03l.02-.06v-.03s.02-.03,.02-.03l.02-.06v-.03s.02-.03,.02-.03l.02-.06v-.03s.02-.04,.02-.04l.02-.06v-.02s.02-.04,.02-.04l.02-.06v-.02s.02-.04,.02-.04l.02-.06v-.02s.02-.04,.02-.04l.02-.06v-.02s.02-.05,.02-.05l.02-.06h0s.02-.06,.02-.06l.02-.06h0s.02-.06,.02-.06l.02-.06h0s.02-.06,.02-.06l.02-.06h0s.02-.06,.02-.06l.04-.13,.02-.06h0s.02-.06,.02-.06l.02-.06h0s.02-.06,.02-.06l.02-.06h0s.02-.07,.02-.07l.02-.06h0s.02-.07,.02-.07l.02-.05h0s.02-.07,.02-.07l.02-.05h0s.02-.07,.02-.07l.02-.05h0s.02-.08,.02-.08v-.05s.02-.02,.02-.02l.02-.06v-.04s.02-.02,.02-.02l.02-.06c.41-1.28,.81-2.57,1.2-3.91,1.63-.11,3.82-.19,6.19-.24h.02s.18,0,.18,0h.13s.07,0,.07,0h.2s.04,0,.04,0h.16s.16,0,.16,0h.05s.2,0,.2,0h.07s.14,0,.14,0h.18s.02,0,.02,0h.2s.09,0,.09,0h.11s.2,0,.2,0h.2s.11,0,.11,0h.09s.2,0,.2,0h.2s.14,0,.14,0h.07s.2,0,.2,0h.34s.03,0,.03,0h.85s.1,0,.1,0h.11s.2,0,.2,0h.2s.12,0,.12,0h.08s.2,0,.2,0h.03s.17,0,.17,0h.14s.06,0,.06,0h.2s.05,0,.05,0h.14s.16,0,.16,0h.03s.19,0,.19,0h.07s.12,0,.12,0h.18s.01,0,.01,0h.19s.1,0,.1,0h.09s.19,0,.19,0h.01s.18,0,.18,0h.12s.07,0,.07,0h.18s.03,0,.03,0h.15s.13,0,.13,0h.05s.18,0,.18,0h.05s.13,0,.13,0h.15s.03,0,.03,0h.17s.07,0,.07,0h.1s.17,0,.17,0h0s.17,0,.17,0h.09s.08,0,.08,0h.17s.01,0,.01,0h.15s.16,.01,.16,.01h.16s.03,0,.03,0h.12s.12,.01,.12,.01h.04s.15,0,.15,0h.05s.1,0,.1,0h.13s.02,0,.02,0h.15s.06,.01,.06,.01h.08s.14,.01,.14,.01l.03-.08,.03-.08v-.03s.03-.04,.03-.04l.03-.08,.02-.07h0s.03-.08,.03-.08l.03-.07v-.03s.03-.05,.03-.05l.03-.07,.02-.06h0s.03-.08,.03-.08l.03-.07v-.02s.03-.05,.03-.05l.03-.07,.02-.06v-.02s.03-.07,.03-.07l.02-.07v-.02s.02-.06,.02-.06l.02-.07,.02-.05v-.02s.03-.07,.03-.07l.02-.07h0s.02-.07,.02-.07l.02-.07v-.04s.02-.03,.02-.03l.02-.07,.02-.07h0s.02-.07,.02-.07l.02-.07v-.04s.02-.03,.02-.03l.02-.07,.02-.07h0s.02-.07,.02-.07l.02-.07v-.03s.02-.04,.02-.04l.02-.07,.02-.06h0s.02-.07,.02-.07l.02-.07v-.03s.02-.04,.02-.04l.02-.07,.02-.06h0s.02-.08,.02-.08l.02-.07v-.02s.02-.05,.02-.05l.02-.07,.02-.05h0s.02-.08,.02-.08l.02-.07v-.02s.02-.05,.02-.05l.02-.07,.02-.05v-.02s.03-.07,.03-.07l.02-.07h0s.02-.07,.02-.07l.02-.07v-.04s.02-.02,.02-.02l.02-.07,.02-.07h0s.02-.07,.02-.07l.02-.07v-.04s.02-.03,.02-.03l.02-.07,.02-.07c.67-2.08,1.27-4.09,1.92-6.46-4.69-.16-13.14-.22-18.39,.55Z"/>
    <path class="cls-1" d="M322.49,84.03c.07,.07,.13,.13,.2,.2-.06-.07-.13-.13-.2-.2Z"/>
    <path class="cls-1" d="M301.52,104.15c10.51,1.95,25.23,1.93,34.98-4.11,.36-.22,.71-.45,1.06-.69l.03-.02,.11-.07c.12-.08,.24-.17,.36-.26l.22-.16c.09-.07,.19-.14,.28-.21,.09-.07,.17-.14,.26-.2,.08-.06,.15-.12,.23-.18,.11-.09,.22-.18,.32-.27l.15-.13c.12-.11,.24-.21,.36-.32l.12-.11c.13-.12,.25-.24,.38-.36l.09-.08c.14-.13,.27-.27,.4-.4l.04-.05c.14-.14,.28-.29,.41-.44l.03-.04c.14-.15,.28-.31,.41-.47l.02-.02c.14-.16,.27-.33,.41-.49h0s0-.02,0-.02c.13-.17,.27-.34,.39-.52v-.02s.02-.02,.02-.02v-.02s.02-.02,.02-.02h0s0-.02,0-.02v-.02s.02-.02,.02-.02v-.02s.02,0,.02,0h0s0-.02,0-.02v-.02s.02-.02,.02-.02h0s0-.02,0-.02v-.02s.02-.02,.02-.02v-.02s.02-.02,.02-.02h0s0-.02,0-.02v-.02s.02-.02,.02-.02v-.02s.02,0,.02,0h0s0-.02,0-.02v-.02s.02-.02,.02-.02h0s0-.02,0-.02v-.02s.02-.02,.02-.02v-.02s.02-.02,.02-.02h0s0-.02,0-.02v-.02s.02-.02,.02-.02v-.02s.01,0,.01,0h0s0-.03,0-.03v-.02s.02-.02,.02-.02h0s0-.02,0-.02v-.02s.02-.02,.02-.02v-.02s.02-.02,.02-.02h0s0-.02,0-.02v-.02s.02-.02,.02-.02v-.02s.01,0,.01,0h0s0-.03,0-.03l.02-.03h0s0-.02,0-.02v-.02s.02-.02,.02-.02v-.02s.02-.02,.02-.02h0s0-.02,0-.02v-.02s.02-.02,.02-.02v-.02s.01,0,.01,0h0s.02-.05,.02-.05v-.02c.66-1.24,1.16-2.69,1.34-3.95,.7-4.77-3.52-7.28-6.89-9.7-1.53-1.13-4.91-2.42-7.21-4.14l-.06-.05h0s-.1-.08-.1-.08h-.01s-.06-.06-.06-.06l-.1-.08-.04-.03-.1-.08-.06-.05h-.01s-.1-.1-.1-.1h0s-.06-.05-.06-.05h0s-.07-.07-.07-.07l-.07-.07-.06-.06-.07-.07-.08-.08-.07-.07-.06-.06-.08-.09-.04-.04-.09-.11-.03-.04s-.06-.07-.08-.11l-.03-.03s-.06-.07-.08-.11l-.03-.04s-.06-.08-.08-.12l-.02-.02s-.05-.08-.08-.13v-.02s-.06-.08-.09-.13v-.03s-.06-.08-.08-.13v-.03s-.06-.09-.08-.14h0s0-.01,0-.01c-.02-.05-.04-.09-.05-.14v-.02s-.04-.1-.06-.14h0c-.02-.06-.03-.11-.04-.17h0c-.01-.06-.02-.11-.03-.16h0s0-.01,0-.01c0-.05-.02-.11-.02-.16h0c0-.06-.01-.11-.01-.16v-.02c0-.05,0-.11,0-.16,0-.05,0-.1,0-.15h0v-.14s0-.02,0-.02h0s0-.01,0-.01v-.11s0-.02,0-.02h0s0-.02,0-.02c0-.05,0-.09,0-.14h0s0,0,0,0v-.12s.01-.02,.01-.02h0s0-.02,0-.02v-.09s.01-.02,.01-.02v-.02s0,0,0,0v-.02s.01-.07,.01-.07v-.02s0-.02,0-.02v-.02s0-.02,0-.02v-.02s.01-.06,.01-.06v-.05s.03-.1,.03-.1v-.03s0,0,0,0v-.02s.01-.05,.01-.05v-.02s0-.02,0-.02c.6-2.65,2.87-4.74,5.25-5.93,3.52-1.72,11.27-1.56,14.86-.7l4.07-15.96c-5.4-.55-10.01-.78-15.41-.31-9.23,.78-21.12,4.22-25.66,12.44-.47,.79-.9,1.69-1.25,2.65l-.03,.08-.03,.09v.03s-.03,.06-.03,.06l-.03,.08h0s-.03,.1-.03,.1v.03s-.03,.06-.03,.06l-.03,.08h0s-.03,.1-.03,.1v.03s-.03,.06-.03,.06l-.02,.08h0s-.03,.1-.03,.1v.04s-.03,.06-.03,.06l-.02,.08h0s-.03,.1-.03,.1v.04s-.03,.06-.03,.06l-.02,.08h0s-.02,.1-.02,.1v.04s-.02,.06-.02,.06l-.02,.08h0s-.02,.1-.02,.1v.04s-.02,.06-.02,.06l-.02,.09h0s-.02,.1-.02,.1v.04s-.02,.06-.02,.06l-.02,.09h0s-.02,.1-.02,.1v.04s-.02,.06-.02,.06l-.02,.09h0s-.02,.1-.02,.1v.04s-.02,.05-.02,.05v.09s-.02,0-.02,0l-.02,.09v.04s-.01,.05-.01,.05v.09s-.01,0-.01,0v.09s-.02,.04-.02,.04v.05s-.02,.09-.02,.09h0s-.01,.1-.01,.1v.04s-.01,.05-.01,.05v.09s0,0,0,0v.12s-.01,.01-.01,.01v.05s-.01,.09-.01,.09h0s0,.1,0,.1v.04s0,0,0,0v.13s0,0,0,0h0s0,.1,0,.1v.04s0,0,0,0v.11s0,.02,0,.02h0s0,.1,0,.1v.02s0,.07,0,.07h0s0,.1,0,.1h0s0,.12,0,.12v.07s0,.09,0,.09h0s0,.09,0,.09v.04s0,.05,0,.05v.09s0,0,0,0v.09s0,.05,0,.05v.02s0,.12,0,.12h0s.01,.13,.01,.13v.02s.01,.13,.01,.13c.47,6.1,3.91,9.47,9.78,12.75,.12,.07,.24,.14,.36,.21l.1,.06c.08,.05,.16,.1,.24,.15l.12,.07c.08,.05,.16,.1,.23,.15l.09,.06c.1,.07,.21,.13,.3,.2l.09,.06c.07,.05,.15,.1,.22,.15l.1,.07c.07,.05,.13,.1,.2,.14l.09,.07c.18,.14,.36,.28,.53,.41l.06,.05c.06,.05,.13,.11,.19,.16l.07,.06c.06,.05,.12,.1,.17,.15l.06,.05c.08,.07,.15,.14,.22,.21l.2,.2h0s.03,.03,.03,.03l.03,.03s.09,.09,.13,.14l.06,.07s.09,.1,.13,.15l.05,.05c.05,.07,.11,.13,.16,.2l.04,.06s.07,.09,.11,.14l.05,.07s.06,.09,.1,.14l.04,.06c.04,.05,.07,.11,.1,.16l.03,.05c.03,.06,.07,.12,.1,.18l.04,.07s.04,.08,.06,.12l.03,.07s.04,.09,.06,.13l.02,.06c.02,.06,.05,.12,.07,.18l.02,.05s.03,.09,.04,.13l.02,.07s.02,.08,.03,.12v.07s.03,.08,.04,.13v.06c.02,.06,.03,.11,.03,.17v.06s0,.08,.01,.12v.07s0,.07,0,.11v.07s0,.08-.01,.12c0,.04,0,.07-.01,.11,0,.04,0,.07-.02,.11,0,.03-.01,.05-.02,.08l-.02,.09-.02,.08s-.02,.06-.03,.1l-.02,.07c-.02,.05-.04,.1-.05,.15-.01,.03-.02,.05-.04,.08l-.03,.07-.04,.08-.04,.08-.04,.07s-.04,.06-.05,.09c-.02,.04-.05,.08-.07,.11-.02,.03-.04,.06-.06,.08-.02,.03-.04,.05-.06,.08l-.06,.07-.06,.07s-.04,.05-.06,.07c-.02,.02-.04,.05-.06,.07-.02,.02-.04,.04-.07,.07-.04,.04-.09,.09-.14,.13l-.06,.06s-.06,.05-.08,.07l-.07,.06-.09,.07-.08,.06-.08,.06c-.05,.04-.11,.08-.16,.11-.03,.02-.07,.04-.1,.07l-.08,.05-.11,.07-.09,.05-.12,.07-.06,.03c-.08,.05-.17,.09-.26,.14l-.07,.03s-.09,.04-.14,.06l-.09,.04-.13,.06-.1,.04c-1.27,.53-2.91,.9-4.87,1.04-.61,.04-1.28,.06-1.99,.07h0s-.02,0-.02,0c-.14,0-.29,0-.44,0h-.06c-3.42,0-7.52-.37-10.25-.93l-2.11,12.99,12.82-12.06h-.25s-12.57,12.06-12.57,12.06Z"/>
    <path class="cls-1" d="M346.42,104.15c.4,.07,.81,.15,1.22,.21h.02s0,0,0,0h.02c.19,.03,.38,.06,.57,.09h.04s.02,0,.02,0c.18,.03,.36,.05,.54,.08h.09s.01,.01,.01,.01h.03c.19,.03,.38,.06,.57,.09h.03s.07,.01,.07,.01c.17,.02,.35,.05,.52,.07h.09s.1,.02,.1,.02c.17,.02,.34,.04,.52,.06h.03s.08,.01,.08,.01c.18,.02,.37,.04,.55,.06h.1c.19,.03,.37,.05,.56,.07h.14c12.49,1.21,27.91-.64,35.15-10.44,.94-1.41,1.72-3.36,1.96-5.01,.7-4.77-3.52-7.28-6.88-9.7-2.43-1.8-9.55-3.99-9.55-7.67-.08-3.36,2.58-6.02,5.4-7.43,3.52-1.72,11.27-1.56,14.86-.7l4.07-15.96c-5.4-.55-10.01-.78-15.41-.31-9.23,.78-21.12,4.22-25.66,12.44-.77,1.28-1.42,2.85-1.8,4.49v.03s-.01,.02-.01,.02v.05s-.02,.05-.02,.05v.03s-.01,.01-.01,.01v.05s-.02,.05-.02,.05h0s-.02,.08-.02,.08h0s0,.05,0,.05v.05s-.02,.05-.02,.05v.05s-.02,.05-.02,.05h0s0,.05,0,.05v.05s-.02,.05-.02,.05h0s0,.05,0,.05v.05s-.02,.05-.02,.05h0s0,.05,0,.05v.05s-.02,.05-.02,.05h0s0,.05,0,.05v.05s-.01,.05-.01,.05v.02s0,.03,0,.03v.05s-.01,.05-.01,.05v.02s0,.02,0,.02v.05s-.01,.05-.01,.05v.03s0,.02,0,.02v.08s-.01,0-.01,0v.03s0,.01,0,.01v.05s-.01,.05-.01,.05v.04s0,0,0,0v.09s-.01,.05-.01,.05v.05s0,.05,0,.05v.05s0,0,0,0v.05s0,.05,0,.05v.05s0,0,0,0v.04s0,.05,0,.05v.05s0,.01,0,.01v.04s0,.05,0,.05v.05s0,.05,0,.05v.05s0,.05,0,.05v.05s0,.05,0,.05v.05s0,.02,0,.02v.02s0,.05,0,.05v.05s0,.03,0,.03v.02s0,.05,0,.05c0,.4,.01,.8,.06,1.18,.47,6.1,3.91,9.47,9.78,12.75,8.53,4.85,6.02,9.86-2.66,10.48-3.68,.23-9.31-.16-12.75-.86l-2.11,12.99Z"/>
    <path class="cls-1" d="M292.83,65.03c.57,.21,1.12,.18,1.63,.36,2.52,.91,4.43,.69,6.46,2.31,1.71,1.36,4.83,6.14,5.32,8.14-1.87,.48-1.62,.72-3.15,1.25-.9,1.16,0,.58-1.32,1.13-2.25,.93-3.2,4.9-4.1,7.45-2.96-.2-7.97-.49-12.2-.41-1.82,.69-4.47-.67-6.47,.68-.62,.42,.26,.44-.3,.85-.43,1.34-.62,1.68-1.06,3.08,3.44,0,7.54-.37,12.42-.68l5.83-.42c2.77,.03,.88,2.59,5.08-1.61,6.99-7,6.02-3.88,12.11-5.46,.96,3.94,2.8,6.19,5.92,8.3,4.52-1.81,5.32-3.26-1.36-7.06-5.87-3.29-10.1-8.46-10.57-14.56-.21-1.93,.9-4.54,1.59-6.45-1.49-1.13,.19-1.05-1.25-1.92-.48,1.27-1.57,3.75-2.04,4.99-3.33-.15-7.92-.16-12.53,.03h0Zm-34.54,32.14c-1.83,.63-1.52,.56-3.02,1.55-2.31,1.53-2.47,2.27-3.81,4.51-2.03,3.38-6.65,5.76-10.18,7.33-5.13,2.29-4.13,4.92-9.17,7.99-4.75,2.9-11.68,7.51-12.96,12.89,1.77-.63,9.96-6.46,12.67-8.27,7.32-4.88,2.18-2.82,13.62-7.64,6.21-2.62,9.63-4.38,14.55-8.83-1.49,0-2.85-.01-4.05-.01,.68-2.78,1.67-6.76,2.34-9.51h0Zm79.41,4.4c3.35,3.45,3.99,5.97,8.04,9.73,7.1,6.57,4.45-.8,12.13,11.22,1.32,2.07,3.66,2.74,6.37,5.08,2.52,2.18,2.45,1.33,6.13,5.5,2.62,2.97,4.15,6.63,7.76,8.07-.5-2.04-1.78-3.2-2.73-4.85-.97-1.67-1.66-3.17-2.68-4.94-5.28-9.16-3.36-4.63-6.27-8.28-2.14-2.68-4.16-5.67-6.08-8.6-2.77-4.23-4.01-4.78-6.45-7.4-2.27-.2-7.64-1.11-9.66-1.49l1.42-7.81c-.75-.84-.54-1.78-1.27-2.81-.2,.38-.41,.73-.62,1.06-1.65,2.23-3.72,4.05-6.09,5.51h0Zm-6.07-26.57l2.49-1.44c10.27-5.89,11.39-5.41,20-5.96,0-.97,.14-1.96,.37-2.93-2.34-.43-4.52,.04-9.27,1.26-5.85,1.52-10.23,2.05-15.77,4.03-.11,.48-.16,.99-.15,1.51,0,1.36,.98,2.52,2.33,3.53h0Zm-43.4-27.03c-1.82-3.02-3.13-4.08-5.72-5.78-5.91-3.87-8.39-3.86-13.83-8.85-1.07-.98-1.77-1.71-2.9-2.74-1.79-1.61-1.77-1.19-3.54-2.22-1.74-1.01-4.53-4.25-5.99-5.75-8.73-8.99-6.39-5.27-14.68-7.35-1.03-.26-2.86-.82-3.74-1.26-1.51-.77-1.76-1.83-3.06-3.06-2.21-2.08-4.47-2.53-7.04-3.9l-14.84-7.06c1.16,2.32,6.36,3.51,8.7,5.81,7.61,7.49,7.85,5.67,12.39,9.57,1.51,1.3,2.63,2.37,4.22,3.43,9.38,6.25,8.77-1.41,16.43,13.32,2.13,4.09,3.84,6.49,7.34,8.2,2.97,1.45,11.69,4.83,15.66,8.42,3.32-.36,6.92-.61,10.59-.77Z"/>
  </g>
</svg>