<?xml version="1.0" encoding="UTF-8"?>
<svg id="_Слой_2" data-name="Слой 2" xmlns="http://www.w3.org/2000/svg" viewBox="0 0 113.81 68.35">
  <defs>
    <style>
      .cls-1 {
        fill: #414042;
        fill-rule: evenodd;
      }
    </style>
  </defs>
  <g id="_Слой_1-2" data-name="Слой 1">
    <path class="cls-1" d="M80.64,17.4l6.67,7.83c.76,.88,1.44,1.6,1.71,2.01,1.99,1.98,3.11,4.66,3.11,7.45-.19,3.29-2.33,5.53-4.32,7.93l-4.66,5.48-2.43,2.84c-.09,.1-.14,.22-.16,.35-.02,.13,0,.26,.06,.38,.06,.12,.15,.22,.26,.28,.11,.07,.24,.1,.38,.1h24.32c3.71,0,8.39,3.12,8.12,7.86,0,2.15-.88,4.22-2.42,5.74-1.55,1.52-3.64,2.38-5.82,2.39h-38.08c-2.51,0-9.24,.27-11.13-5.48-.4-1.2-.46-2.49-.16-3.72,.55-1.82,1.42-3.53,2.56-5.05,1.91-2.84,3.99-5.68,6.03-8.43,2.63-3.6,5.34-7.09,8-10.77,.09-.12,.15-.27,.15-.42s-.05-.3-.15-.42l-9.67-11.35c-.06-.08-.14-.15-.24-.19-.09-.05-.2-.07-.3-.07s-.21,.02-.3,.07c-.09,.05-.18,.11-.24,.19-2.59,3.45-13.94,18.71-16.35,21.81-2.42,3.09-8.38,3.26-11.68,0l-15.13-14.97c-.1-.1-.22-.16-.35-.19-.13-.03-.27-.01-.4,.04-.13,.05-.23,.14-.31,.25-.08,.11-.12,.24-.12,.38v28.79c.04,2.04-.58,4.05-1.76,5.73-1.18,1.68-2.86,2.96-4.81,3.65-1.25,.43-2.58,.56-3.88,.37-1.31-.18-2.55-.67-3.63-1.42-1.08-.75-1.95-1.75-2.56-2.9-.61-1.16-.92-2.44-.93-3.74V8.45c.09-1.87,.77-3.66,1.95-5.12C3.12,1.87,4.74,.81,6.56,.31c1.56-.41,3.21-.41,4.77,.01,1.56,.42,2.99,1.24,4.12,2.37l23.26,22.96c.07,.07,.15,.12,.25,.16,.09,.03,.19,.05,.29,.04,.1,0,.19-.04,.28-.09,.09-.05,.16-.12,.22-.2L56.29,3.02c.76-.92,1.72-1.65,2.81-2.17,1.08-.51,2.27-.78,3.47-.8h42.99c1.18,0,2.34,.25,3.41,.73,1.07,.48,2.03,1.18,2.8,2.05,.77,.87,1.35,1.9,1.69,3.01,.34,1.11,.43,2.28,.28,3.43-.3,1.99-1.33,3.81-2.89,5.12-1.56,1.3-3.55,2.01-5.59,1.98h-24.07c-.12,0-.24,.04-.34,.1-.1,.06-.19,.15-.24,.26-.06,.11-.08,.22-.08,.34,0,.12,.05,.23,.11,.33Z"/>
  </g>
</svg>