<svg width="139" height="117" viewBox="0 0 139 117" fill="none" xmlns="http://www.w3.org/2000/svg">
<path fill-rule="evenodd" clip-rule="evenodd" d="M45.8492 24.26C-23.3708 34.54 -2.42082 103.47 53.9092 89.31C81.5192 91.12 105.289 72.09 118.389 50.34C144.619 -3.64 143.789 -10.62 106.709 24.06C85.6692 19.63 65.4092 19.82 45.8492 24.26Z" fill="#4F6E82" stroke="#271109" stroke-width="4.3537" stroke-miterlimit="22.9256"/>
<path fill-rule="evenodd" clip-rule="evenodd" d="M108.369 64.1197C118.499 76.2997 92.4687 90.7197 106.069 94.9397C118.209 98.7097 120.579 79.2697 117.189 68.9197C116.099 65.5997 114.729 62.7497 112.629 60.2197L108.369 64.1197Z" fill="#84A7C8" stroke="#271109" stroke-width="4.354" stroke-miterlimit="22.9256"/>
<path fill-rule="evenodd" clip-rule="evenodd" d="M54.7305 89.2599C57.0305 117.21 77.8405 122.02 67.6805 102.89C66.8705 101.36 66.3605 90.01 65.2205 88.96C61.4905 89.32 58.0105 89.6299 54.7305 89.2599Z" fill="#84A7C8" stroke="#271109" stroke-width="4.3537" stroke-miterlimit="22.9256" stroke-linecap="round" stroke-linejoin="round"/>
<path fill-rule="evenodd" clip-rule="evenodd" d="M90.5594 79.3301C87.3994 84.2901 83.1894 88.1101 89.2994 89.8101C97.8794 92.1901 100.339 80.9901 98.7694 73.3301C96.2694 75.6001 93.5494 77.6201 90.5594 79.3301Z" fill="#84A7C8" stroke="#271109" stroke-width="4.354" stroke-miterlimit="22.9256"/>
<path fill-rule="evenodd" clip-rule="evenodd" d="M39.1211 91.2197C41.0611 114.77 57.7011 112.5 49.1411 96.3897C48.4511 95.0997 48.9211 91.8597 47.9611 90.9697C44.8211 91.2697 41.8911 91.5297 39.1211 91.2197Z" fill="#84A7C8" stroke="#271109" stroke-width="4.3537" stroke-miterlimit="22.9256" stroke-linecap="round" stroke-linejoin="round"/>
<path fill-rule="evenodd" clip-rule="evenodd" d="M45.8497 24.2598C61.2497 25.3598 74.2298 32.8298 76.7497 53.6598C78.9197 71.6298 70.9197 85.6298 53.9097 89.2998C27.7097 94.9598 10.4497 86.8698 3.57975 68.7898C-1.21025 45.4598 12.2397 30.3198 45.8497 24.2598Z" fill="#C2A089" stroke="#271109" stroke-width="4.3526" stroke-miterlimit="22.9256"/>
<path fill-rule="evenodd" clip-rule="evenodd" d="M42.9188 44.46C48.3588 46.67 50.0288 55.23 46.6288 63.58C43.2388 71.93 36.0688 76.9 30.6288 74.69C25.1888 72.48 23.5188 63.92 26.9188 55.57C30.3188 47.22 37.4788 42.25 42.9188 44.46Z" fill="#271109" stroke="#271109" stroke-width="4.3537" stroke-miterlimit="22.9256"/>
</svg>
