<?xml version="1.0" encoding="UTF-8"?>
<svg id="_Слой_2" data-name="Слой 2" xmlns="http://www.w3.org/2000/svg" viewBox="0 0 83.9 68.23">
  <defs>
    <style>
      .cls-1 {
        fill: #414042;
        fill-rule: evenodd;
      }
    </style>
  </defs>
  <g id="_Слой_1-2" data-name="Слой 1">
    <path class="cls-1" d="M74.13,10.72c.28-.12,1.01-.66,1.27-.84,2.56-1.85,5.48-5.52,6.21-8.61l-2.46,1.29c-1.87,.95-6.73,2.78-8.51,2.83-.24-.38-1.4-1.37-1.87-1.73-.67-.51-1.3-.95-2.11-1.42-5.16-3.01-11.94-2.91-16.88-.12-4.69,2.65-7.9,7.13-8.73,12.57-.37,2.42-.14,4.12,.25,6.44-8.12-.44-14.78-2.63-20.89-5.87-2.15-1.14-4.16-2.48-6.1-3.92-.64-.48-1.26-.96-1.85-1.47-1.41-1.22-2.1-1.76-3.49-3.22l-1.24-1.3c-.13-.15-.25-.23-.39-.39l-1.55-1.8-.11,.13s-.02,.03-.03,.04c-.35,.5-1.02,2.13-1.22,2.67-.36,1-.65,2.14-.82,3.28-.78,5.44,.91,10.02,4.19,13.98l3.25,2.83c-.97,.14-3.33-.39-4.23-.64-1.61-.46-3.11-1.33-3.53-1.44-.05,2.25,.45,4.64,1.2,6.52,.39,.96,.81,1.8,1.29,2.6,.46,.76,1.05,1.61,1.6,2.21,.17,.18,.27,.36,.45,.54,.18,.18,.34,.32,.51,.48,.19,.19,.27,.28,.48,.5,.51,.53,2.02,1.61,2.69,2.03,1.54,.97,3.43,1.7,5.45,2.16-.46,.39-3.19,.61-3.65,.63-1.48,.06-2.54-.1-3.95-.28,.3,1.42,1.63,3.74,2.34,4.71l2.48,2.81c.31,.26,.58,.48,.93,.76,1.15,.94,2.78,1.89,4.45,2.53,2.9,1.1,3.29,.77,5.82,1.17-.23,.27-1.97,1.47-2.39,1.73-.83,.53-1.68,1.07-2.61,1.55-1.87,.97-3.64,1.73-5.81,2.45-3.27,1.09-7.28,1.69-10.83,1.64l-3.76-.21s1.05,.65,1.25,.77c3.12,1.9,6.64,3.45,10.15,4.59,8.96,2.93,20.33,3.14,29.32,.37,2.95-.91,6.36-2.15,8.99-3.63,4.34-2.43,5.63-3.43,9.27-6.53l2.63-2.59,2.94-3.41c7.04-9.25,11.25-20.22,10.8-33.17,.32-.16,.93-.67,1.25-.92,2.52-1.96,4.5-4.14,6.44-6.68,.27-.36,.65-.85,.85-1.25-.68,.21-1.53,.63-2.27,.89-1.61,.56-6.2,1.88-7.5,1.74Z"/>
  </g>
</svg>