<?xml version="1.0" encoding="UTF-8"?>
<svg id="_Слой_2" data-name="Слой 2" xmlns="http://www.w3.org/2000/svg" viewBox="0 0 92.93 65.62">
  <defs>
    <style>
      .cls-1 {
        fill: #ffffff;
        fill-rule: evenodd;
      }
    </style>
  </defs>
  <g id="_Слой_1-2" data-name="Слой 1">
    <path class="cls-1" d="M37.05,18.7c.67,.1,10.49,6.07,12.02,6.95,2.09,1.2,3.99,2.35,6.03,3.53,1.01,.58,1.9,1.12,2.96,1.74,.54,.31,.99,.6,1.52,.9,.3,.17,.48,.26,.73,.41l.65,.5-12.02,7.12c-1.22,.75-11.36,6.78-11.9,6.9V18.7h0Zm-2.35,46.93h12.96c1.72,0,2.99-.17,4.54-.16l11.67-.16c1.03,0,1.46-.12,2.27-.16,1.44-.08,3.28,.15,4.66-.04,2.75-.38,4.79-.17,8.62-.94,2.33-.47,5.41-1.17,7.11-2.28,1.93-1.27,3.22-3.11,4.13-5.43,2.86-7.31,2.22-20.88,2.22-29.7,0-4.84-.3-10.8-1.26-14.62-.58-2.29-1.17-3.9-2.33-5.61-3.74-5.48-10.84-5.3-18.27-5.87C61.52-.08,53.77,0,44.42,0,43.66,0,42.9,0,42.15,0c-1,0-1.26,.17-2.26,.17-1.57,0-3.14,0-4.7,0l-6.81,.16c-.99,0-1.25,.15-2.1,.17-.75,.02-1.53-.02-2.28-.01l-10.85,.98C.38,3.62,.19,13.75,.19,25.77,.19,28.83-.07,31.64,.02,34.85c.03,.84,.18,1.1,.17,2.1-.02,4.61,.08,11.2,.93,15.44,1.75,8.78,6.58,11.59,15.58,12.45,6.44,.62,11.41,.8,18,.8Z"/>
  </g>
</svg>