<?xml version="1.0" encoding="UTF-8"?>
<svg id="_Слой_2" data-name="Слой 2" xmlns="http://www.w3.org/2000/svg" viewBox="0 0 335.11 460.22">
  <defs>
    <style>
      .cls-1 {
        fill: #eab358;
      }

      .cls-1, .cls-2, .cls-3, .cls-4 {
        fill-rule: evenodd;
        stroke-linecap: round;
      }

      .cls-1, .cls-2, .cls-4 {
        stroke: #261711;
        stroke-linejoin: round;
      }

      .cls-1, .cls-4 {
        stroke-width: 1.43px;
      }

      .cls-2 {
        stroke-width: .99px;
      }

      .cls-2, .cls-3 {
        fill: none;
      }

      .cls-3 {
        stroke: #eab358;
        stroke-miterlimit: 22.93;
        stroke-width: 1.92px;
      }

      .cls-4 {
        fill: #fff;
      }
    </style>
  </defs>
  <g id="_Слой_1-2" data-name="Слой 1">
    <g>
      <path class="cls-4" d="M174.71,413.9c-12.33-8.77-28.11-3.4-30.63,10.42-9.51,11.97-3.49,27.51,11.69,30.17,11.71,9.89,27.49,4.52,30.63-10.42,8.89-10.85,2.87-26.39-11.69-30.17Z"/>
      <path class="cls-3" d="M167.66,.96V12.17c-.02,6.25,2.51,8.52,9.39,8.51h135.44c28.06,1.53,29.37,37.97,0,40.87H22.24c-28.7,2.39-28.04,37.79,0,40.87H312.49c30.96,3.91,27.43,40.91-2.34,40.75l-287.91,.12c-26.68,3.23-28.82,35.13-2.38,40.75l292.63,.13c30.06,4.91,27.13,37.22,0,40.87H22.24c-28.19,2.84-28.07,38.9,0,40.87H312.49c28.72,3.12,27.7,38.81,0,40.87H22.24c-28.25,2.28-28.28,38.33,0,40.87H299.77c70.61,0,5.89,172.24-118.91,68.53"/>
      <g>
        <path class="cls-1" d="M174.71,413.9c-12.33-8.77-28.11-3.4-30.63,10.42-9.51,11.97-3.49,27.51,11.69,30.17,11.71,9.89,27.49,4.52,30.63-10.42,8.89-10.85,2.87-26.39-11.69-30.17Z"/>
        <path class="cls-2" d="M184.07,419.8c-12.42,12.49-26.82,19.44-44.56,17.02"/>
        <path class="cls-2" d="M189.61,427.04c-14.34,11.43-31.01,14.91-49.4,12.5"/>
        <path class="cls-2" d="M190.56,432.11c-13.77,9.27-29.2,15.6-48.93,12.72"/>
        <path class="cls-2" d="M189.64,438.3c-11.81,9.94-25.98,13.59-41.62,13.31"/>
        <path class="cls-2" d="M166.49,432.11c-7.12-5.93-14.66-7.83-22.42-7.79"/>
        <path class="cls-2" d="M171.42,430.01c-7.13-6.86-17.62-9.61-26.37-9.18"/>
        <path class="cls-2" d="M175.88,426.97c-8.34-7.76-17.8-11.19-28.27-10.64"/>
        <path class="cls-2" d="M180.06,423.58c-4.54-2.03-6.71-5.28-5.93-10.08"/>
        <path class="cls-2" d="M167.15,410.32c-.66,4.55,.57,8.62,3.31,12.32"/>
        <path class="cls-2" d="M159.53,427.58c-5.04,4.59-11.32,6.4-18.91,5.25"/>
      </g>
      <path class="cls-2" d="M185.42,447.47c-11.22,5.29-11.23,6.59-27.83,8.75"/>
    </g>
  </g>
</svg>