<?xml version="1.0" encoding="UTF-8"?>
<svg id="_Слой_2" data-name="Слой 2" xmlns="http://www.w3.org/2000/svg" viewBox="0 0 219.11 162.53">
  <defs>
    <style>
      .cls-1 {
        fill: #FFFFFF;
        fill-rule: evenodd;
      }
    </style>
  </defs>
  <g id="_Слой_1-2" data-name="Слой 1">
    <path class="cls-1" d="M121.38,153.9c-3.3-4.77-16.67-27.91-19.36-32.1-2.72-4.24-13.59-2.4-18.8-2.45-17.39-.15-48.48-.27-61.15-10.31C8.02,97.89,6.04,58.4,6.16,40c.11-16.02,2.48-27.11,16.05-31.1,13.72-4.03,60.02-5.63,76.18-6.07,27.41-.76,54.7,1.08,82.75,3.84,18.64,1.84,23.02,7.35,28.19,20.28,4.06,10.15,5.19,25.03,3.25,37.69-1.61,10.53-6.52,31.81-12.04,39.35-6.44,8.78-18.98,9.76-31.97,11.57-12.83,1.79-24.35,2.87-37.42,4.1-5.95,.56-1.37,2.88-6.61,16.15-2.49,6.32-.59,12.06-3.16,18.09h0Zm11.28-31.16c10.86-2.46,50.12-3.05,65.74-10.23,15.99-7.35,21.84-50.4,20.53-67.05-.45-5.69-1.49-11.31-3.09-16.28-6.99-21.77-18.14-23.71-38.93-25.7C127.81-1.23,79.62-1.32,31.26,4.2-.16,7.79-1.2,23.22,.49,54.7c.98,18.24,3.9,48.87,20.93,58.27,20.8,11.48,52.19,7.59,74.87,9.4,2.97,5.59,5.33,13.02,7.77,19.12,5.82,14.54,14.01,30.13,22.27,14.58,5-9.42,3.12-22.95,6.33-33.33Z"/>
  </g>
</svg>